<svg xmlns="http://www.w3.org/2000/svg" viewBox="0 0 60.6 46.659"><g transform="translate(-0.3 0.4)"><path d="M307.311,33.674c-.637.086-1.225-.184-1.826,0-.588-.221-1.2.049-1.764-.123a4.46,4.46,0,0,1-1.054-.061l.061-.049c1.421,0,2.928-.135,4.423-.123v-.086c-.122,0-.257.11-.38.025-.061.025-.11.1-.147,0-1.188.061-2.45-.1-3.639-.086-.4-.061-.772.012-1.139-.061.233-.208.527.037.784-.086,1.323-.074,2.806-.1,4.129-.086l.049-.061c.245-.061.649.049.87-.086h-2.352a1.94,1.94,0,0,0-.466-.037c-.257-.147-.588.061-.821-.049-.637-.037-1.311-.037-1.936-.123v-.025l.6-.037c.208.012.466-.147.637.037a13.638,13.638,0,0,1,1.421-.061l.1-.061h4.472l.074-.074c-2.365-.074-4.938-.012-7.351-.147-.025-.037-.074-.049-.061-.086.956-.086,1.973-.086,2.916-.123l-.061-.061a17.189,17.189,0,0,1-2.1-.025l-.086-.086c.551-.159,1.139.049,1.666-.061.233.037.527-.086.723,0,1.323-.074,2.671,0,3.933-.061-.159-.025-.355.049-.466-.061-1.017.061-2.1-.1-3.051-.086-.172.049-.343-.11-.441.025-1.581-.123-3.333.025-4.778-.233,2.193-.1,4.166-.159,6.4-.172.172.025.38-.086.5,0,.674-.074,1.434.025,2.1-.086-1.875-.025-3.81-.086-5.734-.061-.184.025-.453.1-.588-.061l.061-.061c1.164-.074,2.536-.1,3.786-.086l.049-.061.061.061c.233-.159.576.074.76-.086-1.715-.086-3.749.025-5.563.025a1.185,1.185,0,0,0-.87-.025c-.049-.037-.135-.037-.147-.123,2.046-.037,4.031-.135,6.089-.257a1.019,1.019,0,0,0,.6-.061,6.82,6.82,0,0,0-1.225,0c-.025-.037-.074-.074-.049-.123l.441-.025c.282-.074.551.074.809-.061-1.078-.061-2.254.012-3.284-.061-.11-.074-.343.049-.392-.11l.061-.061c-.319.037-.613-.074-.894-.037-1.152-.1-2.365-.025-3.492-.172a2.4,2.4,0,0,1,.98-.025c2.683-.172,5.538-.037,8.062-.123a15.015,15.015,0,0,0-2.352-.061l-.086-.061-2.892.037-.061-.061-1.85.061a2.382,2.382,0,0,0-.931,0c-.355-.2-.711.012-1.078-.123.27-.11.613-.012.894-.086a10.658,10.658,0,0,0,1.286-.061q4.025-.018,7.878-.172c-.037-.061-.147,0-.172-.086l-.637.025c-.061.2-.233-.012-.355,0-3.357.025-6.874-.037-10.145-.061-.1-.037-.245-.037-.294-.11,2.5-.208,5.023-.086,7.486-.331l-6.6-.172v-.037c3.3-.208,6.6-.061,9.716-.233-2.745-.037-5.391-.037-8.111-.11l-.061.049c-.257-.159-.674.074-.931-.086,3.32-.11,6.837-.257,10.267-.319a38.568,38.568,0,0,0-4.619-.123,8.161,8.161,0,0,0-1.544-.086l-.061-.061c-1.274.086-2.634-.037-3.933,0-.049-.012-.147-.074-.123-.147,1.973-.061,3.9.012,5.881-.061a6.4,6.4,0,0,1,1.286.037,19.93,19.93,0,0,1,2.267-.061l.086-.061a26.573,26.573,0,0,0-3.259-.086l-.061-.061c-2.4.147-4.827-.245-7.241-.233-.061.086-.135-.012-.184-.061a6.8,6.8,0,0,1,1.862-.025c.5-.257,1.041.135,1.544-.123,1.911.037,3.945-.025,5.857-.172a.149.149,0,0,0-.147-.061c-.025-.025-.073-.049-.061-.086a10.76,10.76,0,0,1,1.764-.061,1.4,1.4,0,0,0-.6-.086c-.172-.049-.306.159-.441,0-3.6-.012-7.18-.1-10.66-.147l-.049-.061.049-.061c3-.123,6.138-.11,9.165-.233.11.049.257-.11.355.025l.061-.086c.931,0,1.985.025,2.794-.025l-1.164-.037c-.086-.2-.2.147-.294-.049-.233.147-.392-.061-.625.049-1.274-.049-2.426-.061-3.639-.049-1.385-.074-2.879.025-4.362-.1-.184.025-.355.11-.5-.025.894-.086,1.85-.086,2.732-.123a11.238,11.238,0,0,0,1.556-.049c-1.09-.025-2.083-.086-3.149-.061a8.279,8.279,0,0,0-1.1,0L297.84,24.8c-.025-.025-.074-.049-.061-.086,1.385-.11,2.757-.012,4.092-.208-1.1-.159-2.5.074-3.725-.086-.037-.061-.147.012-.147-.086,1.336-.061,2.732-.123,3.994-.184.086-.012.172.147.233,0-.025,0-.074.012-.086-.025-1.679.11-3.357-.086-5.072-.061l-.049-.061c.4-.184.943,0,1.36-.147,1.715,0,3.394-.1,4.987-.147-1.764-.208-3.578-.061-5.354-.233.625-.025,1.3-.061,1.887-.086v.025a.124.124,0,0,0,.147-.061.38.38,0,0,1,.208.061c1.237.1,2.463-.172,3.761-.11.049.012.123.11.172,0,1.286.074,2.622-.025,3.872-.037l.147-.061c-2.242-.159-4.607-.037-6.9-.11-.086-.037-.233-.037-.294-.123a25.423,25.423,0,0,1,2.573-.086c1.139-.074,2.4.025,3.492-.086-2.916-.049-6.163-.025-9.287-.037l-.086-.086.086-.061c1.152-.025,2.463-.049,3.7-.086l.086-.061,2.156-.025c1.09-.123,2.3,0,3.308-.172-.1.025-.147-.074-.233.025l-8.062-.025-.061-.061a.8.8,0,0,1,.564-.037c1.764-.221,3.761-.037,5.526-.2.27-.061.711.086.956-.1-1.973-.074-4.031.037-5.991-.086l-.061.061c-.074-.012-.172.037-.208-.061h-1.311c-.1.172-.184-.1-.257-.086,1.458-.061,2.916-.135,4.386-.147l.061.061a7.077,7.077,0,0,1,1.372-.061c-.172-.172-.368.086-.539-.086-1.581.061-3.186-.11-4.742-.061l-.147-.086c-.012-.074.074-.037.086-.086,2.034.086,3.774-.074,5.771.025l.147-.086h1.483c-1.017-.012-2.046-.11-3.026-.037L302.7,21.1c-1.078.049-2.022-.11-3.088-.037-.466-.1-1.041.086-1.458-.147.331-.184.833-.025,1.2-.025,2.23-.147,4.509-.1,6.714-.147-.147-.025-.331.049-.441-.061a27.664,27.664,0,0,1-3.345-.061c-.208.074-.429-.135-.564.061-1.617-.172-3.345-.037-5-.123-.025-.025-.074-.037-.061-.086,1.237-.147,2.573-.049,3.81-.208l.233.1c1.74-.208,3.737-.1,5.563-.208.392-.074.784.061,1.078-.037-2.316-.086-4.778.049-7.131,0-.061-.074-.208.037-.208-.086l.637-.061c.257-.11.539.1.772-.049,2.254-.074,4.411-.1,6.641-.208a4.52,4.52,0,0,0-1.078-.061c-.11,0-.233-.135-.294.025a9.79,9.79,0,0,0-1.581-.025.762.762,0,0,1-.4-.061c-2-.025-4.043.049-6-.061-.012-.037.037-.049.061-.086h.662c.711-.159,1.544.074,2.389-.086.392.233.784-.123,1.188,0v.025l.7-.049c-3.039-.086-6.285-.086-9.312-.123l-.086-.086c.5-.1,1.041-.049,1.544-.147a10.974,10.974,0,0,0-1.286-.086c-.172-.1-.515.074-.576-.147.613-.037,1.25-.061,1.862-.1a3.124,3.124,0,0,0,.956,0c2.561.086,4.766-.147,7.217-.025.025-.049-.025-.086-.049-.123-2.169.061-4.117-.208-6.261-.11l-.061-.061c-.012-.086.086-.025.11-.086,1.532-.025,2.965.049,4.46-.061-.172,0-.368-.123-.5,0-.355-.172-.809.1-1.1-.123h-1.434c-.025-.025-.074-.037-.061-.086,2.046-.11,4.007-.012,6.028-.086l-.784-.025c-.833-.11-1.7.086-2.536-.061-1.581-.074-3.5,0-5.232-.061l-.086-.086a7.483,7.483,0,0,1,1.054-.086l.049.049c1.495-.11,3.014-.049,4.46-.11l.049.061c1.115-.061,2.352-.012,3.443-.147-1.311-.074-2.585.025-3.884-.1-2.071-.049-4.215-.012-6.163-.049-.061-.074-.245.037-.208-.123a10.374,10.374,0,0,0,1.078-.086c.257,0,.588.123.772,0,.172.074.331-.025.5-.037a15.071,15.071,0,0,0,2.1-.025c1.041-.123,2.132.123,3.137-.086-1.862-.025-4.068-.086-6.077-.061l-.1-.086c.98-.172,2.23-.037,3.2-.123,1.372.049,2.843-.061,4.19-.086-2.953.037-6.249-.061-9.287-.025l-.049-.061c2.156-.2,4.509-.221,6.714-.331-1.875.025-4.019-.037-5.967-.049l-.172-.1c.98-.135,2.181-.086,3.161-.147.649-.037,1.446-.086,2.071-.11-.6-.049-1.188-.025-1.838-.037-.588-.11-1.237.11-1.789-.086l.086-.061c2.352-.037,4.423-.037,6.714-.11.845.025,1.74-.037,2.512-.061h-.392l-.049-.061c-.061.012-.123-.025-.147.037-3.565-.147-7.339-.074-11.027-.184l-.061-.061a2.057,2.057,0,0,1,.907-.049l.086-.061c1.1-.049,2.205-.025,3.259-.037,1.875-.1,4.092-.159,6.016-.172-2.72-.172-5.563-.037-8.319-.123l-.6-.086.147-.061c1.715,0,3.553-.086,5.1-.147a1.153,1.153,0,0,0-.76,0,15.451,15.451,0,0,0-2.389-.147c-.049-.012-.1-.086-.147,0-1.139-.074-2.328-.074-3.492-.11l-.11-.123c1.777-.159,3.7-.061,5.489-.086a.179.179,0,0,1,.147-.061,1.384,1.384,0,0,0,.87-.061l.821.1a18.522,18.522,0,0,1,3.075-.1.17.17,0,0,1,.037-.049l-7.866.025c-.025-.037-.074-.061-.049-.123l.686-.025c.184-.159.429.049.588-.061a34.256,34.256,0,0,0,4.019-.172c-2.512-.11-5.134-.147-7.584-.208a1.464,1.464,0,0,1-.417-.025c.061-.086.147-.086.208-.123,1.421.025,2.745-.159,4.129-.172.7-.049,1.262-.012,1.911-.061-1.728-.049-3.382-.147-5.06-.147-.27-.147-.551.037-.784-.147.6-.123,1.323-.012,1.948-.086.5-.11,1.041.086,1.483-.061.7-.012,1.728.025,2.414-.037-1.642-.049-3.308-.012-4.974-.025l-.061-.061c0-.025.012-.037.037-.061l.025.037a.165.165,0,0,0,.147-.061c1.286.037,2.585-.061,3.908-.025l.049-.061c.515.1,1.09-.074,1.519.025l2.941-.11c.147.012.282.1.4-.037-1.985-.123-3.884.012-5.881-.11l-.049.049c-1.642-.086-3.32-.049-4.95-.147v-.049a30.489,30.489,0,0,1,3.688-.123,9.2,9.2,0,0,1,1.556-.123c-.674.074-1.225-.123-1.887-.049-.649-.1-1.2,0-1.838-.037l-.086-.086c1.25-.123,2.487.012,3.725-.123a.444.444,0,0,0,.355,0l3.994-.086-1.25-.061a.389.389,0,0,1-.331,0c-.257.037-.588-.061-.809-.025a2.364,2.364,0,0,1-.576-.061l.123-.061,1.911-.025v-.061a.34.34,0,0,0-.355.037c-.1-.074-.38,0-.551-.061v.294c-2.009-.074-4.068-.11-6.089-.1l-.049-.049-.061.049a7.294,7.294,0,0,1-1.948-.11l.564-.086c4.1-.135,7.915-.221,12.02-.392-3.578.025-7.241-.037-10.807-.049-.025-.037-.086-.074-.086-.123a8.57,8.57,0,0,1,1.495-.061c.257,0,.539-.135.772,0a9.768,9.768,0,0,1,1.581-.086,8.416,8.416,0,0,0,1.1-.086c-1.838-.037-3.7-.037-5.526-.123-.012-.037.037-.061.061-.086h.931l.061-.061c3.051-.025,6.2-.061,9.128-.208-1.164.049-2.328-.086-3.431,0-.172,0-.392-.11-.527-.025h-3.872l-.122-.123a5.912,5.912,0,0,1,1.544-.049.807.807,0,0,1,.564-.037c.355-.061.711.147.98-.061-1.1-.061-2.377.012-3.492-.049-.184-.123-.6.049-.87-.1,1.017-.135,2.156-.086,3.173-.147.086.208.159-.135.233.061,1.054-.074,2-.074,3.112-.11-.784-.147-1.483.037-2.242-.147-2.071-.012-4.2-.1-6.2-.147-.1-.086-.233.086-.27-.1,1.519-.086,3.1-.049,4.57-.147,2.034-.012,4.1-.074,6.089-.049,0-.037.049-.061.086-.061-3.149-.208-6.543.025-9.655-.086l-.147-.061c-.012-.074.073-.037.086-.086,2.083-.012,4.154-.159,6.383-.061l.122-.061c1.74-.135,3.627.037,5.256-.147h-.061c-.012-.012-.037-.025-.025-.061-4.374-.135-8.6-.086-12.951-.257l-.086-.1c1.286-.184,2.781.025,4.043-.172a18.065,18.065,0,0,0-2.708-.025l-.086-.061c.11-.319.319.11.551-.037.061-.159.159.074.208-.086,2.634-.012,5.134-.074,7.707-.172V6.657c-2.646-.025-5.183-.061-7.707-.086l-.147-.123c.613-.061,1.36.012,1.887-.061a1.137,1.137,0,0,0,.637-.049c.172.123.368,0,.527.086.037-.049.086-.049.123-.086l-1.078-.061a26.514,26.514,0,0,1-3.173-.147c.833-.1,1.728-.049,2.573-.147,2.267-.049,4.595-.012,6.69-.147-1.568-.11-3.3-.037-4.9-.061-.2-.123-.527.123-.686-.086A14.464,14.464,0,0,1,299.04,5.6l-.025-.037c-1.642.037-3.21-.061-4.95-.025-.527.037-1.054-.086-1.519,0-.025-.037-.123-.037-.086-.123,1.789-.086,3.676-.245,5.489-.257a2.118,2.118,0,0,0,.76-.1C297.1,4.979,295.352,5,293.7,5.04l-.147-.061c-.1-.025-.343.049-.417-.061,1.237-.147,2.377-.061,3.614-.11.135-.074.368,0,.466-.061,2.254.061,4.717-.1,6.984-.086l.208-.086c-1.434-.012-2.867-.11-4.3-.037l-.172-.086-.061.086c-.453.037-.956-.2-1.311-.025-.159.086-.319-.086-.478,0a4.436,4.436,0,0,0-1.336,0c-1-.11-2.034-.037-3.112-.061l-.172-.123c.5-.147,1.054.061,1.544-.049a1.32,1.32,0,0,1,.441.025c1.924-.245,3.884-.012,5.8-.208-.576-.049-1.286-.025-1.862-.025l-.086-.061c-2.34.012-4.656-.123-6.959-.123-.025-.037-.086-.061-.086-.11.588-.025,1.2-.086,1.764-.061.147.049.233-.037.331-.061,1.1-.025,2.267.049,3.308-.061-.221-.012-.49.049-.662-.049a10.741,10.741,0,0,0-1.25.025l-.086-.061H292.8c-.037-.061-.159.012-.147-.086,2.132-.049,4.117-.147,6.285-.233-1.593-.123-3.222-.123-4.864-.123-.551-.2-1.2.025-1.74-.11-.025-.037-.073-.049-.061-.1,2.169-.074,4.129-.147,6.322-.11l.294-.086h-.221c-.086-.135-.368.049-.441-.123.833-.049,1.556-.086,2.389-.147-2.279-.049-4.7-.012-6.947-.147-.1,0-.2.135-.27,0,.515-.184,1.1-.012,1.581-.147-.294-.025-.588-.061-.87-.086a6.211,6.211,0,0,1,1.85-.061l.208-.061c1.666-.061,3.48.012,5.232-.061-3.075-.1-6.1-.025-9.312-.172l-.086-.061a.385.385,0,0,1,.294-.086,3.537,3.537,0,0,0-1.078-.086l-.061-.061.061-.061c2.941-.025,6.028.049,8.846-.061l-.7-.049V1.156c-.172.1-.319-.037-.466-.086.172-.061.294.012.466-.061l-.025-.025c-.331.135-.662-.135-1.017,0a1.741,1.741,0,0,0-.441-.037c-.368-.074-.858.11-1.225-.11a2.847,2.847,0,0,1,1.164.025c.172-.11.392-.012.6-.086A19.3,19.3,0,0,0,301.2.715h-1.25l-.123-.061C297.2.6,294.372.543,291.738.482c-.025-.037-.074-.061-.061-.123.931-.049,1.838,0,2.745-.049l.061-.061c1.041-.012,2.193.025,3.308-.037,1.409-.049,2.818,0,4.043-.086-.38,0-.8-.025-1.188-.061L300.67.1l-.38.025c-.184.049-.38-.221-.5,0-.135-.025-.306.049-.417-.061L294.336.041,294.274.1c-.257-.147-.576.025-.833-.037-.025-.025-.073-.037-.061-.086.551.049.943-.086,1.483-.025.4-.208.784.159,1.2-.086,1.311.012,2.573-.025,3.786-.1h-.086c-3.81-.184-7.8.025-11.676-.172h-1.666l-.012.049a.251.251,0,0,0-.208.061c.049.025.049.086.086.123a3.161,3.161,0,0,1,1.519,2.708c.294.858.466,1.777.747,2.647.123.515.233,1.017.355,1.519.1.319.441.711.123,1.017-.1.025-.147-.037-.208-.061-.172-.135-.061-.392-.037-.551-.184-.11-.478-.037-.662-.061-.037.147-.282.172-.147.355.208.086.588-.1.613.257l-.613.208c.012.233.294.245.417.417a.431.431,0,0,1-.037.4c-.331.527.11,1,.355,1.434,0,.429-.257.968,0,1.4a.488.488,0,0,1,.27.061l-.27.294a1.712,1.712,0,0,1-.5-.061c-.2.208.11.38.245.5.331.27.453-.27.625-.417.184,0,.135-.208.27-.294a.165.165,0,0,1,.147.061l.061.894c.208.294.074.8.11,1.078l-.049.086c.184.282.588.294.87.441a1.174,1.174,0,0,0-.147.441,2.379,2.379,0,0,0,.343.588l-.4.5c-.159.294.147.478.172.723.233,0,.368.208.564.27.2.355-.037.76.208,1.1.564.306.257,1.066.38,1.605.086.355.515.4.784.564.012.294-.417.159-.441.4-.037.123.11.184.172.233a1.528,1.528,0,0,0,.061.784c.306,0,.5.27.747.355-.1.27.233.539-.147.637.049.123.257.11.355.233.159.809.392,1.556.588,2.389.037.233-.233.11-.355.147a.465.465,0,0,0,.086.319l.037-.025a.414.414,0,0,0,.233.11c.429.2.282.662.441.992.074.257.1.564.147.784-.11.086-.2.233-.319.257-.38-.147,0-.478-.123-.625a3.13,3.13,0,0,0-.931-.331c-.135-.074-.355.037-.466-.086-.38.576.625.417.747.809-.074.135-.208-.025-.294.037l-.025.527c-.037.172.233.4-.037.5a.651.651,0,0,0,.208.6.352.352,0,0,1-.11.5c-.074.123.012.257.11.355.2-.074.551.159.7-.1a1.467,1.467,0,0,1,.208-1.336c.061-.147-.11-.221-.147-.355.294-.11.27-.49.551-.5a3.523,3.523,0,0,0,.5,1.348c.086.282.294.5.355.784.172.992,1.274,1.237,1.973,1.715.233.159.564.343.466.7.319.319-.074.625-.025.98a1.768,1.768,0,0,1-1.286.674,4.33,4.33,0,0,0-.809.2c2.12.1,4.521-.037,6.481,0,.1.025.306-.037.392.037,2.953-.1,6.2-.074,9.214-.037l.123-.049A28.322,28.322,0,0,0,307.311,33.674Zm-6.653-10.6.319.037-.319.025ZM295.9,14.781v.061h-.233A.436.436,0,0,1,295.9,14.781Zm-.98-3.284c-.037.049-.1.025-.147.025A.265.265,0,0,1,294.924,11.5Z" transform="translate(-250.871)"/><path d="M438.772,116.7H438.6C438.661,116.737,438.723,116.81,438.772,116.7Z" transform="translate(-384.598 -102.752)"/><path d="M438,116.634h.074A.078.078,0,0,0,438,116.634Z" transform="translate(-384.072 -102.687)"/><path d="M475.7,267h0c.184.012.368.012.564.025Z" transform="translate(-417.152 -234.637)"/><path d="M428.1,69.9h0C428.186,69.912,428.149,69.9,428.1,69.9Z" transform="translate(-375.385 -61.687)"/><path d="M80.7,79.8h.368A1.232,1.232,0,0,0,80.7,79.8Z" transform="translate(-70.549 -70.36)"/><path d="M57.11,129.3H57C57.037,129.349,57.074,129.325,57.11,129.3Z" transform="translate(-49.753 -113.809)"/><path d="M57.9,129.037c.11,0,.233-.012.343-.012-.1-.012-.2-.012-.282-.025A.067.067,0,0,0,57.9,129.037Z" transform="translate(-50.543 -113.545)"/><path d="M8.583,34c.2-.135.368.135.527,0,2.585.123,5.367-.012,7.952.11l.049.061c.245,0,.564-.135.821,0,.074-.172.257.012.4,0l3.676.037.086-.061-.147-.037c-1.029-.257-2.242.037-3.235-.147A1.44,1.44,0,0,1,18.25,34c-.417.135-.343-.343-.564-.5-.123-.1-.2.086-.319.061a7.263,7.263,0,0,0-.723.086,6.324,6.324,0,0,0-.956.208c-.4.282-.956-.012-1.372-.086a1.151,1.151,0,0,1-.784-.7c-.049-.49-.331-1.152.233-1.483a12.786,12.786,0,0,0,1.777-1.017c.355-.172.355-.576.662-.784.159-.453.723-.5.845-.956a1.666,1.666,0,0,1,.172-.331V28.2a.724.724,0,0,1,.564-.257,6.184,6.184,0,0,0,.772-1.164c.27-.086-.037-.294.147-.417a.328.328,0,0,0-.172-.466c.012-.392-.368-.539-.355-.907.11-.184.319-.11.478-.172V24.4c-.012-.245.257-.208.441-.208l.172-.343c.49-.956.257-2.144.466-3.2.123-.478.478-.907.355-1.409.025-.564.8-.87.478-1.507.221-.392.7.012,1.017-.245.257-.086.11-.38.233-.551-.012-.208-.11-.576.086-.662l.147-1.777c.282-.355.172-.87.319-1.274a.588.588,0,0,0,.355-.613c-.012-.208-.184-.184-.294-.355-.1-.221.11-.4.061-.625.2-.319.159-.723.38-1.017a8.629,8.629,0,0,1,1.078-2.83c.208-.11.38.049.527.147a4.435,4.435,0,0,1,.478,1.458,18.263,18.263,0,0,1,.662,2.99,9.222,9.222,0,0,1-.184,1.63c-.221.147-.037.441-.294.564-.172.037-.368-.061-.588-.025a.965.965,0,0,0-.319.38c-.184.331.147.6.27.87-.037.11-.159.012-.208.086a1.123,1.123,0,0,1,0,.931c.282.208.1.5.025.747-.221.159-.012.478-.208.637a39.766,39.766,0,0,1-1.127,3.847l.061.061a20.6,20.6,0,0,0-.637,1.973c-.025.294-.184.551-.208.833-.429,1.286-.8,2.585-1.139,3.908-.061.208-.27.184-.441.147-.2.1-.159.306-.2.466.343-.012.588.282.956.147.086.257.368.5.4.784a1.416,1.416,0,0,0,.821.478c.11.086.282.074.343.2a2.506,2.506,0,0,1,1.458.87c.331.466.037,1-.2,1.409-.417.772-1.3.392-1.862.772l.061.1c2.745.1,5.33-.184,8,0l.233-.147a.31.31,0,0,0-.123-.208,1.63,1.63,0,0,1-.772-.233,1.241,1.241,0,0,1-.478.11c-.257-.061-.282-.331-.5-.466.086-.245-.135-.441-.147-.662.135-.453.27-1.054.821-1.164.4-.123.8-.466,1.213-.613.613-.319.5-1.017,1.017-1.421l-.172-.147a.616.616,0,0,1,.294-.441c-.086-.11.049-.319-.123-.392-.5-.086-.551-.662-.747-1.041.319-.2-.012-.527.025-.7-.2-.306.257-.453.331-.686a.057.057,0,0,1-.061-.037A.271.271,0,0,1,31.3,25.6c.123,0,.184.159.294.2a.354.354,0,0,0,.331-.025c.147-.1.331-.282.257-.466-.061-.11-.11-.282-.257-.294a1.5,1.5,0,0,1-.564-.613c-.2-.061-.38.11-.564.184-.27.2-.355-.11-.441-.294a6.037,6.037,0,0,1-.662.233c-.662.49-1.532.049-2.328.147-.294.1-.564-.135-.747-.331-.135-.074-.331.037-.441-.086-.086-.159.025-.368.11-.527-.074-.11-.245-.172-.233-.319a.519.519,0,0,0-.466-.123c-.343-.061-.527.2-.7.417-.025.2-.1.38.061.551.1.135-.037.27-.147.331-.282.123-.5-.1-.723-.184-.2-.392,0-.833,0-1.25.172-.147.135-.429.355-.527a3.394,3.394,0,0,1,.662-1.1,16.659,16.659,0,0,0,4.019-.245c.147-.1.11-.27.123-.441.086-.037.172-.159.257-.11.172.184.368-.135.5.061l.233-.208c.245-.049.417.074.613.11.025-.049-.037-.074-.061-.11-.061-.257.27-.221.38-.38-.061-.331.282-.49.331-.76-.208-.184.037-.564-.208-.723a.955.955,0,0,0-.784.184c-.123.429-.821.49-.564,1.041a.577.577,0,0,1-.4.172c-.086.074-.074.221-.208.208a10.534,10.534,0,0,1-.441-1.372c-.1-.6-.319-1.164-.441-1.764l.123-.147a1.215,1.215,0,0,0-.208-.6l-.037-1.225c.074-.086.208-.27.037-.331-.38,0-.282-.417-.294-.662-.037-.245-.343-.11-.441-.319,0-.086-.025-.184.025-.233-.147-.5-.074-1.066-.172-1.581a10.684,10.684,0,0,1,.172-1.188l-.172-.061a.505.505,0,0,1-.294-.5c.061-.282.392-.172.551-.319,0-.1.025-.2-.025-.27-.27-.037-.625-.012-.7-.319l.208-.123c.123-.306-.306-.208-.319-.5-.012-.086-.123-.184,0-.257.074-.025.147-.147.233-.061V7.9a.773.773,0,0,0-.7-.208.841.841,0,0,1-.11-.7,1.214,1.214,0,0,1-.5-.551.446.446,0,0,1,.061-.417,1.548,1.548,0,0,0-.27-.98c.061-.184-.257-.27-.147-.5.061-.086.147-.1.208-.147-.245-.319-.588-.625-.5-1.054-.025-.466.392-.882.723-1.164.27.1.38-.294.637-.11.012.257-.147.49-.086.723.147.147.392.074.551.172l.331-.294a4.221,4.221,0,0,1,1.666.123c.27-.38.417.233.723.11a1,1,0,0,0,.319-.6c-.1-.159-.343-.049-.417-.208l.1-.086c-.355-.76.662-.208.894-.576C31.948.866,33.394.486,34.656-.176L32.769-.2C28.15,0,23.2-.176,18.7.008c-.147,0-.306-.135-.441,0H15.468L16.51.033c1.336.1,2.5.049,3.823.147.184.049.429-.025.588.086-.147.221-.27-.061-.478.037-.233.061-.564-.012-.87.049L19.524.3l-.037.025A4.635,4.635,0,0,1,18.47.266V.3c-1.115.074-2.352-.037-3.516.086,2.61.11,5.134.135,7.854.208.025.037.086.061.086.11-2.34.061-4.57.123-6.812.184a1.484,1.484,0,0,1-.772-.037A9.085,9.085,0,0,1,14.17.939L14.255,1c1.176-.037,2.156.012,3.32.086.221.012.478-.147.662.037a3.569,3.569,0,0,1-.956.025c-.27.233-.564-.061-.845.037-.086.074-.282-.037-.319.086H16.2c.037.012.025.061.025.086-.233.012-.368.11-.6.061-.172.208-.38-.159-.5.086l4.484.025a.431.431,0,0,1,.4.037c.931,0,1.936-.025,2.769.025-.037.221-.343.037-.466.184.331.061.6-.012.931.049-3.026.257-6.334.11-9.312.245l.4.049c1.666-.074,3.565.025,5.293.037a1.176,1.176,0,0,1,.7.11c-.159-.049-.368.049-.515.074a8.035,8.035,0,0,0,1.115.049c.025.025.074.049.061.086-1.911.11-3.847.159-5.8.184.294.086.956-.086,1.286.147a1.347,1.347,0,0,0-.355.11c.956.086,1.764.086,2.708.123l.1-.061c.907.184,1.948.012,2.879.147l.123.086c-.233.11-.49-.1-.7.061l-5.232.123a20.062,20.062,0,0,0,2.965.11c.355.2.76,0,1.164.086l.061.061a5.968,5.968,0,0,1,1.483.061v.025c-1.752.074-3.443-.025-5.121.1.76.012,1.556.074,2.291.049.086.1.221-.049.27.061a17.084,17.084,0,0,1,2.622.123l-.784.025L20.9,4.15c-2.438.086-4.631.086-7.094.123.012.012.037.025.025.049a.343.343,0,0,0,.294-.025c.123.208.355-.025.478.086.809.037,1.532.074,2.328.061,1.237.025,2.463.061,3.81.086l.061.061-.037.025c-.049.025-.1.1-.147,0-.294.135-.527,0-.809.061-.331-.049-.613.11-.956-.025a3.558,3.558,0,0,1-1.311.061c-2.205.061-4.607-.012-6.665.049V4.8c3.688.208,7.241.184,10.954.355V5.24c-2.1.025-4.3.061-6.3.086a9.26,9.26,0,0,0,1.139.086c1.446.074,2.965.1,4.423.208.074.037.2.037.233.123-1.74.11-3.565.037-5.293.049.086.061.221.025.331.037.147.061.478-.012.466.172-.257.049-.478-.086-.7.037-1.286-.135-2.818.11-3.933.025,1.115.086,2.218.086,3.382.123.417.147.8-.184,1.164.086.135-.159.331.049.441-.061.11.049.294-.11.4.025,1.127.037,2.071.074,3.3.061l.086.061a12.209,12.209,0,0,1-2.242.123c-.282-.1-.49.172-.723,0-.429.061-.992.086-1.311.11,1.237.037,2.659.061,3.933.086l.061.061-.123.061c-2.426.074-5.195-.025-7.645.086a8.3,8.3,0,0,0-1.458.061c1.63.025,3.541.086,5.318.061l.061.061a23.381,23.381,0,0,1,2.6.086l.049-.061a9.976,9.976,0,0,0,1.924.061l.061.061c-.037.074-.11.037-.147.086-1.164.025-2.536-.049-3.7.061a.3.3,0,0,1,.233.049,16.047,16.047,0,0,1,2.414.061,1.267,1.267,0,0,1,.564.086l-.086.061c-3.48.086-7.155.2-10.66.233-.1,0-.221-.135-.294.037a.415.415,0,0,0-.38,0c1.078.049,2.156.135,3.259.147l.061-.061c2.3.208,4.852.061,7.07.233v.086c-2.181.037-4.864.061-7.07.1-.123.123-.343-.11-.441.049-.061-.159-.184.074-.245-.086a8.415,8.415,0,0,1-.956.037v.025c1.777.086,3.59.086,5.379.123l.086.049c1.311.025,2.647-.049,3.908.061l.086.086-.061.061a2.37,2.37,0,0,0-.772.037c-2.426-.012-4.631.123-7.045.2.135.11.368.037.5.061v.037a1.063,1.063,0,0,0,.343-.061c1.813.049,3.81.135,5.563.147l.086.086a2.454,2.454,0,0,1-.784.061,12.051,12.051,0,0,1-1.63,0c-.7.208-1.446-.159-2.1.086.208.1.392-.061.637.025.2.061.515-.123.723.061l.061-.061a.422.422,0,0,1,.147.147c-1.74.025-3.59.086-5.195.061a.512.512,0,0,1-.123.049l.992.012a4.485,4.485,0,0,0,.784.061c2.022.061,4.19.11,6.3.172l.2.061c.025.049-.037.061-.049.086-1.74-.025-3.345.037-5.072.061a8.2,8.2,0,0,0,1.1.061c.123.012.306.061.38,0,.1-.025.159.037.245.061,1.041-.061,2.169.074,3.247.11l.061.061a.919.919,0,0,1-.6.025c-1.789.184-3.725.025-5.465.037-.76.1-1.458-.049-2.3.086l-.086-.061-.772-.074c2.536.184,5.011.233,7.584.294.894.2,1.862-.037,2.745.2-2.438.061-5.06.123-7.535.184a8.041,8.041,0,0,1,1.1.086l-.049.086c-.159-.135-.282.159-.417-.025-.858.1-1.617.049-2.414.147l1.85.086c.257.074.466-.159.674,0l5,.061.061.061c.012.11-.11.012-.147.086l-3.9.025.025.037c.294.061.564-.012.809.049,1.237.086,2.512.086,3.761.123.086.037.221.037.257.123-1.96.135-3.994.086-5.991.147-1.225.11-2.745-.1-4.092.049,1.017.11,1.813.037,2.855.061l.061.061c1.764.025,3.614.061,5.318.086l.061.061-.061.061-4.19.061a7.6,7.6,0,0,0,.907.025v.025c.2-.037.343.074.551.037.184.025.38-.086.5,0,1.054-.012,2.1.012,3.112.086l.061-.061c.074-.025.11.037.172.061l-.27.086c-1.47.074-2.977.1-4.411.208,1.495.172,3.112.159,4.68.233l.086.086c.012.037-.012.049-.025.061-2.4.147-4.778.086-7.106.208,1.152.159,2.4.1,3.553.233.38.147.845-.172,1.139.147-.613,0-1.421-.025-2.156.037l-.061-.061c-1-.025-1.973.037-2.965.061,2.585.147,5.305.049,7.743.2v.037c-2.193.233-4.582.135-6.727.319,1.458.012,2.879.208,4.313.184.1.074.27-.037.343.086l-.294.061H9.428l-.637.049c1.47.037,2.83.086,4.276.147l.061.061c1.544.012,2.977.1,4.509.086l.172.1-.061.049c-3.369.086-6.739.074-10.047.172.98.074,2.156.025,3.186.159l.061-.061c1.507.025,3.063.2,4.533.086.049.037.135.037.147.123-.992.11-1.96.012-2.965.086-.184,0-.417-.135-.551,0l1.458.061.049.061.061-.061c1.1.135,2.181.1,3.32.147.025.037.086.061.086.11-.025.061-.086.025-.123.037-1.789-.086-3.663.147-5.379.025.025.049.086.025.123.037.576.11,1.372,0,1.948.11a22.508,22.508,0,0,1,3.406.208L17,16.892H11.989c-.343-.049-.6.11-.931-.037-.4.074-.821,0-1.164.061.294.086.576-.086.809.086h2.806c.074.025.208.1.257,0,.674.012,1.323.1,1.985.147-.76.123-1.679.025-2.389.1-.87-.025-1.74.037-2.561.049l.98.061c1.679.025,3.492.049,5.183.208l-.025.025c-2.561.135-5.158,0-7.682.123a10.671,10.671,0,0,0-1.654.061c1.752.233,3.6.025,5.4.172l.086-.061c.809.135,1.715,0,2.561.123,0,.025.012.074-.025.086l-.061-.061a12.463,12.463,0,0,1-1.764.1l-.037.025c-.2-.11-.49.061-.686-.025a10.591,10.591,0,0,1-1.973,0c-.6.11-1.385.012-2.009.086,1.4.11,2.72.037,4.19.061l.086.086c-.184.135-.453-.049-.662.061-.588.037-1.286.037-1.74.11,1.213.11,2.438.037,3.663.061.025.037.123.037.086.123-1.715.086-3.859.049-5.636.147,1.495.135,3.173.086,4.7.147,1.4.049,2.818,0,4.166.147l-.061.049-.037-.025-.049.061a9.511,9.511,0,0,0-1.581.11l1.519.1c.025.025.074.037.061.086-1.336.11-2.855.012-4.19.086-1.556.061-3.026-.123-4.509.061.466.1.943-.074,1.372.025.037.123.11.012.172,0,.27.2.564-.135.784.061h2.156c.025.037.086.061.086.123-.613.012-1.237-.037-1.862.025-.282.074-.576-.074-.784.061-.025,0-.037-.012-.049-.037L10.923,20c-.159-.086-.331-.012-.478-.025A1.47,1.47,0,0,0,9.979,20c-.306-.147-.6.049-.956-.061-.11.135-.27.025-.38-.025-.123.025-.2-.061-.245.086H4.98c1.728.172,3.725.159,5.526.233l.086.037c.061-.012.245.037.294-.037a9.058,9.058,0,0,0,1.544.123v.086c-.172.086-.392-.037-.441.037-.147-.1-.392.037-.564,0a1.481,1.481,0,0,1-.747-.061c-1.764.074-3.32-.025-5.1-.037.086.123.245.025.355.1,2.965,0,5.955.331,9.018.294a.112.112,0,0,1,.086.147c-1.519.061-3.186-.012-4.595.049-.625.074-1.495-.025-2.071.1-.147-.074-.5,0-.723-.061L7.6,21.07l.49.049c.135,0,.294-.074.392,0,.074.025.11-.037.172-.049a35.427,35.427,0,0,0,3.614.086,20.068,20.068,0,0,0,2.328.061c.086.012.221-.012.257.086-1.581.025-2.9.184-4.509.086-.76.123-1.483-.012-2.181.123.319.025.7.049,1.054.086,1.421,0,3.063-.025,4.472.025l.061.061a24.646,24.646,0,0,1-3.578.123,2.507,2.507,0,0,1-.956,0c-.123.123-.38-.012-.478.11l.7-.025c1.483.172,3.014.037,4.509.11.025.037.086.074.086.123-2.291.037-4.668.037-6.984.123.845.074,1.875.074,2.769.11a23.381,23.381,0,0,1,3.137.208l-.086.061c-1.789-.012-3.431.025-5.183-.037a12.968,12.968,0,0,0-2.3.037c.147.074.294-.025.441-.037a26.615,26.615,0,0,0,3.32.147c.172.184.417-.11.6.061,1.446.11,2.843.159,4.276.184.025.037.086.061.061.11-2.61.135-5.391,0-8.087,0l-.368.037a.347.347,0,0,1,.159.049l3.872.037c.257.135.551,0,.809,0,.233.074.564-.049.76.11-.086.074-.245-.025-.294.1-2.205-.012-4.57-.012-6.543.11,1.311.147,2.794.074,4.154.184l.061-.061c1.581.135,3.284.1,4.95.147.012.037-.037.061-.061.086-1.323.123-2.72-.012-4.068.123a1.974,1.974,0,0,0-.76,0l.061.049c1.225.037,2.291.061,3.553.1.527.184,1.176,0,1.728.147.257.147.5-.184.723.049-.551.037-1.152.061-1.728.1-.943.061-1.973-.012-2.892.049a3.927,3.927,0,0,0,1.078.037,23.949,23.949,0,0,0,2.475.147v.061c-.172,0-.331.11-.5.025l-.049.061c-1.237.049-2.61-.11-3.884.025,1.409.123,2.892.11,4.276.147l.061.061c-.11.233-.49.049-.7.147l-.049-.061c-1.409.159-2.977-.074-4.252.086,1.041.086,2.414.086,3.614.123.025.037.086.061.086.123a1.076,1.076,0,0,1-.662-.037c-.968.123-2.1.012-3.112.086-1.826.012-3.6-.012-5.379.061L3,25.53v.061c3.308.147,7.008.184,10.451.417-.074.1-.27.037-.38.11-3.075.086-6.347-.049-9.287.123.392.1.772-.086,1.1.147l-.172.061a25.443,25.443,0,0,0,4.019.208l.061.049c.086-.123.233.012.294,0,1.225-.061,2.414.135,3.663.061.037.049.11.086.123.147l-.319.037c-1.777.184-3.627-.037-5.379.2-.257-.086-.6.074-.845-.025-.76.025-1.556.086-2.3.061l-.049.061-.833.025a.125.125,0,0,1,.1.061l7.535.061a3.056,3.056,0,0,1,.956.049,13.065,13.065,0,0,1-3.014.147c-2.058.147-4.2.074-6.3.184.515.074,1.054.074,1.581.11.245-.049.515.11.7-.025a.149.149,0,0,1,.147.061c2.23-.012,4.215.147,6.567.172l.147.086c-2.5.11-5.109.037-7.584.061l.2.061c2.4.147,5.146.074,7.621.172l.147.1-.061.049-3.958.1c-.588.061-1.225-.012-1.728.049l1.139.1c1.581.049,3.124.135,4.717.147l.147.049c.172.123.392-.11.5.1l-.417.025c-2.156.061-4.019-.012-6.114.061a7.034,7.034,0,0,0-1.017,0c-.772.037-1.593.037-2.475,0L2.53,29.3c.784.061,1.63-.012,2.414.049L5,29.414a.65.65,0,0,1,.5.037c.135-.159.343.049.466-.061A34.383,34.383,0,0,0,9.7,29.5c.551.1,1.188-.074,1.666.147-2.316.221-4.68-.074-6.923.147,2.12.025,4.325.074,6.518.184-1.188.037-2.365.147-3.492.233.11.037.319-.037.4.025l.037-.025a.159.159,0,0,1,.2.123c-.012.049-.074.012-.11.025a2.22,2.22,0,0,0-.637,0l-.086-.086c-.074,0-.147.172-.208.025-1,.123-2,.012-3.026.086.11.172.4.037.613.123,0,.025,0,.074-.037.086-.221-.11-.4.049-.613.074,1.8.123,3.9.208,5.759.257.037.037.086.061.061.11-1.666.11-3.492-.1-5.207.061-.049-.025-.1-.1-.147,0a1.425,1.425,0,0,0-.723.025c.968-.012,1.973.037,2.867.061.711.159,1.568-.074,2.328.086l.049.061c-1.176-.061-2.548.135-3.749.037-.747-.049-1.213.086-1.973,0a1.294,1.294,0,0,1-.613,0v.11c2.034-.1,4.239.172,6.261.123.294.025.711-.074.992.086l-.086.086c-1.3.123-2.61.012-3.884.086-.453-.037-.919.221-1.311,0-.184.159-.478.086-.686.061l-.061.061L2.15,32c.625.123,1.164.025,1.777.1.6-.135,1.262.11,1.887.025l.355-.086a16.744,16.744,0,0,0,2.475.061c.025.037.074.061.049.11a20.1,20.1,0,0,0-2.328.123,12.392,12.392,0,0,1,2.242.147c-.282.184-.686,0-1.017.061-1.8.1-3.823.037-5.465.147,1.483.1,3.112.025,4.509.172L6.7,32.8a11.938,11.938,0,0,0,1.764.037c.037.037.086.061.061.11-.123.135-.306,0-.417,0a33.025,33.025,0,0,1-3.492.123c-.417.025-.845.074-1.25.061v.049l4.925.184c.147.184.306-.147.441.086-.576.123-1.262.012-1.862.086-1,0-1.85.074-2.879.086,1.25.061,2.5.147,3.786.147l.147.061c-.172.2-.4,0-.613.061-2.12.123-4.374.123-6.481.123-.11.135-.5.061-.527.086.074.074.257-.037.294.086C3.228,33.874,6.01,34.058,8.583,34Zm14.249-6.751h.931a2.39,2.39,0,0,1-.931.025Zm5.881,1.679-5.1-.025C25.319,28.814,27.084,28.924,28.713,28.924Zm-4.57-.368.037-.025,2.475.025-.1.061C25.785,28.642,24.927,28.581,24.143,28.556Zm-.11-.613h5.06C27.488,27.98,25.711,27.98,24.033,27.944Zm-.11-.674v-.025h.233v.025Zm.515,0,.037-.025.172.025Zm.331,0q.386-.018.772,0h.441l.061-.049c.5.061,1.054-.012,1.544.049a14.076,14.076,0,0,1-2.034,0Zm0-.588-1.495-.025c.637-.159,1.323.049,1.973-.061.245.147.5-.025.76.037.809,0,1.581-.025,2.438.025C27.292,26.706,26.03,26.682,24.768,26.682ZM22.7,27.907l1.225.037c-.049.086-.086.012-.147,0H22.636Zm-.38.674a10.424,10.424,0,0,1,1.63-.025A6.6,6.6,0,0,1,22.317,28.581Zm.956,1.262c1.47-.049,2.843-.049,4.337,0C26.2,29.916,24.67,29.794,23.273,29.843Zm.76.576c1.323-.086,2.732.012,4.092.025C26.814,30.48,25.381,30.382,24.033,30.419Zm1.715.257c-.025.037-.086.037-.159.025a.59.59,0,0,1-.355.012c.074-.074.233-.025.355-.012A.717.717,0,0,1,25.748,30.676ZM25.2,33.151l.025-.061c.711.074,1.495-.025,2.181.1Zm2.267-2.45a7.431,7.431,0,0,1-1.483-.025l1.483.025c.172,0,.331,0,.5.012Zm-2.708-1.323c-.184,0-.368.012-.551.012.184,0,.368,0,.551-.012,1.7-.049,3.369.049,5.109.012C28.15,29.549,26.471,29.353,24.756,29.377Zm5.269-.8a25.324,25.324,0,0,1-2.561-.025C28.321,28.568,29.191,28.532,30.024,28.581Zm-.551-1.311.037.037-.478-.037Zm-.551-1.8c-1.911.086-3.786-.074-5.734.025l.172-.061Zm-3.835-8.344c.5-.025,1.029.037,1.544.061a9.677,9.677,0,0,1-1.568-.037Zm.515,2.1h-.527A.962.962,0,0,1,25.6,19.22Zm2.365,1.311a3.959,3.959,0,0,1-1.262-.037c-.723.184-1.47-.1-2.181.061H24.5l.061-.061,1.127-.025.061-.061c.76-.025,1.483.037,2.218.061Zm-.27-1.348H25.748l.845-.061Zm-.453-2.328H25.405l.441-.025Zm-.992-2.794a1.854,1.854,0,0,1,.637,0H26.25a.4.4,0,0,1-.172,0Zm.257,2.438H25.2A9.361,9.361,0,0,1,26.508,16.5ZM29.215,1.993c.074.147.245.049.319.208-.147-.012-.245.123-.4.11A.389.389,0,0,1,29.215,1.993ZM20.982.3V.241h.233ZM17,5.914c-.086.037-.147-.074-.184-.086H17Zm3.345,5.036c.037-.012.061.037.086.061h-.086ZM13.667,23.729h-.086v-.061h.086ZM4.686,30.321H4.8l.037.037Z" transform="translate(0 -0.175)"/><path d="M158.735,20.212c-.049,0-.086-.012-.135-.012A.169.169,0,0,0,158.735,20.212Z" transform="translate(-138.905 -18.076)"/><path d="M42.5,189.125l.172-.025A.723.723,0,0,0,42.5,189.125Z" transform="translate(-37.03 -166.282)"/><path d="M23.1,222.6h0Z" transform="translate(-20.007 -195.677)"/><path d="M29.247,249.912c-.049,0-.1-.012-.147-.012A.7.7,0,0,0,29.247,249.912Z" transform="translate(-25.271 -219.632)"/><path d="M84.055,80H83.7A1.151,1.151,0,0,0,84.055,80Z" transform="translate(-73.182 -70.549)"/><path d="M121.947,1.261V1.2H121.8A.133.133,0,0,0,121.947,1.261Z" transform="translate(-106.613 -1.404)"/><path d="M106.084,4.3c-.061.012-.159,0-.184.037A.312.312,0,0,0,106.084,4.3Z" transform="translate(-92.662 -4.124)"/><path d="M107.4,4.125a.093.093,0,0,0,.049-.025A.064.064,0,0,0,107.4,4.125Z" transform="translate(-93.978 -3.949)"/><path d="M115.957,4.337V4.3H115.7v.061A.485.485,0,0,1,115.957,4.337Z" transform="translate(-101.261 -4.124)"/><path d="M416.708,4.581c-.049-.049-.135-.025-.208-.025C416.561,4.605,416.659,4.7,416.708,4.581Z" transform="translate(-365.206 -4.344)"/><path d="M419.094,4.8H418.8A.183.183,0,0,0,419.094,4.8Z" transform="translate(-367.224 -4.563)"/><path d="M106.2,17.937h.11C106.286,17.888,106.212,17.888,106.2,17.937Z" transform="translate(-92.925 -16.058)"/><path d="M111.6,22.161h.257c-.074-.037-.159,0-.233-.061Z" transform="translate(-97.663 -19.743)"/><path d="M115.923,22.449c-.208-.11-.49-.037-.723-.061v.025h.147A.841.841,0,0,0,115.923,22.449Z" transform="translate(-100.822 -19.994)"/><path d="M407.2,23.3Z" transform="translate(-357.032 -20.796)"/><path d="M407.386,23.1a.177.177,0,0,1-.086.025l.025.037Z" transform="translate(-357.133 -20.621)"/><path d="M382.1,32.625l-.135-.025-.061.025Z" transform="translate(-334.845 -28.957)"/><path d="M385.494,32.625,385.2,32.6v.025Z" transform="translate(-337.741 -28.957)"/><path d="M411.3,36.66h.086C411.361,36.6,411.337,36.635,411.3,36.66Z" transform="translate(-360.643 -32.49)"/><path d="M410.861,36.9H410.8C410.824,36.912,410.849,36.9,410.861,36.9Z" transform="translate(-360.204 -32.73)"/><path d="M80.737,40.2H80.7C80.712,40.212,80.725,40.2,80.737,40.2Z" transform="translate(-70.549 -35.626)"/><path d="M81.312,39.9a.012.012,0,0,1-.012.012c.012,0,.025,0,.012-.012Z" transform="translate(-71.076 -35.362)"/><path d="M81.574,39.972c-.025-.037-.049-.037-.074-.025l.049.049Z" transform="translate(-71.251 -35.398)"/><path d="M81.137,40c-.012.012-.025.012-.037.025C81.112,40.025,81.125,40.012,81.137,40Z" transform="translate(-70.9 -35.45)"/><path d="M125.419,48.025,125.1,48v.061C125.2,48,125.333,48.11,125.419,48.025Z" transform="translate(-109.509 -42.47)"/><path d="M90,57.3h0Z" transform="translate(-78.71 -50.63)"/><path d="M89.649,57.3H89.6l.024.025Z" transform="translate(-78.359 -50.63)"/><path d="M89.3,57.037h.037L89.3,57Z" transform="translate(-78.095 -50.367)"/><path d="M418,57.586c.2-.025.429.049.576-.061l-.527-.025Z" transform="translate(-366.522 -50.806)"/><path d="M424.51,57.761l.061-.061a1.3,1.3,0,0,0-.172.037C424.437,57.737,424.486,57.712,424.51,57.761Z" transform="translate(-372.138 -50.981)"/><path d="M371.517,60.837a.609.609,0,0,0-.417,0Z" transform="translate(-325.368 -53.702)"/><path d="M73,64.961l-.11-.061C72.88,64.974,72.978,65,73,64.961Z" transform="translate(-63.697 -57.299)"/><path d="M445.586,65.437,445.5,65.4l.037.061C445.537,65.4,445.684,65.5,445.586,65.437Z" transform="translate(-390.653 -57.738)"/><path d="M416.423,74.9l-.123.061h.086C416.4,74.937,416.423,74.924,416.423,74.9Z" transform="translate(-365.03 -66.074)"/><path d="M108.6,83.483v.049h.172C108.7,83.507,108.661,83.47,108.6,83.483Z" transform="translate(-95.031 -73.603)"/><path d="M396.6,83.9V84h.086c.012-.025.037-.037.025-.061C396.674,83.925,396.625,83.961,396.6,83.9Z" transform="translate(-347.744 -73.971)"/><path d="M92.8,92.2a2.78,2.78,0,0,0,.956,0Z" transform="translate(-81.167 -81.254)"/><path d="M424.51,94.672c.012-.024.037-.037.037-.061-.061-.061-.1,0-.147.025C424.412,94.684,424.473,94.66,424.51,94.672Z" transform="translate(-372.138 -83.347)"/><path d="M435.947,102a.112.112,0,0,0-.147,0Z" transform="translate(-382.141 -89.832)"/><path d="M106.327,108.4H105.8C105.959,108.4,106.217,108.657,106.327,108.4Z" transform="translate(-92.574 -95.469)"/><path d="M65.647,115.937c-.037-.012-.1.024-.11-.037l-.037.061A.265.265,0,0,0,65.647,115.937Z" transform="translate(-57.212 -102.051)"/><path d="M70.347,115.937,70.2,115.9C70.212,116.01,70.4,115.937,70.347,115.937Z" transform="translate(-61.336 -102.051)"/><path d="M72.4,115.9l.11.061v-.024Z" transform="translate(-63.266 -102.051)"/><path d="M82.333,116.224c-.086.037-.2-.1-.233.037l.037.025C82.21,116.285,82.321,116.3,82.333,116.224Z" transform="translate(-71.778 -102.313)"/><path d="M441.2,116.681h.123v-.025C441.286,116.656,441.225,116.632,441.2,116.681Z" transform="translate(-386.879 -102.709)"/><path d="M405.455,132.537l-.355-.037v.037Z" transform="translate(-355.203 -116.617)"/><path d="M69.1,138.459a.878.878,0,0,0,.478.061A1.5,1.5,0,0,0,69.1,138.459Z" transform="translate(-60.37 -121.841)"/><path d="M73.047,139h0Z" transform="translate(-63.705 -122.32)"/><path d="M84.1,141.8h0Z" transform="translate(-73.533 -124.777)"/><path d="M83.574,141.8H83.5A.078.078,0,0,0,83.574,141.8Z" transform="translate(-73.006 -124.777)"/><path d="M81.747,141.3c.012.086-.086.049-.147.061h.233A.078.078,0,0,1,81.747,141.3Z" transform="translate(-71.339 -124.338)"/><path d="M53.072,145.6l-.172.037h.27Z" transform="translate(-46.155 -128.112)"/><path d="M57.525,145.661h.061v-.025c-.025-.012-.061-.025-.086-.037C57.512,145.625,57.537,145.637,57.525,145.661Z" transform="translate(-50.192 -128.112)"/><path d="M57.5,145.6Z" transform="translate(-50.192 -128.112)"/><path d="M56.623,145.569c-.049-.012-.086,0-.123.061h.086C56.586,145.606,56.6,145.594,56.623,145.569Z" transform="translate(-49.314 -128.081)"/><path d="M447.133,146.425l-.233-.025C446.924,146.486,447.084,146.461,447.133,146.425Z" transform="translate(-391.881 -128.814)"/><path d="M454.155,146.611c-.1-.049-.233-.012-.355-.025A.9.9,0,0,0,454.155,146.611Z" transform="translate(-397.936 -128.976)"/><path d="M54.6,149.271a.244.244,0,0,0,.257,0C54.772,149.271,54.674,149.136,54.6,149.271Z" transform="translate(-47.647 -131.28)"/><path d="M58.7,149.261h.233l-.123-.061Z" transform="translate(-51.245 -131.27)"/><path d="M63.425,149.145l-.025.061a.094.094,0,0,0,.147-.025l.049.061c.233-.074.539.135.723-.061C64.013,149.219,63.743,149.109,63.425,149.145Z" transform="translate(-55.369 -131.216)"/><path d="M448.155,150.025l-.172-.025v.025l-.184.024C447.923,150.025,448.021,150.1,448.155,150.025Z" transform="translate(-392.671 -131.972)"/><path d="M442.9,150.187c.061.012.11.11.172.025C443.035,150.162,442.961,150.2,442.9,150.187Z" transform="translate(-388.371 -132.135)"/><path d="M70.3,154.637h.123A.069.069,0,0,0,70.3,154.637Z" transform="translate(-61.423 -136.009)"/><path d="M40.047,167.061c-.037-.049-.1-.025-.147-.061A.133.133,0,0,0,40.047,167.061Z" transform="translate(-34.748 -146.89)"/><path d="M54.6,171.974h.527A.506.506,0,0,0,54.6,171.974Z" transform="translate(-47.647 -151.189)"/><path d="M55.5,175.851h1.017c0-.159-.086.049-.147-.061-.11.012-.368-.025-.466.037A.925.925,0,0,0,55.5,175.851Z" transform="translate(-48.437 -154.602)"/><path d="M48.986,175.837,48.9,175.8v.061C48.937,175.861,48.974,175.874,48.986,175.837Z" transform="translate(-42.645 -154.611)"/><path d="M50.917,175.85c-.147-.086-.306.012-.417.025A.545.545,0,0,0,50.917,175.85Z" transform="translate(-44.049 -154.625)"/><path d="M458.01,189.537l-.037-.037H457.9Z" transform="translate(-401.533 -166.633)"/><path d="M463.649,189.561c.061,0,.135.025.184-.024-.061-.049-.159-.025-.233-.037Z" transform="translate(-406.535 -166.633)"/><path d="M76.9,200.025h.355L77,200Z" transform="translate(-67.215 -175.846)"/><path d="M416.566,203.6H416.1C416.21,203.6,416.455,203.735,416.566,203.6Z" transform="translate(-364.855 -179.005)"/><path d="M420.647,203.425l-.147-.024C420.5,203.486,420.623,203.461,420.647,203.425Z" transform="translate(-368.716 -178.83)"/><path d="M25.8,214.361h.172C25.91,214.349,25.849,214.324,25.8,214.361Z" transform="translate(-22.376 -188.431)"/><path d="M27.323,214.5H27.2A.411.411,0,0,0,27.323,214.5Z" transform="translate(-23.604 -188.57)"/><path d="M14.372,226.625,14.2,226.6C14.225,226.674,14.359,226.674,14.372,226.625Z" transform="translate(-12.197 -199.187)"/><path d="M25.841,230.4H25.4c.147.012.294.049.441.061Z" transform="translate(-22.025 -202.522)"/><path d="M23.8,230.361h.208A1.173,1.173,0,0,0,23.8,230.361Z" transform="translate(-20.621 -202.483)"/><path d="M23.811,242.577a11.681,11.681,0,0,0-1.311,0A5.865,5.865,0,0,0,23.811,242.577Z" transform="translate(-19.48 -213.179)"/><path d="M14.286,255.824,14.2,255.8l.061.061Z" transform="translate(-12.197 -224.809)"/><path d="M479.147,261.6H479l.172.025Z" transform="translate(-420.048 -229.899)"/><path d="M48.147,263.2H48C48.012,263.286,48.11,263.225,48.147,263.2Z" transform="translate(-41.856 -231.303)"/><rect width="0.319" height="0.025" transform="translate(3.375 33.184)"/><path d="M252.188,274.07c-.172.38-.515.012-.784.086a6.164,6.164,0,0,1-2.3.27v.086c.037.086.135.025.184.086,3.467-.025,6.984.049,10.414-.061l-.319-.441a2.191,2.191,0,0,0-1.262.355.322.322,0,0,1-.11-.172,1.059,1.059,0,0,1-.907-.184.594.594,0,0,1-.49.061,3.78,3.78,0,0,1-1.887.123c-.441-.123-.772-.478-1.262-.478C253.082,274,252.518,273.739,252.188,274.07Z" transform="translate(-218.316 -240.604)"/><path d="M458.941,274.6H458.5C458.647,274.6,458.843,274.723,458.941,274.6Z" transform="translate(-402.06 -241.306)"/><path d="M348.047,277.38c.2.184.429.037.6-.037-.172-.049-.429.135-.588-.049-.074-.27-.38-.221-.588-.294-.086.1-.1.306-.172.343A2.21,2.21,0,0,0,348.047,277.38Z" transform="translate(-304.484 -243.412)"/><path d="M341.5,280.059v.061h.294C341.7,280.1,341.623,280.035,341.5,280.059Z" transform="translate(-299.395 -246.091)"/><path d="M38.585,302.72c.123.012.11-.135.208-.172-.257-.319-.674-.5-.674-.956,0-.11-.147-.184-.086-.27a3.139,3.139,0,0,0-.11-.5c-.331-.172-.086-.576-.331-.784-.294-.208-.061-.637-.319-.87,0-.331-.245-.551-.233-.87l.147-.049c-.147-.478-.086-1.127-.613-1.348-.355.2-.784.184-1.1.478a1.331,1.331,0,0,1-.588-.037l-.025.233c.2.208-.061.49.257.637.233.38.025.919.294,1.286a5.085,5.085,0,0,0,.184,1.017c-.2.233-.515.159-.784.172-.037.159-.2.331-.086.478.147.025.061-.184.2-.184.282.466.833-.049,1.139.331-.392.2.012.478-.025.747-.159.159-.392.27-.564.441-.025.221.221.245.355.319A25.789,25.789,0,0,1,38.585,302.72Z" transform="translate(-30.174 -260.874)"/><path d="M73.973,302.828c.049-.037.012-.1.049-.147a.511.511,0,0,0-.441-.27c-.294-.061-.049-.331-.086-.49v-2.475a.515.515,0,0,0-.172-.331.349.349,0,0,1,.147-.233c-.306-.135-.037-.343-.123-.527.123-.122.086-.294.147-.417-.037-.257.1-.6-.11-.747-.49-.025-1.115.037-1.605.061l-.123-.1c-.172.135-.294-.123-.466,0-.184.049-.429.123-.331.355.368.11.429.49.5.784-.025.061-.1.1,0,.147-.012.012-.025.037-.061.025.221.392.049.931.27,1.311-.086.11-.025.343-.208.355l-.025.478c-.208.233.135.466-.061.686.024.2.245.037.294.208a.067.067,0,0,1-.037.061c-.368-.012-.147.343-.2.551-.061.343-.5.208-.539.564.331.4,1,.233,1.434.147C72.846,302.694,73.41,303.221,73.973,302.828Z" transform="translate(-61.862 -261.068)"/><path d="M96.894,299.333a.679.679,0,0,0,.319-.025c.135-.2,0-.417,0-.6-.037-.061-.11-.1-.086-.184.233-.172-.086-.466.086-.6-.061-.11.012-.331-.172-.331a2.251,2.251,0,0,1-.907.1c-.306.037-.588-.257-.772.025-.1.159.049.294.086.441l.4.172c.11.086.319-.049.392.123.049.037.012.1,0,.147C96.514,298.782,96.588,299.149,96.894,299.333Z" transform="translate(-83.386 -261.481)"/><path d="M163.182,303.166c-.025.147.135.2.2.294.551.049.894.025,1.458.037.184.025.38-.086.5,0a.533.533,0,0,0,.564-.123c-.037-.172-.025-.355-.184-.466a7.249,7.249,0,0,0,.061-2.181.2.2,0,0,1-.061.11c-.466.012.172-.221,0-.466.233-.306.074-.735.037-1.078.208-.135.1-.49.086-.7a1.189,1.189,0,0,0-.025-.772.339.339,0,0,0-.355.049c-.184-.257-.331.135-.564,0a3.484,3.484,0,0,0-1.127-.086c-.172-.135-.331.086-.5.086-.233.38.257.294.38.588-.086.221.159.392.025.564-.012.306.184.551.147.87-.233.453-.037,1.066-.049,1.605l.11.086c.086.123-.025.184-.11.233-.037.123-.074.319.025.417-.135.245.184.392.123.637C163.733,303.093,163.378,302.97,163.182,303.166Z" transform="translate(-142.923 -261.614)"/><path d="M213.251,303.016a.46.46,0,0,0-.355-.086.4.4,0,0,1-.233-.27c.049-.061.135-.1.147-.172l.061-4.595-.061-.2c-.123-.025-.331-.1-.417.049a16.773,16.773,0,0,1-1.715-.147c-.208.061-.453.11-.478.355.074.184.294.147.441.208.294.1.11.441.208.637-.257.184-.123.576-.123.87l-.049.061c.27.649-.025,1.483.025,2.083l.233.037v.208c-.147.1-.1.257-.233.343.037.037,0,.11-.025.147.184.478-.576.257-.441.7.049.208.294.086.441.123a.924.924,0,0,1,.956.025c.551-.012,1.237.172,1.691-.147A.21.21,0,0,0,213.251,303.016Z" transform="translate(-184.182 -261.488)"/><path d="M237.228,302.389c-.11-.025-.11-.282-.27-.147-.123-.208-.11-.466-.233-.662a1.254,1.254,0,0,0-.613-1.041c-.025-.172.061-.282.037-.441.221-.221.441-.184.686-.331a.913.913,0,0,0,.037-.833c-.184-.049-.012.221-.208.147a.6.6,0,0,1-.024-.294.139.139,0,0,1,.2-.061,1,1,0,0,0-.2-.527l-.441-.441a3.922,3.922,0,0,0-1.728-.184c-.123,0-.172.135-.172.233.159.074-.074.2.086.27a.879.879,0,0,1,.466.6c.11.037.074-.086.147-.11.11-.037.159.061.233.086.037.074-.049.1-.086.147.147.27-.27.27-.172.466-.184.074-.012.392-.147.478-.025.331-.515.478-.527.809.539.343.613.919.833,1.434.049.135.159.331.037.466.012.245-.245.478-.417.637.233.429.723.245,1.1.208.27-.037.515.086.662-.123a.463.463,0,0,1,.331.061c.245-.049.392.27.637.11a.419.419,0,0,0,.294-.294C237.645,302.843,237.228,302.745,237.228,302.389Z" transform="translate(-205.33 -261.413)"/><path d="M344.553,302.841c-.368-.27-.417-.747-.539-1.164-.184-.453-.331-.907-.551-1.348-.086-.1.025-.2.025-.294-.294-.1-.025-.453-.257-.551-.049-.27-.319-.515,0-.723-.11-.172-.037-.392-.184-.539-.135-.208-.037-.735-.441-.723-.343.208-.882.037-1.078.5a.837.837,0,0,1-.466-.086c-.061,0-.135-.012-.172.061.049.257,0,.564.147.784a1.618,1.618,0,0,1,.257,1.127,3.933,3.933,0,0,1,.27,1.225c-.147.282-.551.073-.784.172a.666.666,0,0,0-.061.478l.184-.184c.257.392.882-.025,1.164.355-.233.037-.123.233-.147.355.319.4-.294.6-.441.894.025.2.221.208.38.208a11.352,11.352,0,0,1,2.414,0c.172-.049.368,0,.5-.147C344.909,303.024,344.664,302.9,344.553,302.841Z" transform="translate(-298.687 -261.399)"/><path d="M126.075,303.393c-.159-.233-.368.086-.49-.147a1.061,1.061,0,0,0,.11-.723,13.729,13.729,0,0,0,.061-1.434,1.622,1.622,0,0,1,0-1.127,11.014,11.014,0,0,1-.025-1.8l-.061-.061c-.564.012-1.2-.025-1.777.037-.123.073-.368.172-.233.38a14.44,14.44,0,0,0,.123,3.014c-.159.184-.11.368-.147.588.257.319-.135.6,0,.931-.074.441-.625.159-.637.576a.876.876,0,0,0,.441.184,21.24,21.24,0,0,1,2.646.025c.11-.086.38-.049.331-.27A.371.371,0,0,0,126.075,303.393Z" transform="translate(-107.666 -261.927)"/><path d="M149.467,298.028l-.061-.086a5.514,5.514,0,0,0-1.188-.037c-.135.086-.1.27-.061.38.1.208.355.294.441.478-.012.012-.037.037-.061.025.086.4.38.686.466,1.078a.561.561,0,0,0,.539,0,.759.759,0,0,0-.147-.355A6.542,6.542,0,0,0,149.467,298.028Z" transform="translate(-129.711 -261.733)"/><path d="M267.57,303.059c-.049,0-.11.025-.147-.025a.536.536,0,0,1,.27-.5c.6-.625.588-1.581,1.017-2.3a3.229,3.229,0,0,0-.061-1.336.165.165,0,0,0-.061.147c-.172.233-.147.613-.441.723-.245.012-.257-.208-.319-.38-.122-.184.11-.392-.086-.527-.172-.159-.172-.294-.27-.478.2-.245-.1-.355-.123-.576a.521.521,0,0,0-.723-.061c-.331-.147-.662.025-.98.061-.2-.319-.527.123-.7-.147-.11-.025-.184.037-.294.037-.208.588.588.588.87.87a6.216,6.216,0,0,0,.662,1.911,4.47,4.47,0,0,0,.441,1.188c.123-.012.11.11.147.184.061.086.135-.061.184,0,.037.441.257.845.257,1.274a.4.4,0,0,0,.331.1c.049-.049.159-.037.11-.147.037-.025.049-.074.1-.061v-.086C267.656,302.924,267.632,303.022,267.57,303.059Z" transform="translate(-231.935 -261.507)"/><path d="M422.8,303.2c.11-.417-.208-.809-.061-1.213l-.061-3.173c.123-.2.355-.319.441-.527-.049-.221-.282-.257-.49-.233-.8.27-1.777-.306-2.536.147-.147.331.306.257.441.441v.4a.432.432,0,0,1,.11.38c.319.294-.184.539.037.784-.221.355.184.7-.123,1.054.074.478-.172,1.152.208,1.544.037.135-.135.172-.208.233-.061.319-.551.257-.466.6.294.319.8.037,1.164.1a.379.379,0,0,0,.527-.122,1.261,1.261,0,0,1,.747.233c.208-.049.466.012.588-.208S422.886,303.339,422.8,303.2Z" transform="translate(-368.333 -261.861)"/><path d="M115.25,298.247c-.11-.49-.637-.184-1.017-.27.012.074-.1.184-.147.27a6.781,6.781,0,0,1-.086,1.568c.061.208.331.135.466.147.257-.123.294-.441.294-.723.086-.306.27-.7.637-.772C115.495,298.333,115.372,298.234,115.25,298.247Z" transform="translate(-99.769 -261.804)"/><path d="M189.048,299.428c-.172-.233-.025-.527-.208-.7a.639.639,0,0,1,.086-.4.574.574,0,0,0-.049-.294c-.613.123-1.115-.11-1.777-.037-.061.049,0,.147-.086.184-.049.159.061.27.172.38.637.11.931.637,1.372,1.1C188.754,299.686,189.109,299.747,189.048,299.428Z" transform="translate(-163.827 -261.822)"/><path d="M300.053,303.206c-.159-.074-.429.025-.527-.086,0-.123.172-.184.208-.294.1-.882-.2-1.715-.1-2.6l-.147-.11c.037-.319.2-.6.1-.931.221-.123-.073-.294.025-.5.122-.27.466-.282.527-.564a.11.11,0,0,0-.147-.147c-.331-.184-.76-.025-1.078,0a1.437,1.437,0,0,0-.723-.025c-.184-.1-.4.159-.625.025-.074.122,0,.294-.061.417a2.275,2.275,0,0,1,.025.956H297.5c.074.6.074,1.029.11,1.605.257.306-.135.649.123.956-.074.319-.159.515-.208.821.123.355-.319.38-.441.588.025.049-.049.233.061.294.233.049.625.159.784-.061.172-.11.319.061.466.086.355.11.711-.1,1.054.061a.938.938,0,0,0,.747-.233C300.3,303.341,300.151,303.255,300.053,303.206Z" transform="translate(-260.423 -261.739)"/><path d="M382.947,303.21c-.147-.147-.417.159-.441-.147.049-.037.086-.11.147-.123a18.308,18.308,0,0,0-.025-2.6l.025.037a8,8,0,0,0-.025-1.8c-.074-.172.159-.38,0-.564-.5-.306-.919.245-1.434-.025-.294-.172-.441.172-.662.233a9.65,9.65,0,0,1,.025,1.973c.233.319.037.858.184,1.164-.319.368-.012.8-.147,1.2.147.5-.331.613-.613.833a.173.173,0,0,0,.061.245c.233.037.527.172.723,0a22.676,22.676,0,0,0,2.414.049l.147-.11C383.425,303.283,383.07,303.332,382.947,303.21Z" transform="translate(-333.135 -261.768)"/><path d="M447.567,303.411c-.049-.1-.159-.245-.037-.355a30.127,30.127,0,0,0-.147-3.051c-.184-.2-.012-.466-.025-.686.012-.147.245-.221.123-.392a.21.21,0,0,1,.147-.172c.123-.11.441-.208.319-.441a1.569,1.569,0,0,0-1.458.086c-.123-.012-.2-.147-.294-.233-.429.1-.882-.233-1.25.123a.6.6,0,0,0,.025.294c.453.086.147.674.527.772.012.221.147.6-.11.7a.946.946,0,0,0,.086.441c-.282.159-.613.172-.894.319-.049.4.49.306.723.5-.025.184.343.306.086.478.074.38-.184.87.11,1.1-.012.147.184.343-.049.441a1.581,1.581,0,0,0-.5.233c-.012.061.025.135-.037.172.086.172.27.135.355.184h2.6c.135-.037.1-.184.147-.27C447.91,303.423,447.677,303.533,447.567,303.411Z" transform="translate(-389.841 -261.944)"/><path d="M371.795,298.827c.135-.037.11-.147.061-.233-.208.074-.135-.184-.208-.27-.208.086-.429-.025-.637-.025a.284.284,0,0,1-.294.049c.086.159-.27.221-.147.417.159.392-.159.735-.049,1.078h-.037c.159.147-.184.294.061.4.184.221.27-.123.466.037.294-.147.184-.515.27-.76C371.39,299.268,371.476,298.925,371.795,298.827Z" transform="translate(-324.801 -262.102)"/><path d="M406.267,300.174a.4.4,0,0,0-.172-.355,3.865,3.865,0,0,0,.086-1.458c-.123-.061-.257-.172-.4-.086l-.539.025c-.11-.012-.221-.086-.319,0-.025.074-.123.147-.061.208.074.208.074.453.355.478.1.478.429.833.564,1.311C405.924,300.309,406.181,300.394,406.267,300.174Z" transform="translate(-354.973 -262.052)"/><path d="M20.311,312.019a1.991,1.991,0,0,1,.208-.662c.1-.1.025-.294.172-.355v-.233c.1-.135.025-.355.172-.441,0-.061.012-.135-.025-.172.233-.172.049-.49.147-.7.061-.135.27-.208.123-.355a1.414,1.414,0,0,0-.147-.747.116.116,0,0,0-.184.025c.012.159-.135.27-.147.417.1.355-.172.637-.11,1.017-.037.037-.135.037-.1.11-.061.061-.123.147-.2.147.037.135-.172.184-.061.294-.221.319.1.735-.331.968.025.11.11.245,0,.343-.331.184-.453.649-.833.76v.257c.637-.012,1.311.294,1.911.037C21.169,312.154,20.434,312.423,20.311,312.019Z" transform="translate(-16.409 -270.896)"/><path d="M326.256,313.46c.11-.061.331-.11.294-.294-.2-.221-.576-.257-.613-.588a14.009,14.009,0,0,0,.588-1.973c.049-.221.012-.478.245-.588-.074-.392.061-.76-.245-1.017-.123.061-.147.27-.257.319a3.464,3.464,0,0,1-.147.956c-.123.123.11.27-.086.355-.282.086-.2.417-.294.6.27.441-.515.539-.245.968-.294.306-.441.76-.894.894-.147.147.147.172.086.319C325.263,313.3,325.7,313.533,326.256,313.46Z" transform="translate(-284.53 -271.491)"/><path d="M96.277,313.094c-.147-.27.184-.551.025-.821a.165.165,0,0,0,.061-.147c.061-.257-.343-.392-.5-.2a4.76,4.76,0,0,1-.6.894c-.208.527.625.674.588,1.164.049.159.257.1.4.123.208-.123.11-.294.086-.478C96.5,313.462,96.13,313.3,96.277,313.094Z" transform="translate(-83.296 -273.981)"/><path d="M187.518,313.052c-.061.184-.245.417-.049.6.392.233.38.735.809.894.11-.037.245-.147.257-.257a8.612,8.612,0,0,1-.049-1.862c-.049-.135-.2-.159-.331-.147a.5.5,0,0,0-.208.5C187.849,312.954,187.653,312.917,187.518,313.052Z" transform="translate(-164.16 -274.367)"/><path d="M266.358,316.876c-.11-.417-.539-.135-.772-.257.012-.086-.061-.2.049-.245-.074-.833.208-2.034-.343-2.794a.432.432,0,0,0-.245-.38c-.025.306.074.76-.086,1.017.049.025.049.074.086.11a12.618,12.618,0,0,1-.049,1.924c-.074.429-.686.208-.7.637.355.38.919.233,1.434.233C265.954,317.1,266.285,317.17,266.358,316.876Z" transform="translate(-231.654 -275.177)"/><path d="M189.312,331.808v-.086c-.012-.515.147-1,.086-1.581a.424.424,0,0,0-.527,0c-.123.245-.466.441-.417.76a1.787,1.787,0,0,0-.355.208,1.327,1.327,0,0,0-.833.294c-.086.147.025.294.025.441C187.94,331.967,188.651,331.661,189.312,331.808Z" transform="translate(-164.03 -289.962)"/><path d="M18.8,356.1l-.1.147c.27.1.172.441.245.6a9.964,9.964,0,0,0,.086,1.691c-.086.11-.245.1-.294.208-.1.086.037.147.086.208l1.139-.061c0-.894-.037-1.764.049-2.683C19.656,356.051,19.19,356.174,18.8,356.1Z" transform="translate(-16.146 -312.82)"/><path d="M55.7,357.853c-.233-.539-.735-.943-.956-1.483-.049-.049-.245-.123-.184-.27-.147-.074-.294-.257-.49-.147-.331.061-.76-.147-.968.184l.331.11c-.012.233.208.355.319.527a8.77,8.77,0,0,0,.992,1.311.234.234,0,0,0,.086.245c-.123.11.123.147.086.257.086.233.319.2.5.233C56.028,358.882,55.563,358.2,55.7,357.853Z" transform="translate(-46.331 -312.662)"/><path d="M69.682,356.1l-.086.086c-.012.172.208.135.294.27.135.368-.2.98.294,1.164-.037-.368.061-.686.024-1.054.037-.208.343-.172.355-.355C70.307,356.051,69.952,356.174,69.682,356.1Z" transform="translate(-60.806 -312.82)"/><path d="M127.5,356.247c.49.4.147,1.3.294,1.8-.086.159.012.38.025.588a.266.266,0,0,1-.233.086c-.135.061,0,.147,0,.233a5.508,5.508,0,0,0,1.188-.024v-2.745l-.784-.086C127.868,356.235,127.586,356.063,127.5,356.247Z" transform="translate(-111.615 -312.82)"/><path d="M175.609,358.391c-.4-.233-.061-.7-.5-.894.037-.2.257-.208.38-.319a.726.726,0,0,0-.061-.674c-.123-.441-.613-.221-.894-.4-.11.037-.257.037-.331.11,0,.208.221.172.294.331.221.233-.012.5-.025.747-.5.306.2.539.123.87.208.245-.025.515-.061.76.159.11.466.049.662.025.233-.135.527.159.723-.025C175.989,358.673,175.719,358.575,175.609,358.391Z" transform="translate(-152.593 -312.82)"/><path d="M31.337,357.1c.037-.27-.2-.5-.025-.747a2.92,2.92,0,0,0-.87-.061c-.012.086-.11.184-.037.27C30.908,356.447,30.9,357.133,31.337,357.1Z" transform="translate(-26.394 -312.984)"/><path d="M91.33,356.3c-.061.049-.159.049-.172.147.061.27-.147.564.061.845.38-.135.294-.613.551-.87A.557.557,0,0,0,91.33,356.3Z" transform="translate(-79.696 -312.996)"/><path d="M97.445,358.775c.074-.208-.135-.392.061-.576-.184-.5.025-1.054-.086-1.605l.061-.061c-.123-.4-.662-.074-.931-.233-.257.1-.123.368-.123.527-.123.551.135,1.127,0,1.666.11.319-.306.38-.257.588.429.012.968.086,1.483.061l.086-.086C97.727,358.861,97.531,358.922,97.445,358.775Z" transform="translate(-84.121 -312.996)"/><path d="M108.668,356.337l-.588-.037c-.208.208.208.38.172.613.1.135.159.49.417.343.086-.1-.074-.233.049-.319Z" transform="translate(-94.523 -312.996)"/><path d="M206.186,359.048c.147-.784-.061-1.605.049-2.389-.294-.2-.551,0-.894-.061-.27.123-.147.576-.172.87-.037.184.2.331.025.5.2.294-.1.478,0,.809.074.27-.233.319-.294.5a4.832,4.832,0,0,0,1.581.086C206.53,359.146,206.272,359.17,206.186,359.048Z" transform="translate(-179.532 -313.232)"/><path d="M217.769,356.4h-.147c-.135-.221-.319.074-.466-.025,0,.086-.025.172.025.233a3.335,3.335,0,0,1,.417.723c.061,0,.135.025.172-.025,0-.086.025-.2-.025-.27C217.879,356.838,217.732,356.63,217.769,356.4Z" transform="translate(-190.281 -313.007)"/><path d="M241.872,357.545c-.368-.319-.025-.809-.294-1.164a.351.351,0,0,0-.417.025c-.208-.074-.38.221-.576.147-.037.123.074.184.037.294a2.361,2.361,0,0,1,.257,1.311,1.292,1.292,0,0,0-.38.037v.147c.086,0,.172-.025.233.025.11.1.245-.061.331.061.012.2.1.466-.147.6.012.368.441.037.6.184h.809c.074-.012.2-.074.147-.184A3.173,3.173,0,0,1,241.872,357.545Z" transform="translate(-210.77 -313.015)"/><path d="M313.117,356.386c-.1.037-.147-.049-.233-.086-.086.074-.319.086-.257.233.674.208-.037,1.09.6,1.311-.037-.294.061-.588.025-.919.012-.245.184-.343.355-.441l-.061-.061C313.436,356.374,313.252,356.263,313.117,356.386Z" transform="translate(-274.051 -312.996)"/><path d="M139.1,356.662c0,.061.012.135.086.147.4.037.5.478.845.551.172-.257-.11-.466-.025-.747C139.688,356.662,139.37,356.466,139.1,356.662Z" transform="translate(-121.794 -313.235)"/><path d="M164.084,359.124c-.074-.845.025-1.715-.061-2.5l-1.1-.025c-.049.012-.147.074-.123.147.147.061.282.159.27.343-.2.368.184.637-.037.992-.135.392.159.662-.025.992-.123.074-.27.172-.208.319a.733.733,0,0,0,.417-.086,1.488,1.488,0,0,0,1.078.025C164.28,359.2,164.145,359.185,164.084,359.124Z" transform="translate(-142.575 -313.259)"/><path d="M200.584,356.6c-.368.2-.037.649-.184.919.478.074.282-.588.637-.747C200.964,356.576,200.731,356.649,200.584,356.6Z" transform="translate(-175.583 -313.259)"/><path d="M271.686,357.947c.086-.466-.2-.87.233-1.164.012-.172-.257-.172-.38-.123-.282-.184-.564.245-.845-.025-.11-.012-.257-.012-.294.123.441.1.159.625.245.894.147.135-.061.343.049.466l-.049.968c-.025.159-.257.074-.208.257a4.284,4.284,0,0,0,1.372.123l.147-.123C271.552,358.964,271.736,358.425,271.686,357.947Z" transform="translate(-237.006 -313.271)"/><path d="M298.7,357.933a2.616,2.616,0,0,1-.76-.98c-.159-.245-.343-.515-.686-.441-.306.159-.649-.074-.956.086l.049.147c.429.1.613.6.784.931a7.538,7.538,0,0,1,1.164,1.63.761.761,0,0,0,.613,0c.061-.245-.123-.539.025-.784C299,358.227,298.567,358.154,298.7,357.933Z" transform="translate(-259.733 -313.171)"/><path d="M336.355,357.286c-.073.11-.073.27-.233.331-.159-.049-.159-.221-.147-.355-.208-.245-.147-.637-.564-.662a1.806,1.806,0,0,1-.956,0c-.282.331.306.221.38.49.074.086-.025.245.1.294a2.558,2.558,0,0,0,.2.613c-.037.527.637.76.564,1.311l.123.025c.086-.037.061-.11.025-.208.135-.086.1-.331.27-.319C336.2,358.3,336.527,357.8,336.355,357.286Z" transform="translate(-293.148 -313.259)"/><path d="M378.086,359.161a17.117,17.117,0,0,0,0-2.242.141.141,0,0,0,.061-.147,3.051,3.051,0,0,0-1.164-.172c-.049.074-.233.037-.172.172.478.172.172.747.257,1.078-.086.294.184.527,0,.784a.676.676,0,0,1,.037.343c.233.294-.257.123-.294.294.049.061.1.135.172.147a8.834,8.834,0,0,0,1.139,0C378.159,359.332,378.184,359.2,378.086,359.161Z" transform="translate(-330.369 -313.259)"/><path d="M414.359,358.952c.172-.355-.2-.576-.233-.845-.613-.306-.6-1.164-1.2-1.507-.392.159-.858-.074-1.225.086v.11a.13.13,0,0,0,.147.061.793.793,0,0,1,.417.7c-.061-.061-.135-.159-.208-.123-.049.2.11.368-.025.527a1.69,1.69,0,0,1-.037,1.2l-.294.147c.1.282.515.184.784.208.1-.049.282-.11.208-.245-.576-.123-.221-.821-.319-1.188-.135-.172,0-.38,0-.564.147.1.147.257.257.355.613.38.551,1.078,1.078,1.519.2.172.355.037.588.025.208-.1-.025-.331.025-.466Z" transform="translate(-360.994 -313.259)"/><path d="M351.87,359.2c.049-.123-.11-.245.025-.343-.061-.441-.025-.8-.11-1.225.2-.147-.012-.392.049-.564.037-.159.27-.11.245-.294-.343-.208-.735.037-1.115-.086-.355.086-.049.429-.147.662-.11.637.257,1.421-.2,1.973-.037.061-.037.11.025.147a.367.367,0,0,0,.355-.025,1.856,1.856,0,0,1,.686.086.794.794,0,0,0,.441-.086C352.152,359.3,351.968,359.26,351.87,359.2Z" transform="translate(-307.376 -313.334)"/><path d="M389.827,356.89c-.27.025-.49-.037-.7,0-.123-.074-.233.135-.147.245a10.012,10.012,0,0,1,.845.551c.245-.123.037-.355.061-.588Z" transform="translate(-341.033 -313.5)"/><path d="M428.919,356.8c-.331.086-.649-.184-.919.123.037.172.257.012.319.208a.17.17,0,0,1,0,.233c.123.343-.025.809.355.992-.012-.123.025-.257-.037-.355.172-.331-.135-.992.392-1.017C429.041,356.9,428.919,356.871,428.919,356.8Z" transform="translate(-375.297 -313.407)"/><path d="M467.168,356.8c-.086.086-.233.061-.172.233.38.184.184.833.662.723v-.784C467.56,356.788,467.339,356.861,467.168,356.8Z" transform="translate(-409.502 -313.435)"/><path d="M450.907,357.176c-.159-.2-.453-.1-.625-.025.037.306-.074.564-.037.87.417.1.294-.38.441-.564C450.711,357.323,450.907,357.323,450.907,357.176Z" transform="translate(-394.81 -313.663)"/><path d="M456.087,359.536c.135-.8-.135-1.63,0-2.475l-.441-.061c-.2.1-.527-.074-.637.147-.012.576.147,1.09.1,1.642-.012.319-.037.76-.355.894-.037.11.086.074.11.147.208.135.417-.135.637,0,.294-.049.674.172.87-.11C456.368,359.548,456.172,359.634,456.087,359.536Z" transform="translate(-398.764 -313.61)"/><path d="M233.407,362.987c-.061-.233.1-.429.086-.662.208-.049-.049-.233.123-.331-.1-.086-.061-.233-.184-.294-.2.208-.1.539-.208.76-.27.392-.11,1.054-.723,1.274.11.417.576.074.87.184.1-.012.1-.11.1-.184a2.56,2.56,0,0,0-.208-.172A.534.534,0,0,1,233.407,362.987Z" transform="translate(-203.75 -317.734)"/><path d="M53.9,364.364c-.11-.184-.257-.429-.11-.637-.135-.368.147-.833-.245-1.127a1.794,1.794,0,0,0-.049.956.71.71,0,0,1-.037.5c.2.355-.355.257-.355.527.221.159.539.061.784.086.074-.025.221-.049.184-.172C54.019,364.45,53.945,364.438,53.9,364.364Z" transform="translate(-46.331 -318.524)"/><path d="M296.734,364.885a4.826,4.826,0,0,0-.061-1.458c-.012-.123-.049-.245-.2-.233-.012.208-.11.4-.037.6.086.147-.049.331.061.441-.086.233-.025.441-.086.637-.1.135-.27.074-.38.172-.037.074.049.1.086.147.257-.037.723.221.956-.086C297,364.946,296.771,365.081,296.734,364.885Z" transform="translate(-259.493 -319.044)"/><path d="M30.812,364.392l-.025-.992a.93.93,0,0,0-.478.441c-.074.086.025.2.061.27C30.493,364.233,30.64,364.441,30.812,364.392Z" transform="translate(-26.309 -319.226)"/><path d="M139.945,363.4c-.1.233-.429.392-.38.637.172.123.27.527.527.38.049-.257-.11-.564.037-.809C140.092,363.523,140.067,363.4,139.945,363.4Z" transform="translate(-122.197 -319.226)"/><path d="M388.9,364.559c.147.159.306.417.527.441l.061-.931a.156.156,0,0,0-.294-.061C389.226,364.277,388.8,364.277,388.9,364.559Z" transform="translate(-340.971 -319.687)"/><path d="M334.95,366.444c-.1-.49.11-1.164-.257-1.544a10.94,10.94,0,0,1-.1,1.274c.1.2-.2.257-.294.38-.086.086.049.147.1.208a4.324,4.324,0,0,0,.809-.025C335.391,366.481,335.06,366.505,334.95,366.444Z" transform="translate(-293.053 -320.542)"/><path d="M30.993,372.089c0,.025-.012.074.025.086a.349.349,0,0,0-.147.233c-.1.037-.159.172-.294.123-.159.037-.319.11-.294.319a3.145,3.145,0,0,0,1.017,0,2.572,2.572,0,0,0,.025-.809A.283.283,0,0,0,30.993,372.089Z" transform="translate(-26.306 -326.775)"/><path d="M140.13,372.134c-.049.38-.441.38-.686.527,0,.061-.037.208.049.257.355-.086.674-.025.992-.086a4.647,4.647,0,0,1,.025-.723C140.424,371.828,140.253,372.109,140.13,372.134Z" transform="translate(-122.089 -326.759)"/><path d="M389.9,372.5c.037-.221-.294-.172-.355-.049.061.588-.674.306-.747.723.306.27.674-.025,1.041.025C389.78,372.981,389.964,372.785,389.9,372.5Z" transform="translate(-340.9 -327.079)"/></g></svg>