<svg xmlns="http://www.w3.org/2000/svg" viewBox="0 0 35 20.12"><defs><style>.cls-1{fill:#fff;}</style></defs><title>init</title><g id="Layer_2" data-name="Layer 2"><g id="Layer_2-2" data-name="Layer 2"><path class="cls-1" d="M31.37,8c.24-.47.49-1.19.56-1.35C32.63,5,30.39,4,30,5.17c-.2.68-.58,1.69-.82,2.34-2.33-.4-3.93-.66-4.19.13C24.62,8.8,25.21,9,26,9s2.55.19,2.55.19c-2,4.58-4.23,7.4-3.7,5.78.9-2.73,2-4.63.73-5.11a2,2,0,0,0-1.77.52c-1.38,1.33-3.46,5.28-4.81,6.76-.78.85-.35-1.1,1.22-4.22s3.11-6.67,2.36-7.76-1.93-1-3.18.54-6.54,10.84-6.74,9.68c-.13-.78,4.22-9.09,4.91-12s-4.2-4.9-5.34-1.64c-1.06,3-1.45,6.05-3.45,10.32-2.16,4.6-4.6,6.28-1.54.4,1.65-3.15-.77-2.15-2.84-1.07a3.52,3.52,0,0,1-2.51.06c-.4-.15-1.55-.62-1.74-1.2-.21-1.12,6.14-.75,6.76-.87S8,9.09,8.21,8.11C8.71,5.6-.59,7.93,0,10c0,.68,1.37,1.24,1.8,1.41a3.59,3.59,0,0,0,2.6,0c.92-.4,1.11.24.34,1.56s-2.39,3.88-.9,4.39,3.51-.6,5.39-5.16a72,72,0,0,0,3.38-10c.77-2.86,3.72-1.87,2.09,2.23-.78,2-4.58,10.47-5.81,13.33-1.07,2.47,1.62,3.34,3.1,1,2.71-4.22,6.8-11.53,7.93-12,.94-.42-.05,2.78-3.44,9-1.75,3.2,1.14,4,2.32,2.77S21.5,14,23,12c1.64-2.11,1.85-1.42,1.07.18-.54,1.13-1.44,3-1.32,4.32s2.51,2,4.25-.46c2-2.88,2.53-4.72,3.65-6.71,4.93.38,3.86,1.43,3.86,1.43S36.81,9.13,31.37,8Z"/></g></g></svg>