<svg xmlns="http://www.w3.org/2000/svg" viewBox="0 0 268.549 176.031"><defs><style>.a{fill:#0d0d0d;}</style></defs><g transform="translate(-0.2 -0.1)"><path class="a" d="M93.091,81.588c2.851-3.377,6.153-6.6,6.378-11.405.3-7.729.3-15.532.3-23.261a3.834,3.834,0,0,1,2.1-3.9c2.4-1.351,4.577-3.076,6.9-4.5a2.89,2.89,0,0,1,2.1-.075c1.951.9,3.827,2.026,6.078,3.3a29.533,29.533,0,0,0,.375-3c.075-4.277.15-8.629.15-12.906a2.416,2.416,0,0,1,1.426-2.551Q140.287,11.805,161.672.25a4.223,4.223,0,0,1,.75-.15,4.861,4.861,0,0,1,.15,1.426c-.075,2.926-.225,5.853-.225,8.779a2.781,2.781,0,0,1-1.876,2.851c-10.43,5.478-20.71,11.03-31.139,16.433-2.326,1.2-3.377,2.626-3.377,5.327,0,11.63-.225,23.261-.375,34.891a38.316,38.316,0,0,0,.3,3.977,5.306,5.306,0,0,0,.9-.15c2.551-2.626,4.877-5.4,4.877-9.379,0-7.8.225-15.607.15-23.411a3.838,3.838,0,0,1,2.251-3.977c3.3-1.726,6.528-3.752,9.679-5.778a2.816,2.816,0,0,1,3.377-.075c1.951,1.2,4.052,2.176,6,3.527a3.638,3.638,0,0,1,1.426,2.326c.075,3.752-.075,7.5-.15,11.255a2.931,2.931,0,0,1-1.726,2.7c-3.452,1.951-6.828,4.127-10.355,6.078a3.334,3.334,0,0,0-1.876,3.3c0,5.1,0,5.4,4.952,7.053,3.377,1.126,6.828,1.726,10.43,2.626a18.7,18.7,0,0,0-1.8,1.726c-1.8,1.8-3.677,3.6-5.4,5.478a1.745,1.745,0,0,1-2.551.375c-3.377-1.951-6.753-3.752-10.13-5.7-1.426-.825-2.326-.675-3.377.525-1.8,2.1-3.752,4.052-5.478,6.153-.975,1.2-1.8,1.426-3.151.6-1.726-1.05-3.6-1.8-5.327-2.776a2.121,2.121,0,0,0-3.076.525c-1.726,1.876-3.677,3.6-5.327,5.553-.975,1.2-1.8,1.126-3,.375-1.876-1.126-3.827-2.026-5.778-3.151a1.756,1.756,0,0,0-2.776.6c-1.5,2.1-3.151,4.052-4.577,6.153-.975,1.5-1.8,1.876-3.452.9a53.721,53.721,0,0,0-6.6-3.226c-1.351-.525-1.651-1.351-1.651-2.7.15-7.654.225-15.232.45-22.886a3.169,3.169,0,0,0-1.876-3.3c-1.351-.675-2.626-1.426-3.977-2.176s-1.951-.3-1.951,1.2c-.225,5.853-.525,11.705-.6,17.633-.15,6.153,0,12.381-.075,18.534v2.476a7.576,7.576,0,0,1-1.576-.525c-1.876-.9-3.677-1.876-5.478-2.776-2.7-1.426-2.551-1.351-2.4-4.352.45-9.154.75-18.383.975-27.538a2.981,2.981,0,0,0-1.351-2.1,41.043,41.043,0,0,0-5.1-2.326,59.363,59.363,0,0,0,5.553-4.127c1.8-1.726,3.452-2.1,5.553-.525a3.292,3.292,0,0,0,4.727-.45c.075-.075.075-.075.15-.075,2.926-3.752,6.078-3.151,9.529-.675a28.87,28.87,0,0,0,5.4,2.926c1.651.75,2.026,1.8,1.951,3.527-.15,8.029-.225,15.982-.3,24.011,0,1.276.225,2.551.3,3.827A2.817,2.817,0,0,1,93.091,81.588Zm16.207-4.5c.225.075.525.15.75.225,3-3,6.153-6.153,6.753-10.58.6-4.8.375-9.754.375-14.557a2.425,2.425,0,0,0-.975-1.8c-1.726-1.05-3.527-1.876-5.327-2.776-1.351-.675-1.8-.075-1.876,1.276-.075,6.828-.225,13.581-.225,20.409C108.848,71.908,109.148,74.534,109.3,77.086ZM140.963,53c4.352-.6,5.928-2.626,6.078-8.029.15-4.8-1.5-7.128-6.078-8.029Z" transform="translate(-14.779)"/><path class="a" d="M172.631,115.856c-1.2.6-2.176.975-3,1.5-2.551,1.5-5.027,3-7.654,4.427a3.109,3.109,0,0,1-2.326.075c-2.551-1.2-4.952-2.551-7.8-4.052,10.2-5.027,20.109-9.98,30.239-15.007-.225,7.428-.45,14.557-.75,22.135,1.05-.45,1.8-.675,2.476-1.05,1.951-1.276,3.827-2.626,5.778-3.827.45-.3,1.426-.525,1.8-.225,3.452,2.176,6.753,4.427,10.355,6.828-3.527,2.326-6.828,4.5-10.73,7.053,2.4,1.276,4.127,2.326,5.928,3.151a2.627,2.627,0,0,1,1.651,2.776c-.075,6.378,0,12.756-.075,19.134a2.422,2.422,0,0,0,1.951,2.7c2.1.6,4.127,1.426,6.528,2.251-2.926,2.251-5.553,4.427-8.329,6.453a1.478,1.478,0,0,1-1.351-.15c-2.476-1.2-5.027-2.326-7.353-3.677a2.967,2.967,0,0,1-1.126-2.176c-.075-6.078,0-12.156.075-18.158a3.482,3.482,0,0,0-1.951-3.527c-1.8-.975-3.527-2.026-5.252-3-.225.075-.45.225-.675.3v34.516c-2.626-1.2-4.652-2.1-6.6-3.151-1.5-.75-2.626-.675-3.752.675-1.351,1.651-2.926,3.076-4.352,4.652a1.649,1.649,0,0,1-2.4.45c-1.876-.975-3.827-1.8-5.7-2.776a2.243,2.243,0,0,0-3,.525c-1.876,2.026-3.9,3.9-5.778,5.853a1.4,1.4,0,0,1-2.1.3c-1.5-.9-3.076-1.651-4.577-2.551-1.5-.975-2.626-.9-3.9.525-1.576,1.8-3.527,3.452-5.1,5.252a2.1,2.1,0,0,1-3.151.525c-1.726-.975-3.6-1.726-5.4-2.626a2.293,2.293,0,0,0-2.926.375c-2.026,1.8-4.127,3.452-6.153,5.252a1.739,1.739,0,0,1-2.326.225c-2.026-1.2-4.127-2.326-6.228-3.377A2.469,2.469,0,0,1,106,181.962c.075-4.5.15-9,.075-13.506,0-1.5.9-1.876,1.876-2.476,4.427-2.4,8.854-4.877,13.281-7.353a2.778,2.778,0,0,0,1.876-2.551c0-1.426-.975-1.951-1.951-2.476-3.452-1.576-6.978-3.151-10.43-4.727a19.264,19.264,0,0,1-1.951-.9c3-1.876,5.7-3.677,8.479-5.327a2.1,2.1,0,0,1,1.876.15c4.2,2.476,8.4,4.952,12.456,7.578a3.44,3.44,0,0,1,1.05,2.476c-.075,8.1-.3,16.282-.45,24.386a7.1,7.1,0,0,0,.525,2.626c2.7-2.7,6.378-4.5,6.078-9.229-.15-2.626.15-5.252.075-7.879a3.127,3.127,0,0,1,1.951-3.226c3.6-1.8,7.128-3.677,10.655-5.553a37.083,37.083,0,0,0,3.677-2.251c1.726-1.2,1.651-2.851-.15-3.827-3.151-1.576-6.3-3-9.529-4.427-1.2-.525-2.551-.975-4.277-1.651,3.227-2.026,6-3.827,8.929-5.553.375-.225,1.126.075,1.576.3,4.052,2.4,8.1,4.877,12.231,7.353a2.785,2.785,0,0,1,1.426,2.776c-.15,7.278-.225,14.482-.3,21.76,0,.975.15,1.951.3,3.452,3.076-2.7,6.3-4.877,6.453-8.7.525-15.007.75-30.014,1.126-45.021A19.67,19.67,0,0,0,172.631,115.856ZM156.2,155.4c-1.426.75-2.626,1.5-3.9,2.1-2.7,1.276-4.277,3.076-4.052,6.3.225,3.9.075,7.879.075,11.855.3.075.525.225.825.3,1.426-1.351,2.926-2.776,4.352-4.127a8.089,8.089,0,0,0,2.851-6.078c0-2.851.15-5.7.225-8.629A12.743,12.743,0,0,1,156.2,155.4Zm-40.519,26.862c.225.075.375.225.6.3a43.574,43.574,0,0,0,4.877-4.2,6.046,6.046,0,0,0,1.726-3.527c.3-3.677.3-7.353.375-11.03a11.544,11.544,0,0,0-.375-1.951c-2.4,1.576-4.652,2.926-6.753,4.427-.375.225-.45.975-.45,1.576-.15,4.2-.225,8.479-.3,12.681C115.454,181.136,115.6,181.736,115.679,182.262Zm65.73-46.071c3.377-2.1,6.3-3.9,9.229-5.7v-.675c-2.926-1.426-5.853-2.851-9.229-4.5Z" transform="translate(-26.413 -25.639)"/><path class="a" d="M43.27,112.031c-3.827-2.4-7.278-4.427-10.655-6.678-.45-.3-.45-1.351-.375-2.026.225-6,.6-12.006.825-18.008,0-.825-.075-1.576-.15-2.926-1.5.825-2.7,1.426-3.752,2.1-6.153,3.827-5.252,1.876-5.4,9.454-.225,7.654-.225,15.232-.3,22.886,0,.6-.075,1.2-.15,2.251-1.05-.675-1.876-1.126-2.7-1.651-2.026-1.276-3.977-2.551-6.078-3.677a2.622,2.622,0,0,1-1.426-2.926c.675-9.229,1.351-18.459,1.8-27.688.3-6.678.3-13.356.45-20.034a26.314,26.314,0,0,0-.225-2.776c-1.576,1.276-2.7,2.176-3.752,3.151-3.076,2.626-2.1,2.251-5.4.6C4.1,63.183,2.3,62.208.2,61.157a18.752,18.752,0,0,1,1.726-1.351C11,53.729,20.309,47.651,29.614,41.648a2.922,2.922,0,0,1,2.476-.3c3.677,1.576,7.2,3.452,10.88,5.1A2.129,2.129,0,0,1,44.4,48.7c-.375,20.334-.675,40.594-1.05,60.928A22.619,22.619,0,0,0,43.27,112.031ZM24.136,83.442c3.226-2.026,6.078-3.752,8.779-5.553.375-.225.45-.975.45-1.5.225-5.628.45-11.255.525-16.808.15-5.478.075-5.478-4.8-7.8-1.2-.6-2.251-.6-3,.45a5.008,5.008,0,0,0-1.05,2.626q-.563,11.593-.9,23.186C24.061,79.616,24.136,81.191,24.136,83.442Z" transform="translate(0 -10.259)"/><path class="a" d="M62.183,146.07c-2.176,1.576-4.052,2.776-5.7,4.127a2.288,2.288,0,0,1-3.3.15c-2.251-1.5-4.727-2.776-7.278-4.277a18.86,18.86,0,0,1,1.576-1.05q15.42-9.229,30.914-18.308a2.386,2.386,0,0,1,2.026-.075q4.164,1.8,8.1,3.827a2.366,2.366,0,0,1,1.05,1.651c-.075,12.006-.3,24.011-.525,35.942a3.359,3.359,0,0,1-1.426,2.326c-4.5,2.926-9.079,5.7-13.731,8.479a3.538,3.538,0,0,0-2.1,3.527c.075,7.654.075,15.232.075,22.886v2.4c-2.626-1.651-4.877-3.3-7.353-4.577-2.851-1.426-3.6-3.227-3.452-6.528.75-15.907.975-31.815,1.351-47.722C62.408,148.171,62.258,147.421,62.183,146.07Zm9.679,28.963c.225.15.375.225.6.375a61.43,61.43,0,0,0,5.778-4.052,4.141,4.141,0,0,0,1.351-2.926c.225-9.6.3-19.209.45-28.813,0-.525-.075-1.351-.375-1.5-1.2-.75-2.776-1.951-3.827-1.651-1.651.525-3.452,1.576-3.452,4.052-.15,10.655-.375,21.31-.6,32.04A9.134,9.134,0,0,0,71.862,175.034Z" transform="translate(-11.409 -31.543)"/><path class="a" d="M202.032,76.724c-3.377-1.5-6.3-2.7-9.229-4.127-.45-.225-.675-1.276-.675-1.876.15-6.3.45-12.606.675-18.909.075-2.7-.075-5.4.075-8.029a3.9,3.9,0,0,0-2.551-4.277c-1.05-.525-2.026-1.126-3.227-1.8,2.776-1.726,5.327-3.377,8.029-4.952a2.411,2.411,0,0,1,1.876.225c1.276.675,2.476,1.426,3.677,2.176a2.065,2.065,0,0,0,2.7-.225c1.576-1.276,3.227-3.226,4.952-3.377,1.651-.15,3.452,1.726,5.252,2.551,1.576.75,3.226,1.351,4.727,1.951.225-.225.375-.375.375-.45-.3-2.776,1.426-3.977,3.527-5.252,2.551-1.576,4.877-3.452,7.353-5.1a5.131,5.131,0,0,1,2.176-.45c.225,0,.45.225.675.3,3.977,1.8,7.954,3.677,12.231,5.628-2.476,1.8-4.727,3.527-6.978,5.177-2.326,1.726-2.326,1.726-4.652,0a39.624,39.624,0,0,0-4.727-3.076,98.633,98.633,0,0,0-.45,13.506c5.327-2.776,10.2-5.252,15.232-7.8.075.75.15,1.276.15,1.8,0,6.153-.075,12.231-.075,18.383a3.332,3.332,0,0,1-1.5,3c-4.2,3.076-8.4,6.3-12.606,9.454-.45.3-1.426.6-1.8.375-3.9-2.476-7.729-5.1-11.78-7.8,2.626-2.4,5.1-4.652,7.579-6.9,3.527,2.926,6.978,5.778,10.43,8.554a2.631,2.631,0,0,1,.6-.375c.975-6,.675-12.081.675-18.609-5.778,2.251-10.58,5.628-16.057,8.4V38.831c-.15-.075-.3-.225-.45-.3-1.2.975-2.476,1.951-3.677,3-1.426,1.2-2.776,3.151-4.352,3.3-1.426.15-3-1.651-4.5-2.626a19.547,19.547,0,0,0-2.1-1.276c-1.5-.825-2.026-.525-2.1,1.2-.075,3.977-.225,8.029-.15,12.006.075,6.828.3,13.581.525,20.409A8.3,8.3,0,0,1,202.032,76.724Z" transform="translate(-46.66 -6.166)"/><path class="a" d="M327.61,5.9c3.151,1.8,6.228,3.527,9.3,5.177,1.5.75.975,1.951.975,3.076-.15,8.4-.225,16.883-.45,25.287a2.923,2.923,0,0,0,2.176,3.226c1.8.525,3.527,1.126,5.553,1.726a4.9,4.9,0,0,1-.825.9c-2.476,1.8-4.877,3.677-7.428,5.4a2.372,2.372,0,0,1-2.026.075c-1.8-.825-3.527-1.876-5.328-2.7a2.338,2.338,0,0,1-1.5-2.626c.15-8.4.3-16.883.375-25.287,0-1.876-3.677-5.553-5.553-5.4-.375,0-.9.975-.975,1.576-.225,3.752-.45,7.5-.45,11.255-.075,7.8-.075,15.607-.075,23.411,0,.525-.075,1.05-.15,1.951-3.151-1.576-6.153-2.926-9-4.577-.525-.3-.6-1.8-.6-2.7.15-3.827.525-7.578.675-11.405.225-4.8.3-9.6.525-14.407a3,3,0,0,0-1.951-3.377c-1.426-.525-2.851-1.276-4.577-2.1a57.788,57.788,0,0,0,5.628-4.2c1.8-1.651,3.452-1.951,5.4-.45,2.026,1.576,3.9,1.276,5.853-.375C324.533,8.151,326.109,7.1,327.61,5.9Z" transform="translate(-76.419 -1.448)"/><path class="a" d="M270.022,39.3c0-3.977.075-8.7,0-13.431a2.984,2.984,0,0,1,1.726-2.926c4.127-2.326,8.179-4.8,12.306-7.128a2.557,2.557,0,0,1,2.1-.075c3.076,1.426,6,3.076,9.079,4.5a2.247,2.247,0,0,1,1.5,2.251c-.15,9.154-.3,18.383-.45,27.538a2.906,2.906,0,0,1-.975,2.026c-4.652,3.377-9.3,6.753-14.031,9.98a2.459,2.459,0,0,1-2.176.075c-2.776-1.5-5.478-3.227-8.254-4.8a2.417,2.417,0,0,1-1.351-2.551C269.647,49.8,269.8,45,270.022,39.3Zm9.229,0h-.3V54.829c0,1.951.6,2.251,2.1,1.276a34.1,34.1,0,0,0,4.2-3.151,5.827,5.827,0,0,0,1.8-3.226c.375-7.578.525-15.082.675-22.66a2.936,2.936,0,0,0-1.426-2.1,39.08,39.08,0,0,0-5.027-2.476c-1.651-.75-1.951-.6-1.951,1.276C279.251,28.943,279.251,34.12,279.251,39.3Z" transform="translate(-67.229 -3.856)"/><path class="a" d="M44.339,211.709a47.046,47.046,0,0,0-.075-7.278c-.525-3.977.825-6.6,4.577-8.254,2.1-.9,3.827-2.476,6.153-3.977v4.427c-.075,2.551-.15,5.1-.375,7.654a2.412,2.412,0,0,1-.75,1.576c-2.926,1.951-5.853,3.827-8.779,5.7C44.939,211.709,44.714,211.634,44.339,211.709Z" transform="translate(-10.973 -47.958)"/></g></svg>