<svg xmlns="http://www.w3.org/2000/svg" viewBox="0 0 238.52 108.43"><defs><style>.cls-1{fill:#fff;}</style></defs><title>heard</title><g id="Layer_2" data-name="Layer 2"><g id="Layer_2-2" data-name="Layer 2"><path class="cls-1" d="M233.7,43.4s2.84,1.15.34,7.57c-3,7.62-13,6.14-11.38-6.35,2-15.32,7.11-30.46,8.44-36.64S221,0,221,0s1.71,1.56.93,6.23-3.77,18-3.77,18-12.3-2.68-19.55,10.45c-7,12.64-1.86,20.82-1.86,20.82S190,69.76,187.76,59.8c-2-9,7.68-26,4.77-30a9,9,0,0,0-8.4-3.65s1.36,3.19-1.19,7.71l-10.17,1.22s1.58-1.89.5-2.36c-1.27-.55-6.33-.18-9.11.14-2.61.31,1.08,7,5.39,10.18,0,0,.12,16.65-3.73,24.91-3.58,7.65-7.65,4.18-7.89-2.89s6.55-21.32,3.5-24.34-8.06-4.59-8.06-4.59a6.05,6.05,0,0,1,.51,2.49s-6.1-4.3-15,2.22-10.24,18.61-8.29,27.24c0,0-5.55,10.17-14.78,11.72-8.27,1.39-9.65-9-9.65-9S118.9,67.54,123.5,57s-2.48-15.51-10.56-13c-8.24,2.51-13.44,14.26-12.81,24.44a54.57,54.57,0,0,1-10.07,1.21C91,64.9,92.22,59.36,93.8,53.47c4-14.87,5.44-17.7,1.71-19.82a23.28,23.28,0,0,0-8.25-2.51A3.7,3.7,0,0,1,88,34.7c-.47,1.79-4.15,22.06-5.56,34.23a30.86,30.86,0,0,1-8.93-3.37c5-19.64,10-47,9.82-50.32-.25-4-9.5-5.11-9.5-5.11C74.41,11.4,70.92,31,66.18,58c-.15.85-.31,1.68-.47,2.49C62.06,58,41.83,44.33,25.3,48.42S-2.59,66.92.51,83.22c2.79,14.65,14.09,26.27,32,25.13,18.17-1.16,32.15-13.68,37.9-31.88.58-1.86,1.19-3.94,1.8-6.17a30.69,30.69,0,0,0,9.75,3c-.09,1.2-.13,2.22-.12,3,.17,7.76-.27,8.74,1.94,9.8a15.44,15.44,0,0,0,4.65,1.3A17.7,17.7,0,0,1,88,83.24a83.74,83.74,0,0,1,1.3-9.48,58.5,58.5,0,0,0,11.39-1.37c1,4,3.8,11,11.85,11.74,10.76,1.05,19.31-13.35,19.31-13.35s3.06,6.79,9.63,6.27c7.6-.61,10.78-7.52,10.78-7.52s4.32,9.19,10.91,5.75c8.44-4.41,10.13-31.78,10.13-31.78s2.47.18,8.29-1.88c0,0-3.47,17.73,2.67,23.93s11.77-1.9,14-7.21c0,0,7.93,10.69,20.61-1.12,2.94,6.4,17.78,6,19.49-4.88C239.67,43.73,233.7,43.4,233.7,43.4ZM33.09,99.21c-20-.41-26.62-22.67-15-35.35,15.31-16.75,39.55-1.29,46.31,2.64C58.88,88.05,48.35,99.52,33.09,99.21Zm76.08-43.79c3.16-4.94,9.89-6.44,8.59,1.24-1.17,7-11.82,10.07-11.82,10.07S106,60.35,109.17,55.42Zm42,11.84c-7,10.47-14.44,6.33-16-.18s.27-14.5,5.94-18.93c5.34-4.17,10.72-.24,10.72-.24C149.5,60.66,151.2,67.26,151.2,67.26Zm51.72-9.72c-4.26-4.63-3.53-14.18,2.38-20.51a12.24,12.24,0,0,1,11.88-3.61c-2.42,13,.29,21.13.29,21.13C214.67,59,207,61.92,202.92,57.54Z"/></g></g></svg>