<?xml version="1.0" standalone="no"?>
<!DOCTYPE svg PUBLIC "-//W3C//DTD SVG 20010904//EN"
 "http://www.w3.org/TR/2001/REC-SVG-20010904/DTD/svg10.dtd">
<svg version="1.0" xmlns="http://www.w3.org/2000/svg"
 width="800.000000pt" height="800.000000pt" viewBox="0 0 800.000000 800.000000"
 preserveAspectRatio="xMidYMid meet">
<metadata>
Created by potrace 1.11, written by Peter Selinger 2001-2013
</metadata>
<g transform="translate(0.000000,800.000000) scale(0.100000,-0.100000)"
fill="#000000" stroke="none">
<path d="M4355 6587 c-11 -8 -65 -38 -120 -67 -55 -29 -147 -78 -205 -110 -58
-31 -148 -80 -200 -107 -52 -28 -174 -93 -270 -145 -96 -52 -215 -116 -265
-142 -155 -82 -215 -120 -221 -139 -3 -10 -7 -118 -9 -240 -3 -187 -6 -236
-14 -265 -1 -1 -43 20 -95 48 -51 27 -103 50 -115 50 -13 0 -66 -28 -119 -63
-53 -35 -110 -71 -125 -81 -49 -31 -54 -59 -56 -331 -3 -533 -7 -562 -95 -680
-81 -108 -105 -132 -115 -115 -6 8 -9 184 -7 440 2 295 0 431 -8 443 -6 10
-45 36 -87 57 -42 22 -97 53 -122 70 -26 17 -67 38 -93 47 -60 20 -108 7 -166
-48 -24 -22 -54 -45 -68 -51 -27 -10 -90 -2 -90 12 0 14 -75 33 -103 27 -13
-4 -53 -28 -88 -55 -35 -26 -82 -61 -103 -77 l-39 -28 81 -38 c93 -43 111 -67
107 -144 -2 -27 -6 -144 -10 -260 -6 -215 -13 -376 -19 -500 -2 -38 0 -78 5
-88 11 -20 266 -151 272 -139 3 4 4 131 4 282 0 354 16 871 28 891 4 5 14 9
23 8 29 -1 176 -93 188 -117 11 -22 11 -98 0 -582 -2 -96 1 -183 5 -192 8 -15
266 -148 287 -148 13 0 64 59 136 157 37 51 76 95 86 98 13 4 57 -14 129 -54
60 -34 119 -61 131 -61 15 0 58 37 130 111 88 91 112 110 129 104 11 -3 69
-30 127 -60 75 -38 112 -51 123 -45 9 4 52 48 96 97 119 132 132 143 154 143
12 0 72 -29 134 -64 196 -111 242 -134 257 -128 13 4 240 228 240 236 0 1 -6
3 -12 3 -23 0 -200 44 -282 70 -107 34 -135 49 -147 81 -12 30 -15 147 -5 179
4 12 78 62 196 133 214 128 207 119 210 250 7 223 4 270 -16 296 -26 35 -212
143 -247 144 -17 0 -62 -22 -120 -58 -51 -32 -123 -76 -162 -97 -89 -49 -113
-71 -120 -109 -2 -17 -6 -202 -8 -411 l-3 -380 -25 -55 c-33 -70 -116 -171
-135 -163 -7 3 -13 15 -13 26 0 12 0 144 0 292 2 722 5 869 23 902 22 44 57
68 231 158 83 43 177 92 210 110 33 18 114 60 180 95 66 35 143 75 170 90 28
15 91 48 141 74 50 25 99 55 109 66 15 17 18 44 21 190 4 180 2 186 -41 157z
m-510 -1108 c22 -10 51 -35 65 -56 23 -33 25 -46 25 -142 -1 -123 -14 -164
-68 -205 -19 -15 -51 -30 -70 -33 l-35 -5 -1 237 -1 236 23 -6 c12 -4 40 -15
62 -26z m-895 -325 c66 -33 94 -53 101 -71 10 -27 5 -411 -7 -473 -13 -71 -76
-171 -162 -257 -37 -38 -47 -40 -58 -15 -10 22 -13 814 -2 841 4 12 14 21 22
21 8 0 55 -21 106 -46z"/>
<path d="M7400 6425 c-143 -113 -172 -121 -245 -72 -63 43 -98 37 -181 -29
-38 -30 -86 -65 -106 -77 -21 -12 -38 -24 -38 -27 0 -3 35 -20 78 -39 120 -53
115 -40 107 -276 -9 -276 -12 -338 -19 -430 -11 -130 -11 -244 0 -255 13 -13
268 -140 272 -135 3 2 6 212 8 467 3 255 6 486 8 513 3 28 5 64 5 81 1 16 7
39 15 50 15 19 16 19 60 -5 78 -40 125 -117 118 -191 0 -3 -3 -169 -7 -369 -5
-333 -4 -365 11 -382 24 -26 188 -109 216 -109 21 0 201 122 255 172 l23 22
-62 18 c-121 36 -145 48 -157 76 -8 19 -10 124 -6 357 3 182 7 369 7 418 1 48
-2 91 -8 96 -10 11 -204 121 -211 121 -3 0 -17 8 -31 18 -47 32 -55 31 -112
-13z"/>
<path d="M6370 6209 c-47 -27 -92 -53 -100 -59 -8 -5 -58 -34 -111 -65 -53
-31 -104 -64 -114 -75 -15 -17 -17 -51 -20 -312 -3 -260 -11 -522 -19 -600 -2
-15 3 -36 10 -46 19 -27 279 -174 307 -174 18 0 230 137 292 189 6 4 44 33 86
63 43 30 82 63 89 73 10 17 13 101 22 719 3 156 2 168 -16 181 -39 29 -286
148 -314 151 -19 3 -53 -11 -112 -45z m55 -188 c125 -60 125 -59 120 -259 -8
-337 -17 -525 -25 -546 -14 -38 -58 -82 -130 -131 -110 -76 -104 -110 -95 470
4 269 9 493 12 498 8 14 36 7 118 -32z"/>
<path d="M5325 5961 c-180 -124 -194 -137 -203 -191 -6 -31 -13 -44 -23 -42
-35 6 -149 59 -201 93 -51 32 -62 36 -93 29 -38 -9 -46 -13 -118 -77 -59 -52
-61 -51 -182 22 -65 39 -61 41 -288 -102 l-39 -24 59 -29 c116 -57 115 -54
113 -308 -1 -114 -3 -236 -5 -272 -15 -319 -15 -388 3 -409 18 -22 259 -134
272 -126 4 2 5 71 2 152 -11 289 -8 891 4 903 16 16 63 -6 141 -63 81 -60 103
-65 145 -36 18 13 42 33 53 44 59 60 144 125 150 114 4 -6 7 -114 7 -240 -1
-126 1 -229 3 -229 3 0 37 19 182 101 80 46 267 139 278 139 9 0 11 -57 10
-217 -3 -284 -13 -353 -47 -326 -7 5 -77 62 -155 126 l-141 116 -31 -27 c-17
-15 -66 -58 -110 -97 -44 -38 -80 -73 -80 -76 -1 -4 18 -19 42 -35 23 -16 44
-32 45 -36 2 -5 7 -8 12 -8 5 0 63 -36 130 -81 94 -62 126 -79 143 -73 34 10
414 296 428 322 10 17 13 101 14 323 0 165 -3 305 -6 311 -5 7 -36 -4 -91 -32
-45 -24 -143 -74 -215 -111 -73 -38 -135 -69 -139 -69 -9 0 1 378 9 387 4 4
48 -21 97 -55 50 -34 101 -62 114 -62 13 0 39 12 58 28 19 15 46 35 59 45 109
79 149 110 149 115 -1 13 -366 172 -395 172 -22 0 -67 -25 -160 -89z"/>
<path d="M893 5666 c-22 -13 -53 -32 -69 -44 -26 -18 -182 -120 -343 -222 -30
-19 -144 -94 -254 -166 -192 -126 -199 -132 -176 -145 243 -130 238 -129 308
-63 20 18 50 43 66 55 17 13 33 28 37 34 4 5 8 8 9 5 0 -3 2 -14 5 -25 11 -52
-2 -605 -20 -860 -3 -38 -8 -115 -11 -170 -3 -55 -7 -122 -10 -150 -2 -27 -7
-93 -10 -145 -4 -52 -8 -108 -10 -125 -7 -59 13 -80 159 -170 77 -47 141 -83
143 -81 3 2 7 159 9 348 7 552 8 556 30 578 28 27 243 150 248 142 5 -8 1
-173 -8 -327 -18 -310 -17 -323 3 -342 25 -23 302 -196 306 -191 2 2 7 168 10
368 3 201 8 466 10 590 16 901 16 932 3 947 -11 13 -240 129 -328 165 -43 18
-66 17 -107 -6z m36 -311 c25 -13 57 -33 71 -44 l25 -20 -1 -213 c-1 -279 -9
-455 -23 -471 -6 -8 -57 -42 -113 -77 -57 -35 -113 -70 -125 -78 l-23 -14 5
178 c12 453 23 678 34 707 5 12 18 32 30 44 25 26 52 23 120 -12z"/>
<path d="M4540 4280 c-41 -22 -238 -120 -437 -219 l-363 -179 63 -35 c122 -68
182 -94 206 -90 30 4 44 11 200 101 69 40 131 72 138 72 15 0 12 -280 -12
-1170 -7 -292 -9 -296 -108 -394 -69 -68 -81 -77 -89 -62 -6 11 -8 157 -5 384
2 214 0 376 -5 387 -8 17 -140 105 -243 161 -11 6 -49 29 -85 50 -36 22 -73
43 -84 47 -14 5 -55 -15 -152 -75 -73 -45 -131 -85 -129 -89 3 -4 17 -10 31
-13 28 -7 153 -62 302 -132 64 -30 95 -51 101 -66 20 -56 -22 -87 -344 -254
-158 -82 -165 -89 -166 -156 -5 -349 1 -327 -108 -431 -68 -65 -72 -67 -80
-45 -5 13 -7 106 -6 208 8 466 8 587 1 608 -8 25 -21 33 -246 169 -85 51 -165
93 -178 93 -12 0 -79 -36 -149 -80 l-126 -79 44 -19 c152 -66 347 -157 362
-170 25 -22 22 -74 -5 -99 -13 -11 -61 -41 -108 -66 -219 -117 -353 -195 -361
-210 -6 -9 -10 -119 -11 -243 l-2 -227 34 -29 c19 -15 40 -28 46 -28 7 0 47
-20 88 -45 42 -25 84 -45 94 -45 16 0 71 41 147 109 56 50 102 81 119 81 10 0
65 -22 122 -50 57 -28 112 -50 122 -50 10 0 63 45 117 101 55 55 108 105 118
110 24 13 45 6 151 -52 49 -27 91 -49 93 -49 3 0 56 50 118 110 68 66 121 110
133 110 11 0 65 -22 121 -50 56 -28 109 -50 119 -50 10 0 60 43 110 95 65 67
99 95 116 95 13 0 71 -23 131 -51 59 -28 110 -48 113 -45 3 4 6 231 6 505 1
275 4 502 8 506 8 8 167 -78 198 -107 11 -10 20 -31 21 -46 0 -15 1 -156 2
-313 2 -238 5 -289 17 -304 20 -24 251 -136 268 -130 8 3 67 46 133 97 74 58
114 95 106 99 -6 4 -55 21 -107 38 -52 18 -102 40 -111 51 -14 17 -16 57 -15
327 1 228 -2 315 -11 334 -7 15 -32 36 -57 48 -24 12 -69 36 -101 52 l-57 31
59 39 c32 21 65 43 73 49 8 5 49 32 90 60 41 27 79 52 85 54 12 5 -6 18 -172
128 -73 47 -140 85 -148 84 -9 -1 -62 -32 -118 -68 -56 -37 -114 -71 -130 -77
l-27 -11 4 108 c13 286 17 542 9 541 -4 0 -42 -18 -83 -39z m214 -691 c69 -33
128 -64 131 -69 4 -6 -255 -180 -268 -180 -2 0 -4 70 -4 155 -1 85 2 155 7
155 4 0 65 -27 134 -61z m-883 -846 c1 -10 0 -85 -1 -168 -1 -133 -4 -156 -24
-200 -26 -55 -181 -216 -201 -209 -18 7 -18 398 0 441 17 41 49 68 133 114 77
43 92 46 93 22z m-979 -196 c10 -54 -5 -359 -20 -397 -16 -41 -161 -179 -189
-180 -16 0 -23 59 -18 160 2 47 4 133 5 191 1 59 5 111 9 117 9 14 184 131
197 131 7 1 14 -9 16 -22z"/>
<path d="M2010 3787 c-34 -18 -184 -106 -355 -207 -77 -46 -198 -117 -268
-159 -70 -42 -140 -84 -155 -93 -15 -9 -49 -29 -76 -43 -27 -15 -62 -36 -78
-48 -32 -24 -33 -22 62 -74 30 -16 78 -44 106 -61 28 -18 58 -32 65 -32 8 0
57 31 109 70 52 38 98 70 101 70 12 0 15 -43 13 -150 -12 -589 -17 -791 -30
-1130 -13 -343 -15 -337 146 -430 41 -24 94 -56 117 -72 23 -15 44 -28 46 -28
3 0 5 177 4 394 -1 372 0 396 17 415 11 12 117 80 236 153 119 73 225 144 236
158 21 28 19 -16 29 658 6 440 6 465 -12 484 -18 20 -173 98 -247 124 -46 17
-36 17 -66 1z m-2 -310 c18 -11 36 -27 41 -36 8 -15 7 -246 -3 -707 -4 -228
-8 -242 -78 -290 -24 -16 -44 -32 -46 -36 -2 -5 -8 -8 -14 -8 -5 0 -24 -11
-42 -25 -61 -46 -59 -91 -41 754 5 221 9 290 21 312 14 27 44 51 72 55 8 1 16
5 19 8 6 6 29 -3 71 -27z"/>
<path d="M1255 2290 c-38 -28 -85 -55 -102 -62 -18 -7 -33 -16 -33 -20 0 -4
-6 -8 -13 -8 -15 0 -59 -44 -78 -80 -20 -35 -20 -350 -1 -350 19 0 268 162
282 183 10 17 28 388 19 387 -2 -1 -35 -23 -74 -50z"/>
</g>
</svg>
