<svg xmlns="http://www.w3.org/2000/svg" viewBox="0 0 166.302 109.01"><defs><style>.a{fill:#fff;}</style></defs><g transform="translate(-0.2 -0.1)"><path class="a" d="M80.263,50.562c1.766-2.091,3.81-4.089,3.95-7.063.186-4.786.186-9.618.186-14.4a2.374,2.374,0,0,1,1.3-2.416c1.487-.836,2.834-1.905,4.275-2.788a1.79,1.79,0,0,1,1.3-.046c1.208.558,2.37,1.255,3.764,2.045a18.288,18.288,0,0,0,.232-1.859c.046-2.649.093-5.344.093-7.992a1.5,1.5,0,0,1,.883-1.58Q109.491,7.349,122.733.193A2.616,2.616,0,0,1,123.2.1a3.01,3.01,0,0,1,.093.883c-.046,1.812-.139,3.624-.139,5.437a1.722,1.722,0,0,1-1.162,1.766c-6.459,3.392-12.825,6.831-19.283,10.176a3.288,3.288,0,0,0-2.091,3.3c0,7.2-.139,14.4-.232,21.607a23.727,23.727,0,0,0,.186,2.463,3.286,3.286,0,0,0,.558-.093c1.58-1.626,3.02-3.346,3.02-5.808,0-4.832.139-9.665.093-14.5a2.377,2.377,0,0,1,1.394-2.463c2.045-1.069,4.043-2.323,5.994-3.578a1.744,1.744,0,0,1,2.091-.046c1.208.743,2.509,1.348,3.717,2.184a2.253,2.253,0,0,1,.883,1.44c.046,2.323-.046,4.647-.093,6.97a1.815,1.815,0,0,1-1.069,1.673c-2.137,1.208-4.228,2.556-6.412,3.764a2.065,2.065,0,0,0-1.162,2.045c0,3.16,0,3.346,3.067,4.368,2.091.7,4.228,1.069,6.459,1.626a11.578,11.578,0,0,0-1.115,1.069c-1.115,1.115-2.277,2.23-3.346,3.392a1.081,1.081,0,0,1-1.58.232c-2.091-1.208-4.182-2.323-6.273-3.531a1.409,1.409,0,0,0-2.091.325c-1.115,1.3-2.323,2.509-3.392,3.81a1.27,1.27,0,0,1-1.952.372c-1.069-.651-2.23-1.115-3.3-1.719a1.313,1.313,0,0,0-1.905.325c-1.069,1.162-2.277,2.23-3.3,3.439-.6.743-1.115.7-1.859.232-1.162-.7-2.37-1.255-3.578-1.952a1.087,1.087,0,0,0-1.719.372c-.929,1.3-1.952,2.509-2.834,3.81-.6.929-1.115,1.162-2.137.558a33.264,33.264,0,0,0-4.089-2,1.491,1.491,0,0,1-1.022-1.673c.093-4.74.139-9.433.279-14.172a1.962,1.962,0,0,0-1.162-2.045c-.836-.418-1.626-.883-2.463-1.348s-1.208-.186-1.208.743c-.139,3.624-.325,7.249-.372,10.92-.093,3.81,0,7.667-.046,11.477v1.533a4.691,4.691,0,0,1-.976-.325C66.509,56.6,65.394,56,64.279,55.441c-1.673-.883-1.58-.836-1.487-2.7.279-5.669.465-11.384.6-17.053a1.846,1.846,0,0,0-.836-1.3,25.416,25.416,0,0,0-3.16-1.44A36.763,36.763,0,0,0,62.838,30.4c1.115-1.069,2.137-1.3,3.439-.325a2.038,2.038,0,0,0,2.927-.279c.046-.046.046-.046.093-.046,1.812-2.323,3.764-1.952,5.9-.418a17.879,17.879,0,0,0,3.346,1.812,1.922,1.922,0,0,1,1.208,2.184c-.093,4.972-.139,9.9-.186,14.869,0,.79.139,1.58.186,2.37A1.745,1.745,0,0,1,80.263,50.562ZM90.3,47.774c.139.046.325.093.465.139,1.859-1.859,3.81-3.81,4.182-6.552a73.01,73.01,0,0,0,.232-9.014,1.5,1.5,0,0,0-.6-1.115c-1.069-.651-2.184-1.162-3.3-1.719-.836-.418-1.115-.046-1.162.79-.046,4.228-.139,8.41-.139,12.639C90.021,44.568,90.207,46.194,90.3,47.774Zm19.609-14.916c2.7-.372,3.671-1.626,3.764-4.972.093-2.974-.929-4.414-3.764-4.972Z" transform="translate(-31.692)"/><path class="a" d="M147.262,110.885c-.743.372-1.348.6-1.859.929-1.58.929-3.113,1.859-4.74,2.742a1.925,1.925,0,0,1-1.44.046c-1.58-.743-3.067-1.58-4.832-2.509,6.319-3.113,12.453-6.18,18.726-9.293-.139,4.6-.279,9.014-.465,13.708.651-.279,1.115-.418,1.533-.651,1.208-.79,2.37-1.626,3.578-2.37.279-.186.883-.325,1.115-.139,2.137,1.348,4.182,2.742,6.412,4.228-2.184,1.44-4.228,2.788-6.645,4.368,1.487.79,2.556,1.44,3.671,1.952a1.627,1.627,0,0,1,1.022,1.719c-.046,3.95,0,7.9-.046,11.849a1.5,1.5,0,0,0,1.208,1.673c1.3.372,2.556.883,4.043,1.394-1.812,1.394-3.438,2.741-5.158,4a.915.915,0,0,1-.836-.093c-1.533-.743-3.113-1.44-4.554-2.277a1.837,1.837,0,0,1-.7-1.348c-.046-3.764,0-7.528.046-11.245a2.157,2.157,0,0,0-1.208-2.184c-1.115-.6-2.184-1.255-3.253-1.859-.139.046-.279.139-.418.186v21.374c-1.626-.743-2.881-1.3-4.089-1.952a1.653,1.653,0,0,0-2.323.418c-.836,1.022-1.812,1.905-2.7,2.881a1.021,1.021,0,0,1-1.487.279c-1.162-.6-2.37-1.115-3.531-1.719a1.389,1.389,0,0,0-1.859.325c-1.162,1.255-2.416,2.416-3.578,3.624a.868.868,0,0,1-1.3.186c-.929-.558-1.905-1.022-2.834-1.58a1.607,1.607,0,0,0-2.416.325c-.976,1.115-2.184,2.137-3.16,3.253a1.3,1.3,0,0,1-1.952.325c-1.069-.6-2.23-1.069-3.346-1.626a1.42,1.42,0,0,0-1.812.232c-1.255,1.115-2.556,2.137-3.81,3.253a1.077,1.077,0,0,1-1.44.139c-1.255-.743-2.556-1.44-3.857-2.091a1.529,1.529,0,0,1-.976-1.533c.046-2.788.093-5.576.046-8.364,0-.929.558-1.162,1.162-1.533,2.742-1.487,5.483-3.02,8.225-4.554a1.721,1.721,0,0,0,1.162-1.58c0-.883-.6-1.208-1.208-1.533-2.137-.976-4.321-1.952-6.459-2.927a11.936,11.936,0,0,1-1.208-.558c1.859-1.162,3.531-2.277,5.251-3.3a1.3,1.3,0,0,1,1.162.093c2.6,1.533,5.2,3.067,7.713,4.693a2.13,2.13,0,0,1,.651,1.533c-.046,5.018-.186,10.083-.279,15.1a4.4,4.4,0,0,0,.325,1.626c1.673-1.673,3.95-2.788,3.764-5.715-.093-1.626.093-3.253.046-4.879a1.936,1.936,0,0,1,1.208-2c2.23-1.115,4.414-2.277,6.6-3.439a22.968,22.968,0,0,0,2.277-1.394c1.069-.743,1.022-1.766-.093-2.37-1.952-.976-3.9-1.859-5.9-2.742-.743-.325-1.58-.6-2.649-1.022,2-1.255,3.717-2.37,5.529-3.438.232-.139.7.046.976.186,2.509,1.487,5.018,3.02,7.574,4.554a1.724,1.724,0,0,1,.883,1.719c-.093,4.507-.139,8.968-.186,13.475,0,.6.093,1.208.186,2.137,1.905-1.673,3.9-3.02,4-5.39.325-9.293.465-18.586.7-27.88A12.186,12.186,0,0,0,147.262,110.885Zm-10.176,24.488c-.883.465-1.626.929-2.416,1.3-1.673.79-2.649,1.905-2.509,3.9.139,2.416.046,4.879.046,7.342.186.046.325.139.511.186l2.7-2.556a5.009,5.009,0,0,0,1.766-3.764c0-1.766.093-3.531.139-5.344A7.89,7.89,0,0,1,137.086,135.373Zm-25.092,16.635c.139.046.232.139.372.186a26.983,26.983,0,0,0,3.02-2.6,3.744,3.744,0,0,0,1.069-2.184c.186-2.277.186-4.554.232-6.831a7.149,7.149,0,0,0-.232-1.208c-1.487.976-2.881,1.812-4.182,2.742-.232.139-.279.6-.279.976-.093,2.6-.139,5.251-.186,7.853C111.855,151.311,111.948,151.682,111.994,152.008Zm40.7-28.53c2.091-1.3,3.9-2.416,5.715-3.531v-.418c-1.812-.883-3.624-1.766-5.715-2.788Z" transform="translate(-56.639 -54.979)"/><path class="a" d="M26.872,85.06c-2.37-1.487-4.507-2.742-6.6-4.135-.279-.186-.279-.836-.232-1.255.139-3.717.372-7.435.511-11.152,0-.511-.046-.976-.093-1.812-.929.511-1.673.883-2.323,1.3-3.81,2.37-3.253,1.162-3.346,5.855-.139,4.74-.139,9.433-.186,14.172,0,.372-.046.743-.093,1.394-.651-.418-1.162-.7-1.673-1.022-1.255-.79-2.463-1.58-3.764-2.277a1.624,1.624,0,0,1-.883-1.812C8.61,78.6,9.029,72.886,9.307,67.17c.186-4.135.186-8.271.279-12.406a16.3,16.3,0,0,0-.139-1.719c-.976.79-1.673,1.348-2.323,1.952-1.905,1.626-1.3,1.394-3.346.372C2.616,54.81,1.5,54.206.2,53.556a11.613,11.613,0,0,1,1.069-.836c5.622-3.764,11.384-7.528,17.146-11.245a1.809,1.809,0,0,1,1.533-.186c2.277.976,4.461,2.137,6.738,3.16a1.319,1.319,0,0,1,.883,1.394c-.232,12.592-.418,25.138-.651,37.731A14.006,14.006,0,0,0,26.872,85.06Zm-11.849-17.7c2-1.255,3.764-2.323,5.437-3.438.232-.139.279-.6.279-.929.139-3.485.279-6.97.325-10.408.093-3.392.046-3.392-2.974-4.832-.743-.372-1.394-.372-1.859.279a3.1,3.1,0,0,0-.651,1.626q-.348,7.179-.558,14.358C14.976,64.986,15.023,65.962,15.023,67.356Z" transform="translate(0 -21.998)"/><path class="a" d="M55.983,138.6c-1.348.976-2.509,1.719-3.531,2.556a1.417,1.417,0,0,1-2.045.093c-1.394-.929-2.927-1.719-4.507-2.649a11.678,11.678,0,0,1,.976-.651q9.549-5.715,19.144-11.338a1.477,1.477,0,0,1,1.255-.046q2.579,1.115,5.018,2.37a1.465,1.465,0,0,1,.651,1.022c-.046,7.435-.186,14.869-.325,22.257a2.08,2.08,0,0,1-.883,1.44c-2.788,1.812-5.622,3.531-8.5,5.251a2.191,2.191,0,0,0-1.3,2.184c.046,4.74.046,9.433.046,14.172v1.487c-1.626-1.022-3.02-2.045-4.554-2.834-1.766-.883-2.23-2-2.137-4.043.465-9.851.6-19.7.836-29.553C56.123,139.9,56.03,139.435,55.983,138.6Zm5.994,17.936c.139.093.232.139.372.232a38.038,38.038,0,0,0,3.578-2.509,2.565,2.565,0,0,0,.836-1.812c.139-5.948.186-11.9.279-17.843,0-.325-.046-.836-.232-.929-.743-.465-1.719-1.208-2.37-1.022A2.606,2.606,0,0,0,62.3,135.16c-.093,6.6-.232,13.2-.372,19.841A5.656,5.656,0,0,0,61.977,156.534Z" transform="translate(-24.465 -67.637)"/><path class="a" d="M196.347,56.955c-2.091-.929-3.9-1.673-5.715-2.556-.279-.139-.418-.79-.418-1.162.093-3.9.279-7.806.418-11.709.046-1.673-.046-3.346.046-4.972a2.417,2.417,0,0,0-1.58-2.649c-.651-.325-1.255-.7-2-1.115,1.719-1.069,3.3-2.091,4.972-3.067a1.493,1.493,0,0,1,1.162.139c.79.418,1.533.883,2.277,1.348a1.279,1.279,0,0,0,1.673-.139c.976-.79,2-2,3.067-2.091,1.022-.093,2.137,1.069,3.253,1.58.976.465,2,.836,2.927,1.208.139-.139.232-.232.232-.279-.186-1.719.883-2.463,2.184-3.253,1.58-.976,3.02-2.137,4.554-3.16a3.178,3.178,0,0,1,1.348-.279c.139,0,.279.139.418.186,2.463,1.115,4.925,2.277,7.574,3.485-1.533,1.115-2.927,2.184-4.321,3.206-1.44,1.069-1.44,1.069-2.881,0a24.543,24.543,0,0,0-2.927-1.905,61.076,61.076,0,0,0-.279,8.364c3.3-1.719,6.319-3.253,9.433-4.832.046.465.093.79.093,1.115,0,3.81-.046,7.574-.046,11.384a2.064,2.064,0,0,1-.929,1.859c-2.6,1.905-5.2,3.9-7.806,5.855-.279.186-.883.372-1.115.232-2.416-1.533-4.786-3.16-7.3-4.832,1.626-1.487,3.16-2.881,4.693-4.275,2.184,1.812,4.321,3.578,6.459,5.3a1.63,1.63,0,0,1,.372-.232c.6-3.717.418-7.481.418-11.524-3.578,1.394-6.552,3.485-9.944,5.2v-9.9c-.093-.046-.186-.139-.279-.186-.743.6-1.533,1.208-2.277,1.859-.883.743-1.719,1.952-2.7,2.045-.883.093-1.859-1.022-2.788-1.626a12.109,12.109,0,0,0-1.3-.79c-.929-.511-1.255-.325-1.3.743-.046,2.463-.139,4.972-.093,7.435.046,4.228.186,8.41.325,12.639A5.142,5.142,0,0,1,196.347,56.955Z" transform="translate(-100.055 -13.223)"/><path class="a" d="M319.5,5.9c1.952,1.115,3.857,2.184,5.762,3.206.929.465.6,1.208.6,1.905-.093,5.2-.139,10.455-.279,15.659a1.81,1.81,0,0,0,1.348,2c1.115.325,2.184.7,3.438,1.069a3.035,3.035,0,0,1-.511.558c-1.533,1.115-3.02,2.277-4.6,3.346a1.469,1.469,0,0,1-1.255.046c-1.115-.511-2.184-1.162-3.3-1.673a1.448,1.448,0,0,1-.929-1.626c.093-5.2.186-10.455.232-15.659,0-1.162-2.277-3.438-3.438-3.346-.232,0-.558.6-.6.976-.139,2.323-.279,4.647-.279,6.97-.046,4.832-.046,9.665-.046,14.5,0,.325-.047.651-.093,1.208-1.952-.976-3.81-1.812-5.576-2.834-.325-.186-.372-1.115-.372-1.673.093-2.37.325-4.693.418-7.063.139-2.974.186-5.948.325-8.922a1.86,1.86,0,0,0-1.208-2.091c-.883-.325-1.766-.79-2.834-1.3a35.788,35.788,0,0,0,3.485-2.6c1.115-1.022,2.137-1.208,3.346-.279,1.255.976,2.416.79,3.624-.232C317.591,7.294,318.567,6.643,319.5,5.9Z" transform="translate(-163.867 -3.105)"/><path class="a" d="M269.819,30.254c0-2.463.047-5.39,0-8.317a1.848,1.848,0,0,1,1.069-1.812c2.556-1.44,5.065-2.974,7.62-4.414a1.584,1.584,0,0,1,1.3-.046c1.905.883,3.717,1.905,5.622,2.788a1.391,1.391,0,0,1,.929,1.394c-.093,5.669-.186,11.384-.279,17.053a1.8,1.8,0,0,1-.6,1.255c-2.881,2.091-5.762,4.182-8.689,6.18a1.523,1.523,0,0,1-1.348.046c-1.719-.929-3.392-2-5.111-2.974a1.5,1.5,0,0,1-.836-1.58C269.586,36.759,269.679,33.785,269.819,30.254Zm5.715,0h-.186v9.618c0,1.208.372,1.394,1.3.79a21.113,21.113,0,0,0,2.6-1.952,3.608,3.608,0,0,0,1.115-2c.232-4.693.325-9.34.418-14.033a1.818,1.818,0,0,0-.883-1.3,24.2,24.2,0,0,0-3.113-1.533c-1.022-.465-1.208-.372-1.208.79C275.534,23.842,275.534,27.048,275.534,30.254Z" transform="translate(-144.16 -8.268)"/><path class="a" d="M44.269,204.281a29.133,29.133,0,0,0-.046-4.507,4.342,4.342,0,0,1,2.834-5.111,28.969,28.969,0,0,0,3.81-2.463v2.742c-.046,1.58-.093,3.16-.232,4.74a1.494,1.494,0,0,1-.465.976c-1.812,1.208-3.624,2.37-5.437,3.531C44.641,204.281,44.5,204.235,44.269,204.281Z" transform="translate(-23.531 -102.838)"/></g></svg>