<svg xmlns="http://www.w3.org/2000/svg" viewBox="0 0 271.42 329.59"><defs><style>.cls-1{fill:#fff;}</style></defs><title>youtube_mobile</title><g id="Layer_2" data-name="Layer 2"><g id="Capa_1" data-name="Capa 1"><path class="cls-1" d="M171.1,228.66A14.37,14.37,0,0,0,170,223.6a5.45,5.45,0,0,0-4.9-3.35,8.53,8.53,0,0,0-6.69,2.51,4.44,4.44,0,0,0-1.12,1.67l0,54v1.33s.46.62.53.7a10.71,10.71,0,0,0,5.71,3.51c3.84.79,6.55-.81,7.3-4.37a13.1,13.1,0,0,0,.3-2.72C171.15,260.78,171.18,244.72,171.1,228.66Zm0,0A14.37,14.37,0,0,0,170,223.6a5.45,5.45,0,0,0-4.9-3.35,8.53,8.53,0,0,0-6.69,2.51,4.44,4.44,0,0,0-1.12,1.67l0,54v1.33s.46.62.53.7a10.71,10.71,0,0,0,5.71,3.51c3.84.79,6.55-.81,7.3-4.37a13.1,13.1,0,0,0,.3-2.72C171.15,260.78,171.18,244.72,171.1,228.66Zm60.43-81.39q-95.8-2.06-191.65,0A40.76,40.76,0,0,0,0,188v99.76a40.77,40.77,0,0,0,39.88,40.77q95.82,2.06,191.65,0a40.77,40.77,0,0,0,39.89-40.77V188A40.77,40.77,0,0,0,231.53,147.27ZM58.64,296.88H40.22V192.75H21.15V175.33h56.6v17.38H58.64Zm65.92-43.22v43.23H108.25V287c-.59.63-.92,1-1.23,1.32-3.51,4-7.49,7.26-12.57,9a15.26,15.26,0,0,1-7.64.69,9.4,9.4,0,0,1-7.39-5.88,22.83,22.83,0,0,1-1.69-9.41c0-11.9,0-74.88,0-75.49H94c0,.55.09,45.76.1,67.81a18,18,0,0,0,.25,3.6c.6,3,2.87,4.23,5.72,3.19a17.78,17.78,0,0,0,7.88-6.17,2.85,2.85,0,0,0,.31-1.65V207.15l16.32,0Zm62.05,34.59c-2.18,6.56-7,9.9-13.88,9.83a18.43,18.43,0,0,1-13.91-6.35l-1.58-1.68v6.82H140.9V175.32h16.34v40a16.42,16.42,0,0,1,1.76-2.79,18.76,18.76,0,0,1,9.41-6c6.27-1.57,13.5.37,16.94,7.7a31.58,31.58,0,0,1,2.6,13.65q0,25.49,0,51A29.82,29.82,0,0,1,186.61,288.25ZM247,284.84c-2.83,8.29-8.68,12.89-17.26,14.14-5.32.78-10.59.68-15.58-1.58-6.83-3.08-10.7-8.65-12.36-15.74a47.47,47.47,0,0,1-1.19-10.15c-.13-13.31-.07-26.63,0-39.94,0-7,1.67-13.38,6.44-18.71,5.44-6.09,12.4-8.36,20.35-7.85a28.49,28.49,0,0,1,7.1,1.29c7.73,2.54,11.86,8.33,13.48,16a48.23,48.23,0,0,1,.9,9.06c.13,7.1-.05,22.75-.05,22.75H217.46v22.43a7.29,7.29,0,1,0,14.57,0V265h16.81S249.09,278.63,247,284.84ZM232,227.62a7.29,7.29,0,1,0-14.57,0V240.2H232Zm-62.07-4a5.45,5.45,0,0,0-4.9-3.35,8.53,8.53,0,0,0-6.69,2.51,4.52,4.52,0,0,0-1.12,1.68l0,54v1.32l.53.71a10.71,10.71,0,0,0,5.71,3.51c3.84.79,6.55-.81,7.3-4.37a13.1,13.1,0,0,0,.3-2.72c0-16.07.05-32.13,0-48.19A14.38,14.38,0,0,0,170,223.6Z"/><path class="cls-1" d="M211.73,31.92v90.24H195l0-9.69c-1.85,1.82-3.43,3.52-5.16,5A22.5,22.5,0,0,1,179.23,123c-6.25,1.23-11.58-.75-13.57-7.23a23.33,23.33,0,0,1-1.08-6.73V31.92h16.59v68.82a15.56,15.56,0,0,0,.23,2.73c.51,2.84,2.61,4.17,5.34,3.22a17.8,17.8,0,0,0,8-6.17,2.94,2.94,0,0,0,.25-1.68V31.92Z"/><path class="cls-1" d="M73.42,47.6C69.79,32.3,62.18,0,62.18,0h-19S57.77,48.49,64.31,70.11a8.44,8.44,0,0,1,.35,2.45v49.59H82.2V72.56a8.78,8.78,0,0,1,.34-2.45C89.07,48.49,103.69,0,103.69,0h-19s-7.6,32.3-11.23,47.6Z"/><path class="cls-1" d="M126.59,29.66h0a23.94,23.94,0,0,0-23.94,24v46.85a23.94,23.94,0,0,0,23.94,24h0a24,24,0,0,0,23.95-24V53.6A23.94,23.94,0,0,0,126.59,29.66Zm6.91,71.75a6.91,6.91,0,1,1-13.81,0V52.66a6.91,6.91,0,1,1,13.81,0Z"/></g></g></svg>