<?xml version="1.0" standalone="no"?>
<!DOCTYPE svg PUBLIC "-//W3C//DTD SVG 20010904//EN"
 "http://www.w3.org/TR/2001/REC-SVG-20010904/DTD/svg10.dtd">
<svg version="1.0" xmlns="http://www.w3.org/2000/svg"
 width="500.000000pt" height="500.000000pt" viewBox="0 0 500.000000 500.000000"
 preserveAspectRatio="xMidYMid meet">
<metadata>
Created by potrace 1.11, written by Peter Selinger 2001-2013
</metadata>
<g transform="translate(0.000000,500.000000) scale(0.100000,-0.100000)"
fill="#000000" stroke="none">
<path d="M2503 3923 c-5 -1 -245 -3 -535 -6 -291 -2 -531 -7 -535 -10 -3 -4
41 -8 98 -8 140 -2 156 -3 163 -9 3 -3 -73 -5 -169 -5 -96 1 -175 -3 -175 -7
0 -4 62 -8 138 -9 192 -1 364 -8 370 -14 3 -3 -48 -5 -114 -6 -65 0 -148 -2
-184 -4 -36 -1 -135 -4 -220 -6 -85 -1 -126 -4 -90 -6 92 -5 102 -11 56 -31
-38 -17 -38 -17 135 -19 374 -2 409 -3 409 -13 0 -6 -3 -9 -7 -9 -5 1 -10 0
-13 -1 -13 -6 -80 -9 -237 -11 -94 -2 -170 -6 -168 -10 3 -3 42 -7 87 -7 134
-1 135 -1 118 -13 -12 -9 -11 -10 7 -6 13 3 25 2 28 -3 4 -7 -64 -10 -272 -14
-70 -1 -86 -7 -61 -22 16 -10 55 -12 246 -15 90 -2 165 -6 167 -10 4 -6 -48
-9 -258 -14 -139 -3 -169 -15 -41 -16 122 -1 257 -9 263 -14 2 -3 -67 -5 -154
-5 -87 0 -156 -2 -154 -4 2 -2 76 -7 163 -10 87 -3 161 -8 164 -11 3 -3 -12
-5 -34 -6 -21 -1 -88 -2 -149 -4 -60 -2 -177 -4 -259 -4 -82 -1 -147 -3 -144
-6 6 -7 171 -13 376 -15 96 -1 171 -4 168 -7 -7 -8 -131 -11 -470 -12 -165 -1
-297 -3 -295 -6 3 -2 84 -7 180 -10 96 -3 228 -8 294 -10 66 -2 165 -4 220 -5
55 0 95 -4 88 -8 -6 -4 -101 -7 -212 -7 -110 0 -197 -3 -193 -7 6 -5 219 -16
372 -18 35 0 50 -3 41 -9 -7 -5 -85 -8 -172 -7 -88 0 -159 -2 -159 -6 0 -4 -7
-4 -17 -1 -9 4 -14 2 -10 -3 4 -6 -29 -10 -86 -10 -51 1 -114 -2 -142 -5 -39
-5 -28 -6 50 -8 55 -1 150 -4 210 -6 61 -2 152 -4 204 -4 52 -1 92 -3 89 -6
-3 -3 -63 -8 -134 -11 -70 -2 -130 -7 -133 -9 -2 -3 58 -5 134 -5 76 0 136 -2
133 -5 -2 -3 -145 -6 -316 -8 -172 -2 -315 -7 -319 -10 -3 -4 72 -7 168 -8
236 -1 532 -9 538 -15 2 -2 -56 -4 -129 -4 -73 0 -131 -2 -129 -4 2 -2 46 -6
97 -9 108 -5 135 -17 41 -17 -35 -1 -136 -3 -224 -5 -88 -3 -256 -7 -373 -9
-218 -5 -285 -12 -145 -15 43 -1 134 -4 203 -6 69 -2 196 -4 283 -5 165 -3
219 -16 70 -17 -49 0 -164 -1 -257 -2 -93 0 -167 -3 -165 -5 5 -5 265 -14 511
-17 76 -1 135 -5 133 -9 -2 -4 -66 -8 -142 -10 -76 -1 -169 -4 -208 -5 -38 -2
-112 -4 -163 -5 -201 -5 -40 -16 282 -19 66 -1 117 -4 113 -7 -3 -3 -60 -7
-127 -9 -72 -2 -126 -7 -133 -14 -15 -15 -27 -14 -27 4 0 8 -7 15 -15 15 -8 0
-15 -5 -15 -11 0 -5 5 -7 10 -4 6 3 10 1 10 -4 0 -6 -11 -10 -24 -9 -19 2 -22
5 -14 15 8 10 7 12 -6 7 -9 -3 -16 -10 -16 -15 0 -5 -55 -9 -122 -9 -67 0
-119 -2 -117 -5 4 -4 393 -17 557 -19 23 0 42 -3 42 -6 0 -3 -84 -6 -187 -7
-202 -3 -265 -13 -87 -14 118 0 266 -9 273 -15 6 -5 -132 -7 -354 -5 -99 1
-177 0 -174 -3 3 -3 66 -8 140 -10 286 -11 460 -19 457 -21 -2 -2 -124 -6
-273 -10 -148 -3 -274 -9 -280 -13 -14 -9 -16 -9 -92 -11 -36 0 -64 -4 -60 -7
5 -6 227 -12 476 -13 63 -1 112 -3 109 -6 -3 -3 -69 -5 -148 -6 -78 0 -140 -2
-138 -4 5 -5 157 -13 272 -14 44 -1 77 -4 73 -7 -7 -7 -121 -11 -415 -15 -112
-2 -194 -7 -182 -11 11 -4 115 -8 230 -9 116 -1 212 -4 214 -8 2 -3 -38 -6
-89 -6 -51 0 -91 -3 -88 -7 2 -5 51 -8 109 -8 57 0 104 -3 104 -7 0 -8 -24 -9
-187 -12 -46 0 -83 -5 -83 -9 0 -4 44 -9 97 -11 54 -2 128 -4 166 -6 73 -2
105 -14 41 -16 -21 0 -75 -2 -119 -4 -44 -2 -144 -4 -222 -5 -157 -3 -194 -16
-55 -20 48 -1 119 -5 157 -10 55 -6 38 -7 -82 -6 -84 1 -153 -2 -153 -6 0 -5
81 -8 180 -9 256 -1 270 -2 270 -11 0 -4 -35 -9 -77 -9 -43 -1 -100 -3 -128
-4 -27 -1 -92 -3 -144 -4 -52 0 -92 -3 -90 -5 5 -5 124 -14 202 -15 31 -1 57
-4 57 -9 0 -4 -87 -7 -194 -7 -107 1 -193 -2 -191 -6 3 -3 39 -7 82 -8 43 -2
92 -4 108 -6 17 -2 103 -5 193 -6 89 -1 162 -5 162 -9 0 -3 -105 -7 -232 -9
-128 -1 -281 -4 -340 -4 -60 -1 -108 -5 -108 -9 0 -6 130 -10 372 -12 65 -1
118 -4 118 -8 0 -5 -43 -8 -97 -8 -53 0 -94 -2 -92 -4 2 -3 76 -8 164 -11 88
-4 162 -9 164 -11 2 -2 -52 -5 -120 -5 -184 -2 -188 -2 -184 -9 2 -3 54 -7
116 -8 211 -5 139 -17 -97 -17 -130 0 -238 -3 -240 -6 -2 -4 80 -6 182 -6 101
0 188 -3 191 -7 6 -5 -36 -8 -185 -9 -28 0 -52 -4 -52 -8 0 -4 55 -8 122 -9
152 -2 186 -5 194 -13 3 -3 -119 -7 -272 -7 -360 -2 -413 -3 -408 -11 2 -3 93
-7 201 -8 295 -4 341 -5 349 -13 4 -5 -78 -9 -182 -10 l-189 -2 140 -6 c127
-5 133 -10 18 -14 -23 -1 -45 -4 -48 -8 -4 -3 56 -7 131 -7 159 -2 196 -11 48
-12 -219 -2 -284 -4 -284 -11 0 -5 82 -9 183 -9 176 -2 225 -3 387 -9 64 -3
68 -4 25 -7 -27 -2 -53 -8 -58 -12 -4 -4 5 -6 20 -5 16 1 37 -2 48 -7 11 -4
-122 -8 -295 -9 -173 -1 -301 -5 -284 -10 18 -4 64 -6 103 -5 40 1 73 -1 76
-4 4 -8 -12 -8 -314 -10 -134 0 -242 -3 -240 -5 2 -3 79 -8 169 -12 156 -6
189 -8 320 -14 l55 -3 -60 -6 c-33 -4 -69 -4 -80 -1 -11 3 -72 3 -135 -1 -97
-4 -104 -5 -45 -8 39 -2 93 -4 120 -6 28 -2 131 -6 230 -10 99 -4 182 -9 184
-11 4 -3 -303 -8 -457 -7 -30 0 -49 -3 -42 -7 6 -4 82 -8 168 -10 207 -4 212
-4 212 -11 0 -4 -60 -7 -132 -8 -73 0 -173 -1 -223 -2 -152 -3 -29 -14 158
-14 92 0 167 -3 167 -7 0 -8 -119 -12 -230 -9 -34 1 -50 -2 -42 -7 7 -5 83
-10 170 -11 86 -1 158 -4 161 -6 2 -3 -63 -5 -145 -6 -263 -1 -354 -4 -354
-10 0 -3 53 -6 117 -7 131 -2 275 -11 283 -19 3 -3 -109 -3 -248 -1 -138 1
-252 1 -252 -2 0 -3 24 -6 53 -7 98 -4 332 -15 362 -18 17 -2 68 -3 114 -4
131 -2 89 -11 -54 -12 -77 -1 -122 -5 -114 -10 8 -5 10 -9 4 -10 -13 -1 -312
-7 -429 -8 -49 -1 -87 -4 -83 -7 5 -6 330 -16 554 -18 62 -1 113 -4 113 -8 0
-5 -66 -8 -147 -8 -80 0 -144 -2 -141 -5 3 -3 52 -8 109 -10 174 -8 251 -14
257 -19 5 -6 -95 -10 -155 -7 -18 1 -33 -2 -33 -8 0 -5 6 -9 13 -8 53 2 139
-4 134 -10 -4 -3 -78 -5 -164 -4 -86 1 -155 -1 -152 -4 3 -3 74 -7 158 -9 84
-2 155 -7 158 -10 7 -7 -78 -9 -262 -6 -71 1 -127 -1 -124 -4 3 -3 54 -8 113
-10 201 -9 121 -16 -184 -16 -167 0 -301 -2 -299 -4 4 -5 80 -8 444 -21 177
-6 277 -13 283 -20 4 -4 -588 -10 -666 -7 -13 1 -22 -5 -22 -13 0 -9 10 -15
23 -16 12 0 31 -2 42 -4 24 -5 467 -19 543 -18 28 1 52 -3 52 -7 0 -5 -8 -9
-17 -9 -139 2 -745 -20 -751 -26 -3 -3 48 -5 114 -6 65 0 212 -1 327 -2 114
-1 201 -4 195 -8 -13 -7 -351 -18 -562 -19 -60 0 -107 -3 -103 -6 7 -7 49 -9
412 -19 253 -7 339 -14 199 -16 -38 -1 -165 -1 -282 -1 -117 0 -211 -2 -209
-4 6 -6 196 -13 394 -14 106 -1 195 -5 197 -9 4 -6 -155 -13 -326 -14 -84 -1
-51 -14 40 -17 48 -1 110 -3 137 -5 28 -2 86 -3 129 -4 44 -1 77 -4 73 -7 -3
-3 -148 -7 -322 -9 -174 -2 -319 -6 -323 -9 -3 -3 34 -7 81 -7 48 -1 92 -3 97
-4 6 -1 90 -3 188 -4 99 -2 168 -6 157 -10 -11 -5 -89 -8 -173 -7 -83 1 -152
-2 -152 -6 0 -5 45 -8 100 -8 103 0 140 -14 48 -18 -29 -1 -54 -7 -56 -12 -2
-6 -8 -10 -13 -10 -6 0 -7 5 -3 12 5 8 3 8 -7 2 -14 -9 -28 -10 -209 -14 -58
-2 -94 -5 -80 -8 23 -4 24 -5 5 -13 -14 -5 1 -8 45 -9 36 -1 81 -4 100 -5 19
-2 76 -5 127 -6 51 -1 90 -6 88 -10 -3 -4 -64 -6 -136 -5 -71 1 -132 -1 -134
-5 -3 -3 6 -6 18 -6 162 -2 219 -4 214 -9 -3 -3 -83 -6 -177 -6 -94 0 -170 -2
-168 -3 5 -5 261 -17 363 -17 50 -1 97 -4 105 -9 9 -5 -57 -9 -155 -10 -93 -1
-195 -3 -225 -5 -30 -1 -91 -3 -134 -3 -149 -2 -68 -12 103 -14 140 -2 174 -5
182 -17 9 -13 10 -13 6 2 -4 12 0 16 14 15 10 -1 19 -7 19 -14 0 -7 5 -13 11
-13 6 0 8 8 5 17 -6 17 -5 17 7 1 7 -9 24 -18 37 -21 25 -4 -36 -7 -232 -11
-131 -2 -156 -16 -32 -17 218 -3 242 -4 238 -10 -3 -6 -71 -10 -231 -13 -103
-2 -115 -11 -20 -14 179 -6 291 -13 296 -17 2 -3 -38 -6 -90 -6 -156 -2 -187
-4 -194 -10 -3 -4 2 -6 12 -6 10 0 65 -2 123 -3 101 -3 102 -4 40 -10 -57 -6
-49 -7 60 -9 69 -2 232 -4 362 -5 218 -2 277 4 195 19 -38 8 -60 22 -75 51
-13 24 -19 95 -10 110 4 5 47 34 96 63 48 28 96 64 104 79 9 15 37 48 62 74
24 26 46 58 48 70 2 13 15 28 30 36 26 12 82 92 90 128 2 10 -6 39 -19 63 -28
54 -28 58 -3 66 13 4 20 15 20 31 0 17 6 24 19 24 29 0 52 70 58 179 3 53 14
122 24 155 11 32 19 67 19 78 0 11 9 32 19 47 11 15 21 40 23 56 3 26 7 30 37
32 49 2 51 5 65 103 3 25 8 70 12 100 3 30 7 57 10 61 2 4 6 24 10 45 3 22 11
46 18 54 22 25 25 48 10 60 -19 17 -18 30 12 129 57 193 94 268 125 256 22 -8
32 -32 70 -175 26 -98 33 -146 33 -220 1 -52 -3 -104 -8 -115 -5 -11 -10 -24
-10 -30 -1 -5 -16 -11 -34 -13 -21 -2 -38 -12 -48 -27 -14 -21 -14 -26 1 -54
8 -17 12 -31 8 -31 -9 0 -8 -88 0 -97 3 -3 1 -17 -5 -32 -5 -14 -11 -33 -13
-41 -8 -32 -64 -229 -89 -315 -45 -148 -93 -312 -131 -445 -38 -134 -47 -156
-64 -153 -13 3 -34 -34 -23 -40 4 -3 24 -8 44 -12 27 -5 39 -14 48 -35 17 -40
36 -55 113 -85 37 -15 81 -40 98 -56 28 -26 31 -34 26 -69 -9 -66 -37 -96
-106 -109 -129 -25 -72 -31 266 -27 186 3 341 5 345 5 12 1 -2 28 -15 29 -7 1
-32 4 -56 5 -53 4 -85 38 -85 91 0 50 24 78 106 120 65 33 79 46 106 92 17 30
29 61 26 68 -3 8 -1 17 5 21 18 10 13 39 -9 53 -26 16 -40 53 -45 114 -3 31 0
50 10 58 7 6 12 17 9 25 -8 19 14 29 32 14 12 -10 19 -9 35 7 24 24 18 40 -28
78 -31 26 -38 28 -64 19 -24 -9 -31 -8 -38 4 -8 15 -13 14 -52 -2 -55 -23
-211 -23 -246 0 -12 8 -30 15 -39 15 -12 0 -15 6 -12 25 7 35 -25 67 -60 60
-35 -6 -55 -33 -48 -66 7 -38 -11 -51 -46 -33 -27 14 -29 19 -26 62 2 28 16
67 33 97 49 86 45 83 158 84 56 1 129 5 162 11 33 5 63 10 68 10 4 0 7 9 7 20
0 11 3 20 8 21 4 1 18 2 32 3 14 2 33 6 42 10 10 4 23 6 30 4 28 -10 78 75 70
118 -6 36 -19 45 -49 33 -28 -11 -78 -66 -78 -88 0 -8 -7 -17 -15 -19 -8 -3
-18 -10 -22 -16 -4 -6 -11 1 -17 17 -16 43 -60 219 -60 242 0 11 -4 50 -9 88
-4 37 -5 73 -1 79 4 7 1 17 -7 22 -8 6 -16 22 -19 35 -2 13 -12 29 -22 36 -15
12 -18 31 -19 135 0 67 -5 125 -11 128 -23 16 -22 43 2 54 28 13 32 26 10 33
-8 3 -22 7 -30 10 -12 4 -14 9 -6 24 8 14 7 20 -4 25 -17 6 -21 46 -5 46 6 0
10 11 10 25 0 19 -8 28 -35 39 -27 12 -35 21 -35 40 0 14 -8 29 -17 35 -13 7
-18 23 -19 55 0 25 -9 64 -20 87 -14 32 -15 44 -6 47 9 3 6 12 -8 32 -42 59
-8 149 62 165 24 6 26 5 25 -26 -2 -38 20 -49 57 -29 24 12 157 9 189 -5 12
-5 22 -2 32 11 18 24 18 33 0 40 -8 4 -15 17 -15 30 0 20 5 24 33 24 18 0 37
4 43 9 5 5 73 32 151 61 209 76 210 79 16 77 -90 -1 -166 -3 -170 -4z m-1105
-108 c3 -3 -7 -5 -21 -5 -15 0 -27 4 -27 9 0 10 38 7 48 -4z m1012 -79 c0 -11
-19 -15 -25 -6 -3 5 1 10 9 10 9 0 16 -2 16 -4z m-663 -132 c-3 -3 -12 -4 -19
-1 -8 3 -5 6 6 6 11 1 17 -2 13 -5z m-159 -379 c3 -3 -4 -4 -16 -2 -12 2 -24
6 -28 10 -4 3 4 4 16 2 12 -2 25 -7 28 -10z m-111 -381 c-3 -3 -12 -4 -19 -1
-8 3 -5 6 6 6 11 1 17 -2 13 -5z m-149 -171 c-10 -2 -26 -2 -35 0 -10 3 -2 5
17 5 19 0 27 -2 18 -5z m-118 -253 c0 -5 -4 -10 -10 -10 -5 0 -10 5 -10 10 0
6 5 10 10 10 6 0 10 -4 10 -10z m-116 -149 c-8 -8 -34 -10 -38 -2 -3 4 6 7 19
7 14 0 22 -2 19 -5z m1069 -58 c-13 -2 -35 -2 -50 0 -16 2 -5 4 22 4 28 0 40
-2 28 -4z m100 0 c-13 -2 -35 -2 -50 0 -16 2 -5 4 22 4 28 0 40 -2 28 -4z
m-1126 -59 c-3 -3 -12 -4 -19 -1 -8 3 -5 6 6 6 11 1 17 -2 13 -5z m-162 -344
c3 -6 -4 -10 -17 -10 -18 0 -20 2 -8 10 19 12 18 12 25 0z m-225 -462 c0 -4
-9 -8 -20 -8 -11 0 -20 4 -20 8 0 4 9 8 20 8 11 0 20 -4 20 -8z m-47 -25 c-7
-2 -19 -2 -25 0 -7 3 -2 5 12 5 14 0 19 -2 13 -5z m-23 -67 c0 -2 -7 -7 -16
-10 -8 -3 -12 -2 -9 4 6 10 25 14 25 6z m0 -71 c0 -2 -9 -3 -19 -2 -11 0 -18
5 -15 9 4 6 34 0 34 -7z"/>
<path d="M2900 3921 c0 -5 15 -20 33 -34 42 -32 84 -109 95 -178 11 -62 85
-350 102 -393 12 -31 7 -56 -10 -56 -5 0 -10 11 -10 24 0 27 -27 39 -54 24
-24 -13 -19 -28 9 -28 14 0 25 -4 25 -10 0 -5 -11 -12 -25 -16 -31 -8 -31 -11
-3 -34 19 -15 21 -21 11 -43 -13 -27 -8 -60 14 -93 9 -14 12 -40 10 -74 -3
-35 0 -56 9 -65 17 -16 0 -31 -28 -27 -25 4 -23 -25 3 -39 19 -10 25 -7 46 20
13 17 28 31 33 31 5 0 12 -40 16 -90 l7 -90 32 -11 c25 -9 31 -17 27 -31 -2
-11 1 -30 8 -43 11 -20 10 -28 -4 -50 -22 -33 -12 -66 24 -87 24 -14 30 -24
30 -51 0 -19 9 -46 20 -60 14 -18 20 -40 20 -76 0 -49 4 -57 45 -86 20 -13 20
-14 1 -28 -11 -8 -16 -19 -12 -26 5 -7 9 -24 11 -38 1 -14 10 -30 20 -36 38
-21 56 -47 45 -66 -7 -14 -6 -20 4 -24 7 -3 23 -45 35 -94 32 -123 32 -123 15
-123 -8 0 -14 -7 -14 -15 0 -8 6 -15 14 -15 17 0 35 -21 41 -46 2 -11 8 -38
13 -61 7 -28 6 -45 -1 -52 -18 -18 -27 -13 -27 14 0 28 -21 42 -79 51 -33 5
-41 4 -41 -9 0 -8 14 -20 30 -27 29 -12 41 -30 20 -30 -13 0 -13 -106 1 -131
7 -14 7 -24 0 -32 -14 -17 -1 -34 29 -38 23 -4 25 -1 27 38 1 23 7 51 13 63 6
11 8 25 5 30 -7 12 16 50 31 50 6 0 11 -6 11 -12 0 -16 81 -198 96 -216 6 -7
41 -31 78 -53 75 -43 102 -66 94 -79 -3 -5 -1 -11 4 -14 5 -4 5 -23 -2 -47
-12 -48 -48 -75 -114 -85 -24 -3 -43 -9 -43 -13 0 -3 288 -6 640 -6 352 0 640
3 640 8 0 4 -12 7 -27 8 -16 0 -37 2 -47 4 -10 2 -152 6 -315 10 -162 3 -297
8 -300 10 -2 3 18 5 45 6 78 1 177 9 182 14 3 3 -29 5 -71 6 -168 2 -187 3
-187 11 0 4 10 7 23 6 79 -3 217 3 217 11 0 4 -33 9 -72 10 -92 3 -149 9 -156
16 -3 3 16 5 44 4 91 -3 144 1 144 12 0 5 -8 9 -17 8 -39 -3 -226 1 -221 6 2
3 32 6 66 8 34 2 64 6 68 9 3 4 -10 5 -29 4 -20 -2 -41 1 -49 6 -8 5 7 8 42 7
30 -1 61 -7 69 -13 11 -8 13 -8 7 1 -6 10 26 13 145 13 84 0 150 3 147 6 -6 5
-171 11 -414 14 -153 2 -200 17 -63 19 371 8 473 11 477 16 3 3 -87 6 -199 7
-112 1 -179 4 -149 7 30 3 83 6 118 6 34 0 62 3 62 6 0 4 -70 5 -155 4 -85 -2
-157 0 -159 4 -2 3 44 8 102 10 59 2 127 5 152 6 25 2 70 4 100 5 41 1 50 4
35 10 -19 8 -19 9 3 9 12 1 22 -3 22 -9 0 -5 5 -10 11 -10 5 0 7 4 4 10 -3 5
-2 10 4 10 5 0 12 -6 14 -12 3 -8 6 -6 6 5 1 15 -12 17 -119 18 -127 2 -124 1
-155 12 -11 3 -76 9 -144 11 -68 3 -126 7 -129 10 -5 6 55 8 251 8 53 0 97 3
97 7 0 4 -88 7 -196 8 -107 0 -198 4 -201 7 -4 3 14 7 38 7 114 4 270 7 447
10 105 1 192 5 192 9 0 3 -98 6 -217 7 -120 0 -312 1 -427 2 -115 1 -207 3
-204 6 5 5 105 10 392 20 170 5 222 15 90 16 -148 1 -368 10 -373 14 -2 3 54
5 125 6 320 2 393 5 400 11 4 4 -8 7 -27 7 -80 -3 -402 1 -398 5 4 4 121 9
528 21 166 6 230 14 110 16 -35 0 -138 2 -229 5 -91 2 -238 6 -327 7 -89 2
-165 6 -168 9 -4 4 60 7 142 7 483 1 575 2 569 8 -3 4 -64 8 -134 9 -151 3
-477 15 -512 19 -14 1 -56 3 -94 4 -38 0 -67 3 -65 5 2 3 140 7 307 10 329 7
425 13 430 27 2 5 8 7 13 3 5 -3 9 -1 9 4 0 5 -101 10 -237 11 -363 4 -605 10
-611 16 -3 3 33 5 79 6 323 3 740 16 747 24 3 3 -55 5 -129 6 -224 2 -433 6
-449 10 -8 1 32 6 90 9 100 6 97 6 -62 8 -93 1 -168 5 -168 10 0 4 50 8 112
10 62 1 115 5 120 10 4 4 -51 7 -122 6 -72 -1 -130 2 -130 6 0 4 37 8 82 9 89
1 121 10 42 12 -27 1 -88 2 -136 2 -97 2 -122 17 -30 18 31 0 100 2 152 4 52
2 128 4 169 4 41 1 71 4 68 8 -8 7 -73 11 -221 12 -49 1 -87 3 -85 5 4 5 480
15 678 16 46 0 82 3 78 6 -3 4 -132 7 -287 9 -154 1 -283 5 -287 9 -5 5 150
11 185 7 6 -1 12 2 12 6 0 4 -106 8 -236 8 -254 0 -328 9 -109 14 74 1 169 4
212 6 43 3 104 4 136 5 31 0 57 3 57 8 0 4 -90 7 -199 7 -110 -1 -198 2 -195
6 2 4 66 8 141 8 163 2 356 11 362 17 2 2 -99 5 -225 5 -315 2 -354 3 -348 9
7 6 45 8 223 9 74 1 132 3 130 6 -3 2 -87 6 -188 9 -101 2 -185 7 -188 10 -3
3 106 5 242 6 137 0 251 2 253 5 3 3 -53 6 -124 7 -116 1 -258 4 -353 7 -19 1
-32 3 -29 6 3 3 96 7 207 9 219 3 287 15 95 17 -65 1 -183 2 -261 3 -78 0
-144 4 -147 7 -3 3 0 6 7 6 47 2 576 16 635 17 39 0 72 3 72 6 0 4 -85 5 -190
3 -104 -2 -190 0 -190 5 0 5 48 10 108 12 59 1 141 4 182 5 41 2 115 3 164 4
49 1 87 4 84 7 -4 3 -158 7 -343 9 -186 2 -340 6 -343 9 -3 3 59 6 138 6 79 0
141 2 138 5 -2 3 -155 7 -338 10 -183 3 -335 7 -338 10 -3 3 19 5 48 5 66 0
62 6 -9 14 -78 9 -76 16 5 16 227 0 646 9 651 14 4 3 -34 7 -83 7 -133 2 -152
3 -160 12 -4 4 28 8 72 9 69 2 72 2 22 5 -32 2 -58 7 -58 12 0 4 18 6 40 4 22
-2 40 2 40 7 0 6 -3 9 -7 9 -26 -4 -375 2 -371 6 3 3 162 7 353 10 351 4 480
14 214 16 -79 1 -241 3 -359 5 -118 1 -239 3 -269 3 -30 1 -52 3 -49 6 6 6
248 14 457 14 79 1 142 3 139 6 -2 3 -111 6 -241 7 -269 3 -280 13 -18 16 96
1 177 4 179 7 3 3 -120 5 -273 5 -153 0 -276 2 -274 4 5 5 185 14 293 15 137
1 75 13 -83 15 -151 3 -226 16 -95 16 109 1 288 10 293 15 2 3 -51 5 -119 5
-68 0 -121 2 -119 4 2 2 166 7 364 10 350 7 483 15 254 17 -63 0 -215 2 -339
4 -124 2 -281 4 -349 4 -68 1 -122 4 -118 7 3 4 73 8 154 10 292 6 578 16 582
20 4 4 -285 7 -511 6 -43 -1 -78 3 -78 7 0 4 19 8 43 8 155 1 278 5 275 9 -7
6 -122 14 -307 19 -102 3 -187 7 -189 10 -6 6 7 6 301 10 120 1 221 6 224 9 4
3 -67 6 -157 6 -90 0 -161 2 -159 5 4 4 182 12 308 14 88 2 49 14 -52 17 -50
2 -177 5 -281 8 -195 5 -262 15 -115 17 46 1 98 2 114 4 17 1 61 3 98 4 123 2
61 18 -80 20 -171 3 -202 20 -38 20 65 0 120 3 123 6 3 3 -43 5 -103 5 -195 0
-105 8 150 14 138 3 290 6 339 6 49 0 87 3 83 6 -3 4 -120 8 -259 9 -394 5
-518 9 -518 16 0 6 204 13 285 11 15 -1 16 1 6 8 -8 4 -57 9 -109 9 -158 2
-117 11 54 12 218 2 247 3 262 12 7 5 12 3 12 -3 0 -6 5 -8 12 -4 6 4 39 7 72
7 44 0 50 1 21 4 -34 4 -37 7 -20 14 16 8 15 8 -5 3 -39 -10 -623 -13 -640 -3
-9 5 16 9 70 9 91 1 322 8 460 14 47 3 128 5 180 7 196 5 5 14 -292 14 -164 0
-298 3 -298 8 0 4 27 7 60 8 33 1 89 2 125 2 36 1 65 5 65 9 0 4 -66 8 -147 8
-80 0 -144 3 -140 6 5 5 96 9 485 18 101 3 186 7 189 9 2 3 -96 5 -219 5 -272
0 -332 3 -228 12 l75 6 -85 3 c-124 5 -138 6 -144 12 -3 3 74 6 172 8 164 2
192 4 181 15 -4 4 -318 15 -463 16 -44 0 -77 3 -74 6 7 6 350 16 615 18 90 0
163 4 163 9 0 4 -160 7 -355 6 -195 -1 -358 1 -362 4 -3 4 27 7 68 8 93 1 410
7 682 12 211 5 298 16 126 18 -126 1 -539 8 -777 13 -107 2 -196 7 -199 10 -6
6 45 10 79 7 9 -1 18 6 21 16 4 17 5 17 6 1 0 -10 6 -18 12 -18 5 0 7 6 3 13
-6 9 -4 9 7 1 15 -13 152 -17 144 -5 -2 5 -34 7 -69 7 -36 -1 -62 1 -58 5 4 4
141 9 306 12 164 3 301 9 304 12 3 3 -110 5 -252 5 -161 0 -255 4 -251 10 3 5
21 8 39 6 18 -1 42 1 52 5 16 6 -192 15 -233 10 -6 -1 -14 2 -16 6 -6 9 -10 9
397 16 153 3 281 8 284 11 3 3 -87 6 -200 6 -112 0 -208 3 -212 8 -10 10 -4 9
-203 11 -97 0 -174 3 -172 5 2 2 65 8 139 12 74 4 153 8 175 9 22 2 73 3 114
4 41 1 71 4 68 7 -3 4 -99 6 -213 6 -113 0 -203 2 -200 5 3 4 70 8 149 10 304
7 546 11 641 12 55 1 97 3 94 6 -3 3 -202 8 -444 11 -241 2 -440 7 -443 9 -2
3 45 6 105 7 60 0 114 2 119 3 6 2 93 3 194 4 101 0 182 3 180 6 -5 5 -264 13
-526 17 -88 2 -159 6 -157 9 3 6 161 13 222 10 12 0 22 3 22 8 0 5 -32 9 -71
9 -38 0 -72 2 -75 5 -3 3 39 5 93 6 125 2 287 11 292 17 2 2 -31 4 -75 5 -43
0 -126 2 -184 3 -58 2 -136 4 -174 5 -38 0 -67 3 -64 6 5 6 209 13 413 15 82
1 123 5 110 10 -14 6 -1 9 44 9 35 1 62 3 60 5 -2 3 -109 7 -237 9 -129 3
-236 8 -239 11 -4 3 11 6 33 7 33 1 35 2 14 8 -14 4 74 8 194 10 121 1 222 4
225 6 2 3 -74 5 -170 6 -96 0 -228 2 -294 4 -66 2 -133 4 -148 4 -16 1 -26 5
-22 10 3 6 -14 12 -37 14 -24 2 115 5 307 6 193 2 341 5 330 8 -11 2 -30 9
-42 15 -12 6 -28 8 -35 6 -7 -3 -22 -2 -33 3 -12 4 22 8 84 8 174 1 105 13
-101 17 -347 7 -469 12 -475 18 -4 3 42 7 100 7 59 1 157 3 217 4 61 1 153 3
207 4 156 2 100 12 -76 13 -243 2 -188 15 73 17 38 1 67 3 64 6 -8 8 -1068 14
-1068 6z m730 -21 c0 -5 -5 -10 -11 -10 -5 0 -7 5 -4 10 3 6 8 10 11 10 2 0 4
-4 4 -10z m-37 -7 c-7 -2 -21 -2 -30 0 -10 3 -4 5 12 5 17 0 24 -2 18 -5z
m-223 -33 c0 -5 -2 -10 -4 -10 -3 0 -8 5 -11 10 -3 6 -1 10 4 10 6 0 11 -4 11
-10z m463 -37 c-13 -2 -33 -2 -45 0 -13 2 -3 4 22 4 25 0 35 -2 23 -4z m-296
-109 c-3 -3 -12 -4 -19 -1 -8 3 -5 6 6 6 11 1 17 -2 13 -5z m-44 -101 c3 -5
-5 -8 -18 -8 -13 0 -21 3 -18 8 2 4 10 7 18 7 8 0 16 -3 18 -7z m127 -253 c0
-5 -8 -10 -17 -10 -15 0 -16 2 -3 10 19 12 20 12 20 0z m50 -2 c0 -4 -9 -8
-20 -8 -11 0 -20 4 -20 9 0 6 9 9 20 8 11 -1 20 -5 20 -9z m368 -955 c-10 -2
-28 -2 -40 0 -13 2 -5 4 17 4 22 1 32 -1 23 -4z m-48 -19 c-59 -8 -140 -8
-140 -1 0 4 37 6 83 6 45 -1 71 -3 57 -5z m120 -146 c0 -4 -15 -8 -32 -7 -26
0 -29 2 -13 8 25 10 45 10 45 -1z m-130 -183 c0 -2 -9 -3 -19 -2 -11 0 -18 5
-15 9 4 6 34 0 34 -7z m-43 -101 c-3 -3 -12 -4 -19 -1 -8 3 -5 6 6 6 11 1 17
-2 13 -5z m-19 -109 c3 -3 -4 -4 -16 -2 -12 2 -24 6 -28 10 -4 3 4 4 16 2 12
-2 25 -7 28 -10z m129 -21 c-3 -3 -12 -4 -19 -1 -8 3 -5 6 6 6 11 1 17 -2 13
-5z m-10 -350 c-3 -3 -12 -4 -19 -1 -8 3 -5 6 6 6 11 1 17 -2 13 -5z m41 -31
c-10 -2 -26 -2 -35 0 -10 3 -2 5 17 5 19 0 27 -2 18 -5z"/>
<path d="M1398 3903 c7 -3 16 -2 19 1 4 3 -2 6 -13 5 -11 0 -14 -3 -6 -6z"/>
<path d="M1275 3880 c-3 -5 -1 -10 4 -10 6 0 11 5 11 10 0 6 -2 10 -4 10 -3 0
-8 -4 -11 -10z"/>
<path d="M1310 3878 c0 -4 7 -8 15 -8 8 0 15 4 15 8 0 5 -7 9 -15 9 -8 0 -15
-4 -15 -9z"/>
<path d="M4023 3883 c9 -2 25 -2 35 0 9 3 1 5 -18 5 -19 0 -27 -2 -17 -5z"/>
<path d="M4093 3883 c9 -2 23 -2 30 0 6 3 -1 5 -18 5 -16 0 -22 -2 -12 -5z"/>
<path d="M1170 3740 c-9 -6 -10 -10 -3 -10 6 0 15 5 18 10 8 12 4 12 -15 0z"/>
<path d="M1290 3738 c0 -11 12 -10 30 2 12 7 10 9 -8 7 -12 0 -22 -5 -22 -9z"/>
<path d="M1370 3740 c0 -4 7 -7 15 -6 23 3 26 12 5 13 -11 1 -20 -2 -20 -7z"/>
<path d="M1188 3693 c6 -2 18 -2 25 0 6 3 1 5 -13 5 -14 0 -19 -2 -12 -5z"/>
<path d="M3670 3600 c0 -5 5 -10 10 -10 6 0 10 5 10 10 0 6 -4 10 -10 10 -5 0
-10 -4 -10 -10z"/>
<path d="M3709 3600 c-6 -4 1 -7 15 -7 14 0 26 3 26 7 0 3 -7 7 -15 7 -8 0
-19 -4 -26 -7z"/>
<path d="M3765 3600 c-3 -5 1 -10 10 -10 9 0 13 5 10 10 -3 6 -8 10 -10 10 -2
0 -7 -4 -10 -10z"/>
<path d="M3813 3433 c9 -2 23 -2 30 0 6 3 -1 5 -18 5 -16 0 -22 -2 -12 -5z"/>
<path d="M990 3340 c0 -5 9 -8 20 -7 21 1 18 10 -5 13 -8 1 -15 -2 -15 -6z"/>
<path d="M4264 3223 c4 -4 16 -8 28 -10 12 -2 19 -1 16 2 -3 3 -16 8 -28 10
-12 2 -20 1 -16 -2z"/>
<path d="M948 3213 c6 -2 18 -2 25 0 6 3 1 5 -13 5 -14 0 -19 -2 -12 -5z"/>
<path d="M4020 3169 c0 -5 11 -9 25 -9 14 0 25 2 25 4 0 2 -11 6 -25 8 -14 3
-25 1 -25 -3z"/>
<path d="M4086 3172 c-3 -5 1 -9 9 -9 8 0 12 4 9 9 -3 4 -7 8 -9 8 -2 0 -6 -4
-9 -8z"/>
<path d="M3913 3133 c15 -2 37 -2 50 0 12 2 0 4 -28 4 -27 0 -38 -2 -22 -4z"/>
<path d="M3880 3069 c0 -5 5 -7 10 -4 6 3 10 8 10 11 0 2 -4 4 -10 4 -5 0 -10
-5 -10 -11z"/>
<path d="M3923 3073 c9 -2 25 -2 35 0 9 3 1 5 -18 5 -19 0 -27 -2 -17 -5z"/>
<path d="M4315 3040 c-3 -5 -1 -10 4 -10 6 0 11 5 11 10 0 6 -2 10 -4 10 -3 0
-8 -4 -11 -10z"/>
<path d="M4178 3003 c7 -3 16 -2 19 1 4 3 -2 6 -13 5 -11 0 -14 -3 -6 -6z"/>
<path d="M1178 2933 c7 -3 16 -2 19 1 4 3 -2 6 -13 5 -11 0 -14 -3 -6 -6z"/>
<path d="M781 2896 c7 -7 139 -10 146 -3 3 4 -29 7 -72 7 -43 0 -76 -2 -74 -4z"/>
<path d="M1180 2860 c-12 -8 -11 -10 8 -10 12 0 22 5 22 10 0 13 -11 13 -30 0z"/>
<path d="M3950 2840 c0 -5 5 -10 11 -10 5 0 7 5 4 10 -3 6 -8 10 -11 10 -2 0
-4 -4 -4 -10z"/>
<path d="M1088 2823 c7 -3 16 -2 19 1 4 3 -2 6 -13 5 -11 0 -14 -3 -6 -6z"/>
<path d="M4158 2783 c7 -3 16 -2 19 1 4 3 -2 6 -13 5 -11 0 -14 -3 -6 -6z"/>
<path d="M958 2773 c7 -3 16 -2 19 1 4 3 -2 6 -13 5 -11 0 -14 -3 -6 -6z"/>
<path d="M4143 2753 c20 -2 54 -2 75 0 20 2 3 4 -38 4 -41 0 -58 -2 -37 -4z"/>
<path d="M955 2740 c-17 -8 -17 -9 7 -7 15 1 24 5 22 9 -3 4 -6 8 -7 7 -1 0
-11 -4 -22 -9z"/>
<path d="M4106 2712 c-3 -5 1 -9 9 -9 8 0 12 4 9 9 -3 4 -7 8 -9 8 -2 0 -6 -4
-9 -8z"/>
<path d="M763 2663 c9 -2 25 -2 35 0 9 3 1 5 -18 5 -19 0 -27 -2 -17 -5z"/>
<path d="M830 2662 c0 -4 9 -8 20 -9 11 -1 20 2 20 5 0 4 -9 8 -20 9 -11 1
-20 -2 -20 -5z"/>
<path d="M716 2608 c3 -5 10 -6 15 -3 13 9 11 12 -6 12 -8 0 -12 -4 -9 -9z"/>
<path d="M4188 2523 c7 -3 16 -2 19 1 4 3 -2 6 -13 5 -11 0 -14 -3 -6 -6z"/>
<path d="M950 2480 c0 -5 7 -10 16 -10 8 0 12 5 9 10 -3 6 -10 10 -16 10 -5 0
-9 -4 -9 -10z"/>
<path d="M4150 2422 c0 -4 9 -8 20 -9 11 -1 20 2 20 5 0 4 -9 8 -20 9 -11 1
-20 -2 -20 -5z"/>
<path d="M4305 2420 c-19 -8 -19 -9 3 -9 12 -1 22 4 22 9 0 6 -1 10 -2 9 -2 0
-12 -4 -23 -9z"/>
<path d="M4238 2413 c7 -3 16 -2 19 1 4 3 -2 6 -13 5 -11 0 -14 -3 -6 -6z"/>
<path d="M4358 2413 c7 -3 16 -2 19 1 4 3 -2 6 -13 5 -11 0 -14 -3 -6 -6z"/>
<path d="M4330 2359 c0 -5 5 -7 10 -4 6 3 10 8 10 11 0 2 -4 4 -10 4 -5 0 -10
-5 -10 -11z"/>
<path d="M780 2350 c-9 -6 -10 -10 -3 -10 6 0 15 5 18 10 8 12 4 12 -15 0z"/>
<path d="M4548 2233 c7 -3 16 -2 19 1 4 3 -2 6 -13 5 -11 0 -14 -3 -6 -6z"/>
<path d="M460 2220 c18 -12 30 -13 30 -2 0 4 -10 9 -22 9 -18 2 -20 0 -8 -7z"/>
<path d="M506 2220 c8 -7 104 -8 104 -1 0 4 -24 7 -54 7 -30 -1 -52 -3 -50 -6z"/>
<path d="M4458 2183 c7 -3 16 -2 19 1 4 3 -2 6 -13 5 -11 0 -14 -3 -6 -6z"/>
<path d="M738 2103 c7 -3 16 -2 19 1 4 3 -2 6 -13 5 -11 0 -14 -3 -6 -6z"/>
<path d="M4420 2050 c0 -6 7 -10 15 -10 8 0 15 2 15 4 0 2 -7 6 -15 10 -8 3
-15 1 -15 -4z"/>
<path d="M4475 2050 c-16 -7 -17 -9 -3 -9 9 -1 20 4 23 9 7 11 7 11 -20 0z"/>
<path d="M505 2040 c3 -5 8 -10 11 -10 2 0 4 5 4 10 0 6 -5 10 -11 10 -5 0 -7
-4 -4 -10z"/>
<path d="M4366 2011 c-3 -4 6 -7 19 -7 14 0 22 2 19 5 -8 8 -34 10 -38 2z"/>
<path d="M4435 2010 c-16 -7 -17 -9 -3 -9 9 -1 20 4 23 9 7 11 7 11 -20 0z"/>
<path d="M4480 2010 c-12 -7 -10 -9 7 -7 12 0 19 5 17 9 -6 10 -6 10 -24 -2z"/>
<path d="M568 1993 c56 -2 148 -2 205 0 56 1 10 3 -103 3 -113 0 -159 -2 -102
-3z"/>
<path d="M700 1926 c0 -2 11 -6 25 -8 14 -3 25 -1 25 3 0 5 -11 9 -25 9 -14 0
-25 -2 -25 -4z"/>
<path d="M863 1883 c9 -2 25 -2 35 0 9 3 1 5 -18 5 -19 0 -27 -2 -17 -5z"/>
<path d="M4683 1803 c15 -2 37 -2 50 0 12 2 0 4 -28 4 -27 0 -38 -2 -22 -4z"/>
<path d="M4735 1670 c-4 -6 3 -10 14 -10 25 0 27 6 6 13 -8 4 -17 2 -20 -3z"/>
<path d="M4530 1580 c0 -4 7 -7 15 -6 23 3 26 12 5 13 -11 1 -20 -2 -20 -7z"/>
<path d="M4580 1586 c0 -2 7 -6 15 -10 8 -3 15 -1 15 4 0 6 -7 10 -15 10 -8 0
-15 -2 -15 -4z"/>
<path d="M518 1533 c7 -3 16 -2 19 1 4 3 -2 6 -13 5 -11 0 -14 -3 -6 -6z"/>
<path d="M4756 1501 c-3 -4 6 -7 20 -5 35 3 43 14 11 14 -14 0 -28 -4 -31 -9z"/>
<path d="M4460 1460 c0 -4 28 -7 61 -7 35 0 55 3 47 8 -16 9 -108 8 -108 -1z"/>
<path d="M4590 1459 c0 -5 11 -9 25 -9 14 0 25 2 25 4 0 2 -11 6 -25 8 -14 3
-25 1 -25 -3z"/>
<path d="M4650 1459 c0 -5 9 -9 20 -9 11 0 20 2 20 4 0 2 -9 6 -20 9 -11 3
-20 1 -20 -4z"/>
<path d="M405 1450 c-17 -8 -17 -9 7 -7 15 1 24 5 22 9 -3 4 -6 8 -7 7 -1 0
-11 -4 -22 -9z"/>
<path d="M450 1449 c0 -4 21 -7 46 -7 25 0 43 2 39 6 -8 9 -85 10 -85 1z"/>
<path d="M4520 1356 c0 -2 7 -6 15 -10 8 -3 15 -1 15 4 0 6 -7 10 -15 10 -8 0
-15 -2 -15 -4z"/>
<path d="M4573 1353 c9 -2 23 -2 30 0 6 3 -1 5 -18 5 -16 0 -22 -2 -12 -5z"/>
<path d="M395 1340 c-3 -5 -1 -10 4 -10 6 0 11 5 11 10 0 6 -2 10 -4 10 -3 0
-8 -4 -11 -10z"/>
<path d="M4698 1323 c7 -3 16 -2 19 1 4 3 -2 6 -13 5 -11 0 -14 -3 -6 -6z"/>
<path d="M228 1313 c7 -3 16 -2 19 1 4 3 -2 6 -13 5 -11 0 -14 -3 -6 -6z"/>
<path d="M4698 1273 c7 -3 16 -2 19 1 4 3 -2 6 -13 5 -11 0 -14 -3 -6 -6z"/>
<path d="M4460 1218 c0 -3 20 -6 45 -6 25 0 45 3 45 7 0 4 -20 7 -45 7 -25 -1
-45 -4 -45 -8z"/>
<path d="M4568 1219 c-5 -3 11 -6 36 -6 25 0 46 3 46 7 0 8 -68 8 -82 -1z"/>
<path d="M4690 1220 c-13 -8 -12 -10 3 -10 9 0 17 5 17 10 0 12 -1 12 -20 0z"/>
<path d="M245 1210 l-40 -7 43 -2 c23 0 42 4 42 9 0 6 -1 9 -2 9 -2 -1 -21 -5
-43 -9z"/>
<path d="M4728 1213 c6 -2 18 -2 25 0 6 3 1 5 -13 5 -14 0 -19 -2 -12 -5z"/>
<path d="M4778 1213 c6 -2 18 -2 25 0 6 3 1 5 -13 5 -14 0 -19 -2 -12 -5z"/>
<path d="M4500 1178 c0 -11 98 -10 104 0 3 5 -19 8 -49 8 -30 -1 -55 -4 -55
-8z"/>
<path d="M4628 1183 c7 -3 16 -2 19 1 4 3 -2 6 -13 5 -11 0 -14 -3 -6 -6z"/>
<path d="M2799 1142 c-8 -3 -20 -9 -27 -15 -7 -5 -31 -11 -55 -12 -94 -5 -196
-18 -192 -24 5 -9 853 -6 862 3 4 3 0 14 -9 23 -15 14 -21 14 -63 1 -34 -12
-56 -13 -83 -6 -45 11 -38 11 -147 3 -80 -7 -95 -5 -135 14 -42 19 -111 25
-151 13z"/>
<path d="M4538 1143 c6 -2 18 -2 25 0 6 3 1 5 -13 5 -14 0 -19 -2 -12 -5z"/>
<path d="M1322 1123 c-104 -21 -108 -32 -12 -33 47 -1 177 -3 290 -5 113 -2
196 0 185 5 -11 4 -87 8 -170 9 -129 1 -152 4 -163 19 -16 21 -48 22 -130 5z"/>
<path d="M3525 1109 c-10 -16 -1 -21 52 -24 26 -2 39 -1 28 2 -11 3 -29 12
-40 19 -23 17 -32 17 -40 3z"/>
<path d="M25 1090 c5 -8 86 -1 95 7 2 2 -19 3 -47 2 -29 -1 -50 -6 -48 -9z"/>
</g>
</svg>
