<?xml version="1.0" standalone="no"?>
<!DOCTYPE svg PUBLIC "-//W3C//DTD SVG 20010904//EN"
 "http://www.w3.org/TR/2001/REC-SVG-20010904/DTD/svg10.dtd">
<svg version="1.0" xmlns="http://www.w3.org/2000/svg"
 width="750.000000pt" height="750.000000pt" viewBox="0 0 750.000000 750.000000"
 preserveAspectRatio="xMidYMid meet">
<metadata>
Created by potrace 1.11, written by Peter Selinger 2001-2013
</metadata>
<g transform="translate(0.000000,750.000000) scale(0.100000,-0.100000)"
fill="#000000" stroke="none">
<path d="M5248 5626 c-367 -182 -668 -333 -668 -336 0 -3 28 -20 63 -38 34
-18 114 -60 177 -93 139 -73 169 -74 270 -14 36 21 81 47 100 58 19 10 76 43
125 72 122 71 177 97 188 86 8 -8 9 -254 2 -511 -2 -63 -6 -252 -10 -420 -19
-891 -30 -1196 -41 -1234 -10 -32 -37 -90 -49 -102 -5 -6 -17 -22 -25 -34 -15
-23 -190 -180 -200 -180 -3 0 -7 15 -10 33 -4 38 -4 442 1 852 3 263 2 292
-14 316 -17 26 -576 369 -625 384 -17 5 -48 -9 -135 -62 -227 -140 -287 -178
-287 -184 0 -4 28 -17 63 -30 83 -30 303 -127 454 -200 124 -60 153 -84 153
-129 0 -65 -86 -121 -595 -385 -71 -37 -138 -74 -147 -82 -31 -28 -38 -76 -41
-320 -4 -239 -4 -242 -31 -297 -27 -55 -86 -121 -187 -208 l-54 -47 -13 42
c-9 31 -11 104 -7 277 3 129 7 387 10 572 7 413 12 392 -113 471 -125 78 -464
282 -487 292 -51 22 -73 13 -262 -105 -104 -65 -187 -121 -186 -126 1 -4 113
-58 250 -119 343 -154 345 -155 364 -193 20 -38 12 -89 -18 -121 -15 -16 -440
-255 -644 -362 -20 -11 -47 -31 -60 -45 l-24 -26 -3 -336 c-2 -242 0 -344 9
-364 12 -29 32 -43 169 -115 41 -22 105 -57 142 -77 46 -25 74 -35 88 -31 16
5 222 173 326 267 39 35 81 26 240 -51 82 -40 164 -74 181 -76 30 -3 44 8 185
152 84 85 166 161 182 168 40 17 59 10 207 -73 123 -69 139 -76 168 -73 7 0
86 73 174 161 142 142 165 160 194 160 20 0 92 -29 189 -75 86 -41 167 -75
180 -75 22 0 40 17 250 237 69 72 81 71 278 -22 87 -41 161 -77 164 -80 3 -3
9 -5 14 -5 4 0 8 347 8 770 0 679 2 771 15 776 21 8 283 -144 309 -179 21 -28
21 -37 21 -480 0 -495 1 -500 59 -536 38 -24 256 -133 310 -155 21 -9 45 -16
53 -16 13 0 106 61 123 80 3 3 62 50 133 105 70 54 127 102 127 105 0 7 -143
59 -245 90 -61 19 -93 38 -107 63 -10 17 -13 131 -13 499 0 555 10 505 -121
573 -164 85 -204 107 -208 114 -3 4 87 68 200 142 113 74 219 144 235 156 l31
21 -119 79 c-65 43 -119 81 -121 86 -2 4 -8 7 -14 7 -6 0 -31 15 -57 33 -91
66 -166 107 -188 103 -32 -7 -55 -20 -188 -111 -66 -45 -127 -84 -135 -87 -8
-4 -32 -13 -52 -22 l-37 -16 4 128 c2 70 7 188 10 262 3 74 8 223 11 330 3
107 7 210 8 228 1 18 0 35 -3 36 -3 2 -306 -146 -673 -328z m838 -766 c102
-49 190 -90 195 -90 5 0 13 -10 18 -22 7 -20 -6 -31 -157 -126 -92 -57 -185
-114 -207 -128 l-41 -24 0 240 c0 132 1 240 2 240 2 0 87 -40 190 -90z m-1313
-1290 c7 -32 0 -383 -8 -465 -12 -106 -75 -191 -291 -388 -60 -54 -61 -49 -62
276 -1 180 3 311 10 342 16 72 85 137 211 200 54 27 100 52 103 57 11 18 32 6
37 -22z m-1479 -312 c7 -54 0 -359 -10 -482 -6 -81 -35 -144 -91 -203 -56 -59
-199 -173 -216 -173 -8 0 -18 12 -22 28 -6 25 -6 226 0 392 1 41 4 118 5 170
2 52 7 103 12 113 10 19 286 207 304 207 7 0 15 -24 18 -52z"/>
<path d="M1935 5135 c-22 -13 -47 -28 -55 -31 -8 -4 -62 -36 -119 -71 -57 -35
-105 -63 -108 -63 -2 0 -29 -16 -59 -35 -30 -19 -56 -35 -58 -35 -3 0 -44 -24
-93 -54 -48 -29 -223 -133 -388 -231 -420 -249 -507 -302 -529 -318 -17 -12
-11 -18 80 -70 55 -30 137 -78 184 -106 52 -32 97 -51 115 -51 21 0 54 18 105
56 123 91 221 156 227 150 10 -9 5 -380 -12 -1006 -2 -80 -7 -255 -10 -390 -8
-277 -10 -334 -21 -620 -11 -284 -9 -350 17 -405 24 -50 63 -85 152 -134 34
-18 85 -48 112 -66 28 -18 83 -53 123 -79 l72 -46 0 590 c-1 534 1 593 16 622
22 42 20 41 214 158 91 55 239 146 330 204 178 112 202 136 206 210 4 62 13
594 20 1128 5 442 4 479 -12 507 -13 22 -49 44 -143 90 -281 134 -297 139
-366 96z m-3 -442 c28 -16 59 -32 69 -38 10 -5 21 -22 24 -37 6 -26 0 -746
-10 -1160 -6 -227 -14 -258 -78 -311 -23 -19 -88 -65 -145 -102 -81 -54 -105
-66 -115 -56 -14 14 -15 227 -3 816 5 209 10 461 11 560 3 205 8 237 41 281
25 35 96 74 132 74 12 0 46 -12 74 -27z"/>
<path d="M917 2953 c-6 -9 -163 -117 -202 -139 -11 -7 -48 -26 -81 -43 -80
-40 -138 -99 -163 -164 -17 -44 -19 -69 -15 -157 6 -122 5 -320 -1 -329 -2 -4
0 -13 5 -21 12 -19 33 -7 267 146 159 104 173 115 182 151 12 43 20 200 23
410 2 133 -2 167 -15 146z"/>
</g>
</svg>
